0
SECTION
2
HEADER
9
$ACADVER
1
AC1021
9
$LASTSAVEDBY
1
@tarikjabiri/dxf
9
$HANDSEED
5
547
9
$INSUNITS
70
4
9
$CLAYER
8
Edge.Cuts
9
$VIEWCTR
10
-62.619447564863464
20
25.585911411860394
0
ENDSEC
0
SECTION
2
CLASSES
0
ENDSEC
0
SECTION
2
TABLES
0
TABLE
2
VPORT
5
1
330
0
100
AcDbSymbolTable
70
1
0
VPORT
5
19
330
1
100
AcDbSymbolTableRecord
100
AcDbViewportTableRecord
2
*Active
70
0
10
0
20
0
11
1
21
1
12
-62.619447564863464
22
25.585911411860394
13
0
23
0
14
10
24
10
15
10
25
10
16
0
26
0
36
1
17
0
27
0
37
0
40
292.6472294237208
41
2
42
50
43
0
44
0
50
0
51
0
71
0
72
100
73
1
74
3
75
0
76
1
77
0
78
0
281
0
65
1
110
0
120
0
130
0
111
1
121
0
131
0
112
0
122
1
132
0
79
0
146
0
348
10020
60
7
61
5
292
1
282
1
141
0
142
0
63
250
421
3358443
0
ENDTAB
0
TABLE
2
LTYPE
5
2
330
0
100
AcDbSymbolTable
70
3
0
LTYPE
5
12
330
2
100
AcDbSymbolTableRecord
100
AcDbLinetypeTableRecord
2
ByBlock
70
0
3

72
65
73
0
40
0
0
LTYPE
5
13
330
2
100
AcDbSymbolTableRecord
100
AcDbLinetypeTableRecord
2
ByLayer
70
0
3

72
65
73
0
40
0
0
LTYPE
5
14
330
2
100
AcDbSymbolTableRecord
100
AcDbLinetypeTableRecord
2
Continuous
70
0
3
Solid line
72
65
73
0
40
0
0
ENDTAB
0
TABLE
2
LAYER
5
3
330
0
100
AcDbSymbolTable
70
21
0
LAYER
5
15
330
3
100
AcDbSymbolTableRecord
100
AcDbLayerTableRecord
2
0
70
0
62
7
6
Continuous
370
0
390
0
0
LAYER
5
1A
330
3
100
AcDbSymbolTableRecord
100
AcDbLayerTableRecord
2
F.Cu
70
0
62
0
6
Continuous
370
0
390
0
0
LAYER
5
1B
330
3
100
AcDbSymbolTableRecord
100
AcDbLayerTableRecord
2
B.Cu
70
0
62
0
6
Continuous
370
0
390
0
0
LAYER
5
1C
330
3
100
AcDbSymbolTableRecord
100
AcDbLayerTableRecord
2
B.Adhes
70
0
62
0
6
Continuous
370
0
390
0
0
LAYER
5
1D
330
3
100
AcDbSymbolTableRecord
100
AcDbLayerTableRecord
2
F.Adhes
70
0
62
0
6
Continuous
370
0
390
0
0
LAYER
5
1E
330
3
100
AcDbSymbolTableRecord
100
AcDbLayerTableRecord
2
B.Paste
70
0
62
0
6
Continuous
370
0
390
0
0
LAYER
5
1F
330
3
100
AcDbSymbolTableRecord
100
AcDbLayerTableRecord
2
F.Paste
70
0
62
0
6
Continuous
370
0
390
0
0
LAYER
5
20
330
3
100
AcDbSymbolTableRecord
100
AcDbLayerTableRecord
2
B.SilkS
70
0
62
0
6
Continuous
370
0
390
0
0
LAYER
5
21
330
3
100
AcDbSymbolTableRecord
100
AcDbLayerTableRecord
2
F.SilkS
70
0
62
0
6
Continuous
370
0
390
0
0
LAYER
5
22
330
3
100
AcDbSymbolTableRecord
100
AcDbLayerTableRecord
2
B.Mask
70
0
62
0
6
Continuous
370
0
390
0
0
LAYER
5
23
330
3
100
AcDbSymbolTableRecord
100
AcDbLayerTableRecord
2
F.Mask
70
0
62
0
6
Continuous
370
0
390
0
0
LAYER
5
24
330
3
100
AcDbSymbolTableRecord
100
AcDbLayerTableRecord
2
Dwgs.User
70
0
62
0
6
Continuous
370
0
390
0
0
LAYER
5
25
330
3
100
AcDbSymbolTableRecord
100
AcDbLayerTableRecord
2
Cmts.User
70
0
62
0
6
Continuous
370
0
390
0
0
LAYER
5
26
330
3
100
AcDbSymbolTableRecord
100
AcDbLayerTableRecord
2
Eco1.User
70
0
62
0
6
Continuous
370
0
390
0
0
LAYER
5
27
330
3
100
AcDbSymbolTableRecord
100
AcDbLayerTableRecord
2
Eco2.User
70
0
62
0
6
Continuous
370
0
390
0
0
LAYER
5
28
330
3
100
AcDbSymbolTableRecord
100
AcDbLayerTableRecord
2
Edge.Cuts
70
0
62
0
6
Continuous
370
0
390
0
0
LAYER
5
29
330
3
100
AcDbSymbolTableRecord
100
AcDbLayerTableRecord
2
Margin
70
0
62
0
6
Continuous
370
0
390
0
0
LAYER
5
2A
330
3
100
AcDbSymbolTableRecord
100
AcDbLayerTableRecord
2
B.CrtYd
70
0
62
0
6
Continuous
370
0
390
0
0
LAYER
5
2B
330
3
100
AcDbSymbolTableRecord
100
AcDbLayerTableRecord
2
F.CrtYd
70
0
62
0
6
Continuous
370
0
390
0
0
LAYER
5
2C
330
3
100
AcDbSymbolTableRecord
100
AcDbLayerTableRecord
2
B.Fab
70
0
62
0
6
Continuous
370
0
390
0
0
LAYER
5
2D
330
3
100
AcDbSymbolTableRecord
100
AcDbLayerTableRecord
2
F.Fab
70
0
62
0
6
Continuous
370
0
390
0
0
ENDTAB
0
TABLE
2
STYLE
5
4
330
0
100
AcDbSymbolTable
70
1
0
STYLE
5
16
330
4
100
AcDbSymbolTableRecord
100
AcDbTextStyleTableRecord
2
Standard
70
0
40
0
41
1
50
0
71
0
42
1
3
txt
4

0
ENDTAB
0
TABLE
2
VIEW
5
5
330
0
100
AcDbSymbolTable
70
0
0
ENDTAB
0
TABLE
2
UCS
5
6
330
0
100
AcDbSymbolTable
70
0
0
ENDTAB
0
TABLE
2
APPID
5
7
330
0
100
AcDbSymbolTable
70
1
0
APPID
5
17
330
7
100
AcDbSymbolTableRecord
100
AcDbRegAppTableRecord
2
ACAD
70
0
0
ENDTAB
0
TABLE
2
DIMSTYLE
5
8
330
0
100
AcDbSymbolTable
70
1
100
AcDbDimStyleTable
0
DIMSTYLE
105
18
330
8
100
AcDbSymbolTableRecord
100
AcDbDimStyleTableRecord
2
Standard
70
0
340
16
0
ENDTAB
0
TABLE
2
BLOCK_RECORD
5
9
330
0
100
AcDbSymbolTable
70
2
0
BLOCK_RECORD
5
C
330
9
100
AcDbSymbolTableRecord
100
AcDbBlockTableRecord
2
*Model_Space
70
0
280
1
281
0
0
BLOCK_RECORD
5
F
330
9
100
AcDbSymbolTableRecord
100
AcDbBlockTableRecord
2
*Paper_Space
70
0
280
1
281
0
0
ENDTAB
0
ENDSEC
0
SECTION
2
BLOCKS
0
BLOCK
5
D
330
C
100
AcDbEntity
8
Edge.Cuts
100
AcDbBlockBegin
2
*Model_Space
70
0
10
0
20
0
30
0
3
*Model_Space
1

0
ENDBLK
5
E
100
AcDbEntity
8
0
100
AcDbBlockEnd
0
BLOCK
5
10
330
F
100
AcDbEntity
8
0
100
AcDbBlockBegin
2
*Paper_Space
70
0
10
0
20
0
30
0
3
*Paper_Space
1

0
ENDBLK
5
11
100
AcDbEntity
8
0
100
AcDbBlockEnd
0
ENDSEC
0
SECTION
2
ENTITIES
0
TEXT
5
2E
330
C
100
AcDbEntity
8
F.SilkS
100
AcDbText
10
0
20
0
30
0
40
1.27
1
S1
7
STANDARD
100
AcDbText
0
TEXT
5
2F
330
C
100
AcDbEntity
8
F.SilkS
100
AcDbText
10
0
20
0
30
0
40
1.27
1

7
STANDARD
100
AcDbText
0
LINE
5
30
330
C
100
AcDbEntity
8
F.SilkS
100
AcDbLine
10
7
20
6
30
0
11
7
21
7
31
0
0
LINE
5
31
330
C
100
AcDbEntity
8
F.SilkS
100
AcDbLine
10
7
20
-7
30
0
11
6
21
-7
31
0
0
LINE
5
32
330
C
100
AcDbEntity
8
F.SilkS
100
AcDbLine
10
6
20
7
30
0
11
7
21
7
31
0
0
LINE
5
33
330
C
100
AcDbEntity
8
F.SilkS
100
AcDbLine
10
7
20
-7
30
0
11
7
21
-6
31
0
0
LINE
5
34
330
C
100
AcDbEntity
8
F.SilkS
100
AcDbLine
10
-7
20
-6
30
0
11
-7
21
-7
31
0
0
LINE
5
35
330
C
100
AcDbEntity
8
F.SilkS
100
AcDbLine
10
-7
20
7
30
0
11
-6
21
7
31
0
0
LINE
5
36
330
C
100
AcDbEntity
8
F.SilkS
100
AcDbLine
10
-6
20
-7
30
0
11
-7
21
-7
31
0
0
LINE
5
37
330
C
100
AcDbEntity
8
F.SilkS
100
AcDbLine
10
-7
20
7
30
0
11
-7
21
6
31
0
0
CIRCLE
5
38
330
C
100
AcDbEntity
8
F.SilkS
100
AcDbCircle
10
0
20
0
30
0
40
1.9939
0
CIRCLE
5
39
330
C
100
AcDbEntity
8
F.SilkS
100
AcDbCircle
10
-5.08
20
0
30
0
40
0.8509
0
CIRCLE
5
3A
330
C
100
AcDbEntity
8
F.SilkS
100
AcDbCircle
10
5.08
20
0
30
0
40
0.8509
0
LINE
5
3B
330
C
100
AcDbEntity
8
F.SilkS
100
AcDbLine
10
9.5
20
9.5
30
0
11
-9.5
21
9.5
31
0
0
LINE
5
3C
330
C
100
AcDbEntity
8
F.SilkS
100
AcDbLine
10
-9.5
20
9.5
30
0
11
-9.5
21
-9.5
31
0
0
LINE
5
3D
330
C
100
AcDbEntity
8
F.SilkS
100
AcDbLine
10
-9.5
20
-9.5
30
0
11
9.5
21
-9.5
31
0
0
LINE
5
3E
330
C
100
AcDbEntity
8
F.SilkS
100
AcDbLine
10
9.5
20
-9.5
30
0
11
9.5
21
9.5
31
0
0
CIRCLE
5
3F
330
C
100
AcDbEntity
8
F.SilkS
100
AcDbCircle
10
-2.54
20
5.08
30
0
40
1.5
0
CIRCLE
5
40
330
C
100
AcDbEntity
8
F.SilkS
100
AcDbCircle
10
3.81
20
2.54
30
0
40
1.5
0
LWPOLYLINE
5
41
330
C
100
AcDbEntity
8
F.SilkS
62
1
100
AcDbPolyline
90
4
70
1
43
0
38
0
39
0
10
8.36
20
3.79
10
5.8100000000000005
20
3.79
10
5.8100000000000005
20
1.29
10
8.36
20
1.29
0
LWPOLYLINE
5
42
330
C
100
AcDbEntity
8
F.SilkS
62
1
100
AcDbPolyline
90
4
70
1
43
0
38
0
39
0
10
-4.567
20
6.33
10
-7.116999999999999
20
6.33
10
-7.116999999999999
20
3.83
10
-4.567
20
3.83
0
TEXT
5
43
330
C
100
AcDbEntity
8
F.SilkS
100
AcDbText
10
0
20
19.05
30
0
40
1.27
1
S2
7
STANDARD
100
AcDbText
0
TEXT
5
44
330
C
100
AcDbEntity
8
F.SilkS
100
AcDbText
10
0
20
19.05
30
0
40
1.27
1

7
STANDARD
100
AcDbText
0
LINE
5
45
330
C
100
AcDbEntity
8
F.SilkS
100
AcDbLine
10
7
20
25.05
30
0
11
7
21
26.05
31
0
0
LINE
5
46
330
C
100
AcDbEntity
8
F.SilkS
100
AcDbLine
10
7
20
12.05
30
0
11
6
21
12.05
31
0
0
LINE
5
47
330
C
100
AcDbEntity
8
F.SilkS
100
AcDbLine
10
6
20
26.05
30
0
11
7
21
26.05
31
0
0
LINE
5
48
330
C
100
AcDbEntity
8
F.SilkS
100
AcDbLine
10
7
20
12.05
30
0
11
7
21
13.05
31
0
0
LINE
5
49
330
C
100
AcDbEntity
8
F.SilkS
100
AcDbLine
10
-7
20
13.05
30
0
11
-7
21
12.05
31
0
0
LINE
5
4A
330
C
100
AcDbEntity
8
F.SilkS
100
AcDbLine
10
-7
20
26.05
30
0
11
-6
21
26.05
31
0
0
LINE
5
4B
330
C
100
AcDbEntity
8
F.SilkS
100
AcDbLine
10
-6
20
12.05
30
0
11
-7
21
12.05
31
0
0
LINE
5
4C
330
C
100
AcDbEntity
8
F.SilkS
100
AcDbLine
10
-7
20
26.05
30
0
11
-7
21
25.05
31
0
0
CIRCLE
5
4D
330
C
100
AcDbEntity
8
F.SilkS
100
AcDbCircle
10
0
20
19.05
30
0
40
1.9939
0
CIRCLE
5
4E
330
C
100
AcDbEntity
8
F.SilkS
100
AcDbCircle
10
-5.08
20
19.05
30
0
40
0.8509
0
CIRCLE
5
4F
330
C
100
AcDbEntity
8
F.SilkS
100
AcDbCircle
10
5.08
20
19.05
30
0
40
0.8509
0
LINE
5
50
330
C
100
AcDbEntity
8
F.SilkS
100
AcDbLine
10
9.5
20
28.55
30
0
11
-9.5
21
28.55
31
0
0
LINE
5
51
330
C
100
AcDbEntity
8
F.SilkS
100
AcDbLine
10
-9.5
20
28.55
30
0
11
-9.5
21
9.55
31
0
0
LINE
5
52
330
C
100
AcDbEntity
8
F.SilkS
100
AcDbLine
10
-9.5
20
9.55
30
0
11
9.5
21
9.55
31
0
0
LINE
5
53
330
C
100
AcDbEntity
8
F.SilkS
100
AcDbLine
10
9.5
20
9.55
30
0
11
9.5
21
28.55
31
0
0
CIRCLE
5
54
330
C
100
AcDbEntity
8
F.SilkS
100
AcDbCircle
10
-2.54
20
24.130000000000003
30
0
40
1.5
0
CIRCLE
5
55
330
C
100
AcDbEntity
8
F.SilkS
100
AcDbCircle
10
3.81
20
21.59
30
0
40
1.5
0
LWPOLYLINE
5
56
330
C
100
AcDbEntity
8
F.SilkS
62
1
100
AcDbPolyline
90
4
70
1
43
0
38
0
39
0
10
8.36
20
22.84
10
5.8100000000000005
20
22.84
10
5.8100000000000005
20
20.34
10
8.36
20
20.34
0
LWPOLYLINE
5
57
330
C
100
AcDbEntity
8
F.SilkS
62
1
100
AcDbPolyline
90
4
70
1
43
0
38
0
39
0
10
-4.567
20
25.380000000000003
10
-7.116999999999999
20
25.380000000000003
10
-7.116999999999999
20
22.880000000000003
10
-4.567
20
22.880000000000003
0
TEXT
5
58
330
C
100
AcDbEntity
8
F.SilkS
100
AcDbText
10
0
20
38.1
30
0
40
1.27
1
S3
7
STANDARD
100
AcDbText
0
TEXT
5
59
330
C
100
AcDbEntity
8
F.SilkS
100
AcDbText
10
0
20
38.1
30
0
40
1.27
1

7
STANDARD
100
AcDbText
0
LINE
5
5A
330
C
100
AcDbEntity
8
F.SilkS
100
AcDbLine
10
7
20
44.1
30
0
11
7
21
45.1
31
0
0
LINE
5
5B
330
C
100
AcDbEntity
8
F.SilkS
100
AcDbLine
10
7
20
31.1
30
0
11
6
21
31.1
31
0
0
LINE
5
5C
330
C
100
AcDbEntity
8
F.SilkS
100
AcDbLine
10
6
20
45.1
30
0
11
7
21
45.1
31
0
0
LINE
5
5D
330
C
100
AcDbEntity
8
F.SilkS
100
AcDbLine
10
7
20
31.1
30
0
11
7
21
32.1
31
0
0
LINE
5
5E
330
C
100
AcDbEntity
8
F.SilkS
100
AcDbLine
10
-7
20
32.1
30
0
11
-7
21
31.1
31
0
0
LINE
5
5F
330
C
100
AcDbEntity
8
F.SilkS
100
AcDbLine
10
-7
20
45.1
30
0
11
-6
21
45.1
31
0
0
LINE
5
60
330
C
100
AcDbEntity
8
F.SilkS
100
AcDbLine
10
-6
20
31.1
30
0
11
-7
21
31.1
31
0
0
LINE
5
61
330
C
100
AcDbEntity
8
F.SilkS
100
AcDbLine
10
-7
20
45.1
30
0
11
-7
21
44.1
31
0
0
CIRCLE
5
62
330
C
100
AcDbEntity
8
F.SilkS
100
AcDbCircle
10
0
20
38.1
30
0
40
1.9939
0
CIRCLE
5
63
330
C
100
AcDbEntity
8
F.SilkS
100
AcDbCircle
10
-5.08
20
38.1
30
0
40
0.8509
0
CIRCLE
5
64
330
C
100
AcDbEntity
8
F.SilkS
100
AcDbCircle
10
5.08
20
38.1
30
0
40
0.8509
0
LINE
5
65
330
C
100
AcDbEntity
8
F.SilkS
100
AcDbLine
10
9.5
20
47.6
30
0
11
-9.5
21
47.6
31
0
0
LINE
5
66
330
C
100
AcDbEntity
8
F.SilkS
100
AcDbLine
10
-9.5
20
47.6
30
0
11
-9.5
21
28.6
31
0
0
LINE
5
67
330
C
100
AcDbEntity
8
F.SilkS
100
AcDbLine
10
-9.5
20
28.6
30
0
11
9.5
21
28.6
31
0
0
LINE
5
68
330
C
100
AcDbEntity
8
F.SilkS
100
AcDbLine
10
9.5
20
28.6
30
0
11
9.5
21
47.6
31
0
0
CIRCLE
5
69
330
C
100
AcDbEntity
8
F.SilkS
100
AcDbCircle
10
-2.54
20
43.18
30
0
40
1.5
0
CIRCLE
5
6A
330
C
100
AcDbEntity
8
F.SilkS
100
AcDbCircle
10
3.81
20
40.64
30
0
40
1.5
0
LWPOLYLINE
5
6B
330
C
100
AcDbEntity
8
F.SilkS
62
1
100
AcDbPolyline
90
4
70
1
43
0
38
0
39
0
10
8.36
20
41.89
10
5.8100000000000005
20
41.89
10
5.8100000000000005
20
39.39
10
8.36
20
39.39
0
LWPOLYLINE
5
6C
330
C
100
AcDbEntity
8
F.SilkS
62
1
100
AcDbPolyline
90
4
70
1
43
0
38
0
39
0
10
-4.567
20
44.43
10
-7.116999999999999
20
44.43
10
-7.116999999999999
20
41.93
10
-4.567
20
41.93
0
TEXT
5
6D
330
C
100
AcDbEntity
8
F.SilkS
100
AcDbText
10
0
20
57.150000000000006
30
0
40
1.27
1
S4
7
STANDARD
100
AcDbText
0
TEXT
5
6E
330
C
100
AcDbEntity
8
F.SilkS
100
AcDbText
10
0
20
57.150000000000006
30
0
40
1.27
1

7
STANDARD
100
AcDbText
0
LINE
5
6F
330
C
100
AcDbEntity
8
F.SilkS
100
AcDbLine
10
7
20
63.150000000000006
30
0
11
7
21
64.15
31
0
0
LINE
5
70
330
C
100
AcDbEntity
8
F.SilkS
100
AcDbLine
10
7
20
50.150000000000006
30
0
11
6
21
50.150000000000006
31
0
0
LINE
5
71
330
C
100
AcDbEntity
8
F.SilkS
100
AcDbLine
10
6
20
64.15
30
0
11
7
21
64.15
31
0
0
LINE
5
72
330
C
100
AcDbEntity
8
F.SilkS
100
AcDbLine
10
7
20
50.150000000000006
30
0
11
7
21
51.150000000000006
31
0
0
LINE
5
73
330
C
100
AcDbEntity
8
F.SilkS
100
AcDbLine
10
-7
20
51.150000000000006
30
0
11
-7
21
50.150000000000006
31
0
0
LINE
5
74
330
C
100
AcDbEntity
8
F.SilkS
100
AcDbLine
10
-7
20
64.15
30
0
11
-6
21
64.15
31
0
0
LINE
5
75
330
C
100
AcDbEntity
8
F.SilkS
100
AcDbLine
10
-6
20
50.150000000000006
30
0
11
-7
21
50.150000000000006
31
0
0
LINE
5
76
330
C
100
AcDbEntity
8
F.SilkS
100
AcDbLine
10
-7
20
64.15
30
0
11
-7
21
63.150000000000006
31
0
0
CIRCLE
5
77
330
C
100
AcDbEntity
8
F.SilkS
100
AcDbCircle
10
0
20
57.150000000000006
30
0
40
1.9939
0
CIRCLE
5
78
330
C
100
AcDbEntity
8
F.SilkS
100
AcDbCircle
10
-5.08
20
57.150000000000006
30
0
40
0.8509
0
CIRCLE
5
79
330
C
100
AcDbEntity
8
F.SilkS
100
AcDbCircle
10
5.08
20
57.150000000000006
30
0
40
0.8509
0
LINE
5
7A
330
C
100
AcDbEntity
8
F.SilkS
100
AcDbLine
10
9.5
20
66.65
30
0
11
-9.5
21
66.65
31
0
0
LINE
5
7B
330
C
100
AcDbEntity
8
F.SilkS
100
AcDbLine
10
-9.5
20
66.65
30
0
11
-9.5
21
47.650000000000006
31
0
0
LINE
5
7C
330
C
100
AcDbEntity
8
F.SilkS
100
AcDbLine
10
-9.5
20
47.650000000000006
30
0
11
9.5
21
47.650000000000006
31
0
0
LINE
5
7D
330
C
100
AcDbEntity
8
F.SilkS
100
AcDbLine
10
9.5
20
47.650000000000006
30
0
11
9.5
21
66.65
31
0
0
CIRCLE
5
7E
330
C
100
AcDbEntity
8
F.SilkS
100
AcDbCircle
10
-2.54
20
62.230000000000004
30
0
40
1.5
0
CIRCLE
5
7F
330
C
100
AcDbEntity
8
F.SilkS
100
AcDbCircle
10
3.81
20
59.690000000000005
30
0
40
1.5
0
LWPOLYLINE
5
80
330
C
100
AcDbEntity
8
F.SilkS
62
1
100
AcDbPolyline
90
4
70
1
43
0
38
0
39
0
10
8.36
20
60.940000000000005
10
5.8100000000000005
20
60.940000000000005
10
5.8100000000000005
20
58.440000000000005
10
8.36
20
58.440000000000005
0
LWPOLYLINE
5
81
330
C
100
AcDbEntity
8
F.SilkS
62
1
100
AcDbPolyline
90
4
70
1
43
0
38
0
39
0
10
-4.567
20
63.480000000000004
10
-7.116999999999999
20
63.480000000000004
10
-7.116999999999999
20
60.980000000000004
10
-4.567
20
60.980000000000004
0
TEXT
5
82
330
C
100
AcDbEntity
8
F.SilkS
100
AcDbText
10
-19.05
20
1.905
30
0
40
1.27
1
S5
7
STANDARD
100
AcDbText
0
TEXT
5
83
330
C
100
AcDbEntity
8
F.SilkS
100
AcDbText
10
-19.05
20
1.905
30
0
40
1.27
1

7
STANDARD
100
AcDbText
0
LINE
5
84
330
C
100
AcDbEntity
8
F.SilkS
100
AcDbLine
10
-12.05
20
7.905
30
0
11
-12.05
21
8.905
31
0
0
LINE
5
85
330
C
100
AcDbEntity
8
F.SilkS
100
AcDbLine
10
-12.05
20
-5.095
30
0
11
-13.05
21
-5.095
31
0
0
LINE
5
86
330
C
100
AcDbEntity
8
F.SilkS
100
AcDbLine
10
-13.05
20
8.905
30
0
11
-12.05
21
8.905
31
0
0
LINE
5
87
330
C
100
AcDbEntity
8
F.SilkS
100
AcDbLine
10
-12.05
20
-5.095
30
0
11
-12.05
21
-4.095
31
0
0
LINE
5
88
330
C
100
AcDbEntity
8
F.SilkS
100
AcDbLine
10
-26.05
20
-4.095
30
0
11
-26.05
21
-5.095
31
0
0
LINE
5
89
330
C
100
AcDbEntity
8
F.SilkS
100
AcDbLine
10
-26.05
20
8.905
30
0
11
-25.05
21
8.905
31
0
0
LINE
5
8A
330
C
100
AcDbEntity
8
F.SilkS
100
AcDbLine
10
-25.05
20
-5.095
30
0
11
-26.05
21
-5.095
31
0
0
LINE
5
8B
330
C
100
AcDbEntity
8
F.SilkS
100
AcDbLine
10
-26.05
20
8.905
30
0
11
-26.05
21
7.905
31
0
0
CIRCLE
5
8C
330
C
100
AcDbEntity
8
F.SilkS
100
AcDbCircle
10
-19.05
20
1.905
30
0
40
1.9939
0
CIRCLE
5
8D
330
C
100
AcDbEntity
8
F.SilkS
100
AcDbCircle
10
-24.130000000000003
20
1.905
30
0
40
0.8509
0
CIRCLE
5
8E
330
C
100
AcDbEntity
8
F.SilkS
100
AcDbCircle
10
-13.97
20
1.905
30
0
40
0.8509
0
LINE
5
8F
330
C
100
AcDbEntity
8
F.SilkS
100
AcDbLine
10
-9.55
20
11.405
30
0
11
-28.55
21
11.405
31
0
0
LINE
5
90
330
C
100
AcDbEntity
8
F.SilkS
100
AcDbLine
10
-28.55
20
11.405
30
0
11
-28.55
21
-7.595
31
0
0
LINE
5
91
330
C
100
AcDbEntity
8
F.SilkS
100
AcDbLine
10
-28.55
20
-7.595
30
0
11
-9.55
21
-7.595
31
0
0
LINE
5
92
330
C
100
AcDbEntity
8
F.SilkS
100
AcDbLine
10
-9.55
20
-7.595
30
0
11
-9.55
21
11.405
31
0
0
CIRCLE
5
93
330
C
100
AcDbEntity
8
F.SilkS
100
AcDbCircle
10
-21.59
20
6.985
30
0
40
1.5
0
CIRCLE
5
94
330
C
100
AcDbEntity
8
F.SilkS
100
AcDbCircle
10
-15.24
20
4.445
30
0
40
1.5
0
LWPOLYLINE
5
95
330
C
100
AcDbEntity
8
F.SilkS
62
1
100
AcDbPolyline
90
4
70
1
43
0
38
0
39
0
10
-10.690000000000001
20
5.695
10
-13.24
20
5.695
10
-13.24
20
3.1950000000000003
10
-10.690000000000001
20
3.1950000000000003
0
LWPOLYLINE
5
96
330
C
100
AcDbEntity
8
F.SilkS
62
1
100
AcDbPolyline
90
4
70
1
43
0
38
0
39
0
10
-23.617
20
8.235
10
-26.167
20
8.235
10
-26.167
20
5.735
10
-23.617
20
5.735
0
TEXT
5
97
330
C
100
AcDbEntity
8
F.SilkS
100
AcDbText
10
-19.05
20
20.955000000000002
30
0
40
1.27
1
S6
7
STANDARD
100
AcDbText
0
TEXT
5
98
330
C
100
AcDbEntity
8
F.SilkS
100
AcDbText
10
-19.05
20
20.955000000000002
30
0
40
1.27
1

7
STANDARD
100
AcDbText
0
LINE
5
99
330
C
100
AcDbEntity
8
F.SilkS
100
AcDbLine
10
-12.05
20
26.955000000000002
30
0
11
-12.05
21
27.955000000000002
31
0
0
LINE
5
9A
330
C
100
AcDbEntity
8
F.SilkS
100
AcDbLine
10
-12.05
20
13.955000000000002
30
0
11
-13.05
21
13.955000000000002
31
0
0
LINE
5
9B
330
C
100
AcDbEntity
8
F.SilkS
100
AcDbLine
10
-13.05
20
27.955000000000002
30
0
11
-12.05
21
27.955000000000002
31
0
0
LINE
5
9C
330
C
100
AcDbEntity
8
F.SilkS
100
AcDbLine
10
-12.05
20
13.955000000000002
30
0
11
-12.05
21
14.955000000000002
31
0
0
LINE
5
9D
330
C
100
AcDbEntity
8
F.SilkS
100
AcDbLine
10
-26.05
20
14.955000000000002
30
0
11
-26.05
21
13.955000000000002
31
0
0
LINE
5
9E
330
C
100
AcDbEntity
8
F.SilkS
100
AcDbLine
10
-26.05
20
27.955000000000002
30
0
11
-25.05
21
27.955000000000002
31
0
0
LINE
5
9F
330
C
100
AcDbEntity
8
F.SilkS
100
AcDbLine
10
-25.05
20
13.955000000000002
30
0
11
-26.05
21
13.955000000000002
31
0
0
LINE
5
A0
330
C
100
AcDbEntity
8
F.SilkS
100
AcDbLine
10
-26.05
20
27.955000000000002
30
0
11
-26.05
21
26.955000000000002
31
0
0
CIRCLE
5
A1
330
C
100
AcDbEntity
8
F.SilkS
100
AcDbCircle
10
-19.05
20
20.955000000000002
30
0
40
1.9939
0
CIRCLE
5
A2
330
C
100
AcDbEntity
8
F.SilkS
100
AcDbCircle
10
-24.130000000000003
20
20.955000000000002
30
0
40
0.8509
0
CIRCLE
5
A3
330
C
100
AcDbEntity
8
F.SilkS
100
AcDbCircle
10
-13.97
20
20.955000000000002
30
0
40
0.8509
0
LINE
5
A4
330
C
100
AcDbEntity
8
F.SilkS
100
AcDbLine
10
-9.55
20
30.455000000000002
30
0
11
-28.55
21
30.455000000000002
31
0
0
LINE
5
A5
330
C
100
AcDbEntity
8
F.SilkS
100
AcDbLine
10
-28.55
20
30.455000000000002
30
0
11
-28.55
21
11.455000000000002
31
0
0
LINE
5
A6
330
C
100
AcDbEntity
8
F.SilkS
100
AcDbLine
10
-28.55
20
11.455000000000002
30
0
11
-9.55
21
11.455000000000002
31
0
0
LINE
5
A7
330
C
100
AcDbEntity
8
F.SilkS
100
AcDbLine
10
-9.55
20
11.455000000000002
30
0
11
-9.55
21
30.455000000000002
31
0
0
CIRCLE
5
A8
330
C
100
AcDbEntity
8
F.SilkS
100
AcDbCircle
10
-21.59
20
26.035000000000004
30
0
40
1.5
0
CIRCLE
5
A9
330
C
100
AcDbEntity
8
F.SilkS
100
AcDbCircle
10
-15.24
20
23.495
30
0
40
1.5
0
LWPOLYLINE
5
AA
330
C
100
AcDbEntity
8
F.SilkS
62
1
100
AcDbPolyline
90
4
70
1
43
0
38
0
39
0
10
-10.690000000000001
20
24.745
10
-13.24
20
24.745
10
-13.24
20
22.245
10
-10.690000000000001
20
22.245
0
LWPOLYLINE
5
AB
330
C
100
AcDbEntity
8
F.SilkS
62
1
100
AcDbPolyline
90
4
70
1
43
0
38
0
39
0
10
-23.617
20
27.285000000000004
10
-26.167
20
27.285000000000004
10
-26.167
20
24.785000000000004
10
-23.617
20
24.785000000000004
0
TEXT
5
AC
330
C
100
AcDbEntity
8
F.SilkS
100
AcDbText
10
-19.05
20
40.005
30
0
40
1.27
1
S7
7
STANDARD
100
AcDbText
0
TEXT
5
AD
330
C
100
AcDbEntity
8
F.SilkS
100
AcDbText
10
-19.05
20
40.005
30
0
40
1.27
1

7
STANDARD
100
AcDbText
0
LINE
5
AE
330
C
100
AcDbEntity
8
F.SilkS
100
AcDbLine
10
-12.05
20
46.005
30
0
11
-12.05
21
47.005
31
0
0
LINE
5
AF
330
C
100
AcDbEntity
8
F.SilkS
100
AcDbLine
10
-12.05
20
33.005
30
0
11
-13.05
21
33.005
31
0
0
LINE
5
B0
330
C
100
AcDbEntity
8
F.SilkS
100
AcDbLine
10
-13.05
20
47.005
30
0
11
-12.05
21
47.005
31
0
0
LINE
5
B1
330
C
100
AcDbEntity
8
F.SilkS
100
AcDbLine
10
-12.05
20
33.005
30
0
11
-12.05
21
34.005
31
0
0
LINE
5
B2
330
C
100
AcDbEntity
8
F.SilkS
100
AcDbLine
10
-26.05
20
34.005
30
0
11
-26.05
21
33.005
31
0
0
LINE
5
B3
330
C
100
AcDbEntity
8
F.SilkS
100
AcDbLine
10
-26.05
20
47.005
30
0
11
-25.05
21
47.005
31
0
0
LINE
5
B4
330
C
100
AcDbEntity
8
F.SilkS
100
AcDbLine
10
-25.05
20
33.005
30
0
11
-26.05
21
33.005
31
0
0
LINE
5
B5
330
C
100
AcDbEntity
8
F.SilkS
100
AcDbLine
10
-26.05
20
47.005
30
0
11
-26.05
21
46.005
31
0
0
CIRCLE
5
B6
330
C
100
AcDbEntity
8
F.SilkS
100
AcDbCircle
10
-19.05
20
40.005
30
0
40
1.9939
0
CIRCLE
5
B7
330
C
100
AcDbEntity
8
F.SilkS
100
AcDbCircle
10
-24.130000000000003
20
40.005
30
0
40
0.8509
0
CIRCLE
5
B8
330
C
100
AcDbEntity
8
F.SilkS
100
AcDbCircle
10
-13.97
20
40.005
30
0
40
0.8509
0
LINE
5
B9
330
C
100
AcDbEntity
8
F.SilkS
100
AcDbLine
10
-9.55
20
49.505
30
0
11
-28.55
21
49.505
31
0
0
LINE
5
BA
330
C
100
AcDbEntity
8
F.SilkS
100
AcDbLine
10
-28.55
20
49.505
30
0
11
-28.55
21
30.505000000000003
31
0
0
LINE
5
BB
330
C
100
AcDbEntity
8
F.SilkS
100
AcDbLine
10
-28.55
20
30.505000000000003
30
0
11
-9.55
21
30.505000000000003
31
0
0
LINE
5
BC
330
C
100
AcDbEntity
8
F.SilkS
100
AcDbLine
10
-9.55
20
30.505000000000003
30
0
11
-9.55
21
49.505
31
0
0
CIRCLE
5
BD
330
C
100
AcDbEntity
8
F.SilkS
100
AcDbCircle
10
-21.59
20
45.085
30
0
40
1.5
0
CIRCLE
5
BE
330
C
100
AcDbEntity
8
F.SilkS
100
AcDbCircle
10
-15.24
20
42.545
30
0
40
1.5
0
LWPOLYLINE
5
BF
330
C
100
AcDbEntity
8
F.SilkS
62
1
100
AcDbPolyline
90
4
70
1
43
0
38
0
39
0
10
-10.690000000000001
20
43.795
10
-13.24
20
43.795
10
-13.24
20
41.295
10
-10.690000000000001
20
41.295
0
LWPOLYLINE
5
C0
330
C
100
AcDbEntity
8
F.SilkS
62
1
100
AcDbPolyline
90
4
70
1
43
0
38
0
39
0
10
-23.617
20
46.335
10
-26.167
20
46.335
10
-26.167
20
43.835
10
-23.617
20
43.835
0
TEXT
5
C1
330
C
100
AcDbEntity
8
F.SilkS
100
AcDbText
10
-19.05
20
59.05500000000001
30
0
40
1.27
1
S8
7
STANDARD
100
AcDbText
0
TEXT
5
C2
330
C
100
AcDbEntity
8
F.SilkS
100
AcDbText
10
-19.05
20
59.05500000000001
30
0
40
1.27
1

7
STANDARD
100
AcDbText
0
LINE
5
C3
330
C
100
AcDbEntity
8
F.SilkS
100
AcDbLine
10
-12.05
20
65.055
30
0
11
-12.05
21
66.055
31
0
0
LINE
5
C4
330
C
100
AcDbEntity
8
F.SilkS
100
AcDbLine
10
-12.05
20
52.05500000000001
30
0
11
-13.05
21
52.05500000000001
31
0
0
LINE
5
C5
330
C
100
AcDbEntity
8
F.SilkS
100
AcDbLine
10
-13.05
20
66.055
30
0
11
-12.05
21
66.055
31
0
0
LINE
5
C6
330
C
100
AcDbEntity
8
F.SilkS
100
AcDbLine
10
-12.05
20
52.05500000000001
30
0
11
-12.05
21
53.05500000000001
31
0
0
LINE
5
C7
330
C
100
AcDbEntity
8
F.SilkS
100
AcDbLine
10
-26.05
20
53.05500000000001
30
0
11
-26.05
21
52.05500000000001
31
0
0
LINE
5
C8
330
C
100
AcDbEntity
8
F.SilkS
100
AcDbLine
10
-26.05
20
66.055
30
0
11
-25.05
21
66.055
31
0
0
LINE
5
C9
330
C
100
AcDbEntity
8
F.SilkS
100
AcDbLine
10
-25.05
20
52.05500000000001
30
0
11
-26.05
21
52.05500000000001
31
0
0
LINE
5
CA
330
C
100
AcDbEntity
8
F.SilkS
100
AcDbLine
10
-26.05
20
66.055
30
0
11
-26.05
21
65.055
31
0
0
CIRCLE
5
CB
330
C
100
AcDbEntity
8
F.SilkS
100
AcDbCircle
10
-19.05
20
59.05500000000001
30
0
40
1.9939
0
CIRCLE
5
CC
330
C
100
AcDbEntity
8
F.SilkS
100
AcDbCircle
10
-24.130000000000003
20
59.05500000000001
30
0
40
0.8509
0
CIRCLE
5
CD
330
C
100
AcDbEntity
8
F.SilkS
100
AcDbCircle
10
-13.97
20
59.05500000000001
30
0
40
0.8509
0
LINE
5
CE
330
C
100
AcDbEntity
8
F.SilkS
100
AcDbLine
10
-9.55
20
68.555
30
0
11
-28.55
21
68.555
31
0
0
LINE
5
CF
330
C
100
AcDbEntity
8
F.SilkS
100
AcDbLine
10
-28.55
20
68.555
30
0
11
-28.55
21
49.55500000000001
31
0
0
LINE
5
D0
330
C
100
AcDbEntity
8
F.SilkS
100
AcDbLine
10
-28.55
20
49.55500000000001
30
0
11
-9.55
21
49.55500000000001
31
0
0
LINE
5
D1
330
C
100
AcDbEntity
8
F.SilkS
100
AcDbLine
10
-9.55
20
49.55500000000001
30
0
11
-9.55
21
68.555
31
0
0
CIRCLE
5
D2
330
C
100
AcDbEntity
8
F.SilkS
100
AcDbCircle
10
-21.59
20
64.135
30
0
40
1.5
0
CIRCLE
5
D3
330
C
100
AcDbEntity
8
F.SilkS
100
AcDbCircle
10
-15.24
20
61.595000000000006
30
0
40
1.5
0
LWPOLYLINE
5
D4
330
C
100
AcDbEntity
8
F.SilkS
62
1
100
AcDbPolyline
90
4
70
1
43
0
38
0
39
0
10
-10.690000000000001
20
62.845000000000006
10
-13.24
20
62.845000000000006
10
-13.24
20
60.345000000000006
10
-10.690000000000001
20
60.345000000000006
0
LWPOLYLINE
5
D5
330
C
100
AcDbEntity
8
F.SilkS
62
1
100
AcDbPolyline
90
4
70
1
43
0
38
0
39
0
10
-23.617
20
65.385
10
-26.167
20
65.385
10
-26.167
20
62.885000000000005
10
-23.617
20
62.885000000000005
0
TEXT
5
D6
330
C
100
AcDbEntity
8
F.SilkS
100
AcDbText
10
-38.1
20
8.763
30
0
40
1.27
1
S9
7
STANDARD
100
AcDbText
0
TEXT
5
D7
330
C
100
AcDbEntity
8
F.SilkS
100
AcDbText
10
-38.1
20
8.763
30
0
40
1.27
1

7
STANDARD
100
AcDbText
0
LINE
5
D8
330
C
100
AcDbEntity
8
F.SilkS
100
AcDbLine
10
-31.1
20
14.763
30
0
11
-31.1
21
15.763
31
0
0
LINE
5
D9
330
C
100
AcDbEntity
8
F.SilkS
100
AcDbLine
10
-31.1
20
1.763
30
0
11
-32.1
21
1.763
31
0
0
LINE
5
DA
330
C
100
AcDbEntity
8
F.SilkS
100
AcDbLine
10
-32.1
20
15.763
30
0
11
-31.1
21
15.763
31
0
0
LINE
5
DB
330
C
100
AcDbEntity
8
F.SilkS
100
AcDbLine
10
-31.1
20
1.763
30
0
11
-31.1
21
2.763
31
0
0
LINE
5
DC
330
C
100
AcDbEntity
8
F.SilkS
100
AcDbLine
10
-45.1
20
2.763
30
0
11
-45.1
21
1.763
31
0
0
LINE
5
DD
330
C
100
AcDbEntity
8
F.SilkS
100
AcDbLine
10
-45.1
20
15.763
30
0
11
-44.1
21
15.763
31
0
0
LINE
5
DE
330
C
100
AcDbEntity
8
F.SilkS
100
AcDbLine
10
-44.1
20
1.763
30
0
11
-45.1
21
1.763
31
0
0
LINE
5
DF
330
C
100
AcDbEntity
8
F.SilkS
100
AcDbLine
10
-45.1
20
15.763
30
0
11
-45.1
21
14.763
31
0
0
CIRCLE
5
E0
330
C
100
AcDbEntity
8
F.SilkS
100
AcDbCircle
10
-38.1
20
8.763
30
0
40
1.9939
0
CIRCLE
5
E1
330
C
100
AcDbEntity
8
F.SilkS
100
AcDbCircle
10
-43.18
20
8.763
30
0
40
0.8509
0
CIRCLE
5
E2
330
C
100
AcDbEntity
8
F.SilkS
100
AcDbCircle
10
-33.02
20
8.763
30
0
40
0.8509
0
LINE
5
E3
330
C
100
AcDbEntity
8
F.SilkS
100
AcDbLine
10
-28.6
20
18.262999999999998
30
0
11
-47.6
21
18.262999999999998
31
0
0
LINE
5
E4
330
C
100
AcDbEntity
8
F.SilkS
100
AcDbLine
10
-47.6
20
18.262999999999998
30
0
11
-47.6
21
-0.7370000000000001
31
0
0
LINE
5
E5
330
C
100
AcDbEntity
8
F.SilkS
100
AcDbLine
10
-47.6
20
-0.7370000000000001
30
0
11
-28.6
21
-0.7370000000000001
31
0
0
LINE
5
E6
330
C
100
AcDbEntity
8
F.SilkS
100
AcDbLine
10
-28.6
20
-0.7370000000000001
30
0
11
-28.6
21
18.262999999999998
31
0
0
CIRCLE
5
E7
330
C
100
AcDbEntity
8
F.SilkS
100
AcDbCircle
10
-40.64
20
13.843
30
0
40
1.5
0
CIRCLE
5
E8
330
C
100
AcDbEntity
8
F.SilkS
100
AcDbCircle
10
-34.29
20
11.303
30
0
40
1.5
0
LWPOLYLINE
5
E9
330
C
100
AcDbEntity
8
F.SilkS
62
1
100
AcDbPolyline
90
4
70
1
43
0
38
0
39
0
10
-29.740000000000002
20
12.553
10
-32.29
20
12.553
10
-32.29
20
10.053
10
-29.740000000000002
20
10.053
0
LWPOLYLINE
5
EA
330
C
100
AcDbEntity
8
F.SilkS
62
1
100
AcDbPolyline
90
4
70
1
43
0
38
0
39
0
10
-42.667
20
15.093
10
-45.217
20
15.093
10
-45.217
20
12.593
10
-42.667
20
12.593
0
TEXT
5
EB
330
C
100
AcDbEntity
8
F.SilkS
100
AcDbText
10
-38.1
20
27.813000000000002
30
0
40
1.27
1
S10
7
STANDARD
100
AcDbText
0
TEXT
5
EC
330
C
100
AcDbEntity
8
F.SilkS
100
AcDbText
10
-38.1
20
27.813000000000002
30
0
40
1.27
1

7
STANDARD
100
AcDbText
0
LINE
5
ED
330
C
100
AcDbEntity
8
F.SilkS
100
AcDbLine
10
-31.1
20
33.813
30
0
11
-31.1
21
34.813
31
0
0
LINE
5
EE
330
C
100
AcDbEntity
8
F.SilkS
100
AcDbLine
10
-31.1
20
20.813000000000002
30
0
11
-32.1
21
20.813000000000002
31
0
0
LINE
5
EF
330
C
100
AcDbEntity
8
F.SilkS
100
AcDbLine
10
-32.1
20
34.813
30
0
11
-31.1
21
34.813
31
0
0
LINE
5
F0
330
C
100
AcDbEntity
8
F.SilkS
100
AcDbLine
10
-31.1
20
20.813000000000002
30
0
11
-31.1
21
21.813000000000002
31
0
0
LINE
5
F1
330
C
100
AcDbEntity
8
F.SilkS
100
AcDbLine
10
-45.1
20
21.813000000000002
30
0
11
-45.1
21
20.813000000000002
31
0
0
LINE
5
F2
330
C
100
AcDbEntity
8
F.SilkS
100
AcDbLine
10
-45.1
20
34.813
30
0
11
-44.1
21
34.813
31
0
0
LINE
5
F3
330
C
100
AcDbEntity
8
F.SilkS
100
AcDbLine
10
-44.1
20
20.813000000000002
30
0
11
-45.1
21
20.813000000000002
31
0
0
LINE
5
F4
330
C
100
AcDbEntity
8
F.SilkS
100
AcDbLine
10
-45.1
20
34.813
30
0
11
-45.1
21
33.813
31
0
0
CIRCLE
5
F5
330
C
100
AcDbEntity
8
F.SilkS
100
AcDbCircle
10
-38.1
20
27.813000000000002
30
0
40
1.9939
0
CIRCLE
5
F6
330
C
100
AcDbEntity
8
F.SilkS
100
AcDbCircle
10
-43.18
20
27.813000000000002
30
0
40
0.8509
0
CIRCLE
5
F7
330
C
100
AcDbEntity
8
F.SilkS
100
AcDbCircle
10
-33.02
20
27.813000000000002
30
0
40
0.8509
0
LINE
5
F8
330
C
100
AcDbEntity
8
F.SilkS
100
AcDbLine
10
-28.6
20
37.313
30
0
11
-47.6
21
37.313
31
0
0
LINE
5
F9
330
C
100
AcDbEntity
8
F.SilkS
100
AcDbLine
10
-47.6
20
37.313
30
0
11
-47.6
21
18.313000000000002
31
0
0
LINE
5
FA
330
C
100
AcDbEntity
8
F.SilkS
100
AcDbLine
10
-47.6
20
18.313000000000002
30
0
11
-28.6
21
18.313000000000002
31
0
0
LINE
5
FB
330
C
100
AcDbEntity
8
F.SilkS
100
AcDbLine
10
-28.6
20
18.313000000000002
30
0
11
-28.6
21
37.313
31
0
0
CIRCLE
5
FC
330
C
100
AcDbEntity
8
F.SilkS
100
AcDbCircle
10
-40.64
20
32.893
30
0
40
1.5
0
CIRCLE
5
FD
330
C
100
AcDbEntity
8
F.SilkS
100
AcDbCircle
10
-34.29
20
30.353
30
0
40
1.5
0
LWPOLYLINE
5
FE
330
C
100
AcDbEntity
8
F.SilkS
62
1
100
AcDbPolyline
90
4
70
1
43
0
38
0
39
0
10
-29.740000000000002
20
31.603
10
-32.29
20
31.603
10
-32.29
20
29.103
10
-29.740000000000002
20
29.103
0
LWPOLYLINE
5
FF
330
C
100
AcDbEntity
8
F.SilkS
62
1
100
AcDbPolyline
90
4
70
1
43
0
38
0
39
0
10
-42.667
20
34.143
10
-45.217
20
34.143
10
-45.217
20
31.643
10
-42.667
20
31.643
0
TEXT
5
100
330
C
100
AcDbEntity
8
F.SilkS
100
AcDbText
10
-38.1
20
46.863
30
0
40
1.27
1
S11
7
STANDARD
100
AcDbText
0
TEXT
5
101
330
C
100
AcDbEntity
8
F.SilkS
100
AcDbText
10
-38.1
20
46.863
30
0
40
1.27
1

7
STANDARD
100
AcDbText
0
LINE
5
102
330
C
100
AcDbEntity
8
F.SilkS
100
AcDbLine
10
-31.1
20
52.863
30
0
11
-31.1
21
53.863
31
0
0
LINE
5
103
330
C
100
AcDbEntity
8
F.SilkS
100
AcDbLine
10
-31.1
20
39.863
30
0
11
-32.1
21
39.863
31
0
0
LINE
5
104
330
C
100
AcDbEntity
8
F.SilkS
100
AcDbLine
10
-32.1
20
53.863
30
0
11
-31.1
21
53.863
31
0
0
LINE
5
105
330
C
100
AcDbEntity
8
F.SilkS
100
AcDbLine
10
-31.1
20
39.863
30
0
11
-31.1
21
40.863
31
0
0
LINE
5
106
330
C
100
AcDbEntity
8
F.SilkS
100
AcDbLine
10
-45.1
20
40.863
30
0
11
-45.1
21
39.863
31
0
0
LINE
5
107
330
C
100
AcDbEntity
8
F.SilkS
100
AcDbLine
10
-45.1
20
53.863
30
0
11
-44.1
21
53.863
31
0
0
LINE
5
108
330
C
100
AcDbEntity
8
F.SilkS
100
AcDbLine
10
-44.1
20
39.863
30
0
11
-45.1
21
39.863
31
0
0
LINE
5
109
330
C
100
AcDbEntity
8
F.SilkS
100
AcDbLine
10
-45.1
20
53.863
30
0
11
-45.1
21
52.863
31
0
0
CIRCLE
5
10A
330
C
100
AcDbEntity
8
F.SilkS
100
AcDbCircle
10
-38.1
20
46.863
30
0
40
1.9939
0
CIRCLE
5
10B
330
C
100
AcDbEntity
8
F.SilkS
100
AcDbCircle
10
-43.18
20
46.863
30
0
40
0.8509
0
CIRCLE
5
10C
330
C
100
AcDbEntity
8
F.SilkS
100
AcDbCircle
10
-33.02
20
46.863
30
0
40
0.8509
0
LINE
5
10D
330
C
100
AcDbEntity
8
F.SilkS
100
AcDbLine
10
-28.6
20
56.363
30
0
11
-47.6
21
56.363
31
0
0
LINE
5
10E
330
C
100
AcDbEntity
8
F.SilkS
100
AcDbLine
10
-47.6
20
56.363
30
0
11
-47.6
21
37.363
31
0
0
LINE
5
10F
330
C
100
AcDbEntity
8
F.SilkS
100
AcDbLine
10
-47.6
20
37.363
30
0
11
-28.6
21
37.363
31
0
0
LINE
5
110
330
C
100
AcDbEntity
8
F.SilkS
100
AcDbLine
10
-28.6
20
37.363
30
0
11
-28.6
21
56.363
31
0
0
CIRCLE
5
111
330
C
100
AcDbEntity
8
F.SilkS
100
AcDbCircle
10
-40.64
20
51.943
30
0
40
1.5
0
CIRCLE
5
112
330
C
100
AcDbEntity
8
F.SilkS
100
AcDbCircle
10
-34.29
20
49.403
30
0
40
1.5
0
LWPOLYLINE
5
113
330
C
100
AcDbEntity
8
F.SilkS
62
1
100
AcDbPolyline
90
4
70
1
43
0
38
0
39
0
10
-29.740000000000002
20
50.653
10
-32.29
20
50.653
10
-32.29
20
48.153
10
-29.740000000000002
20
48.153
0
LWPOLYLINE
5
114
330
C
100
AcDbEntity
8
F.SilkS
62
1
100
AcDbPolyline
90
4
70
1
43
0
38
0
39
0
10
-42.667
20
53.193
10
-45.217
20
53.193
10
-45.217
20
50.693
10
-42.667
20
50.693
0
TEXT
5
115
330
C
100
AcDbEntity
8
F.SilkS
100
AcDbText
10
-38.1
20
65.913
30
0
40
1.27
1
S12
7
STANDARD
100
AcDbText
0
TEXT
5
116
330
C
100
AcDbEntity
8
F.SilkS
100
AcDbText
10
-38.1
20
65.913
30
0
40
1.27
1

7
STANDARD
100
AcDbText
0
LINE
5
117
330
C
100
AcDbEntity
8
F.SilkS
100
AcDbLine
10
-31.1
20
71.913
30
0
11
-31.1
21
72.913
31
0
0
LINE
5
118
330
C
100
AcDbEntity
8
F.SilkS
100
AcDbLine
10
-31.1
20
58.913
30
0
11
-32.1
21
58.913
31
0
0
LINE
5
119
330
C
100
AcDbEntity
8
F.SilkS
100
AcDbLine
10
-32.1
20
72.913
30
0
11
-31.1
21
72.913
31
0
0
LINE
5
11A
330
C
100
AcDbEntity
8
F.SilkS
100
AcDbLine
10
-31.1
20
58.913
30
0
11
-31.1
21
59.913
31
0
0
LINE
5
11B
330
C
100
AcDbEntity
8
F.SilkS
100
AcDbLine
10
-45.1
20
59.913
30
0
11
-45.1
21
58.913
31
0
0
LINE
5
11C
330
C
100
AcDbEntity
8
F.SilkS
100
AcDbLine
10
-45.1
20
72.913
30
0
11
-44.1
21
72.913
31
0
0
LINE
5
11D
330
C
100
AcDbEntity
8
F.SilkS
100
AcDbLine
10
-44.1
20
58.913
30
0
11
-45.1
21
58.913
31
0
0
LINE
5
11E
330
C
100
AcDbEntity
8
F.SilkS
100
AcDbLine
10
-45.1
20
72.913
30
0
11
-45.1
21
71.913
31
0
0
CIRCLE
5
11F
330
C
100
AcDbEntity
8
F.SilkS
100
AcDbCircle
10
-38.1
20
65.913
30
0
40
1.9939
0
CIRCLE
5
120
330
C
100
AcDbEntity
8
F.SilkS
100
AcDbCircle
10
-43.18
20
65.913
30
0
40
0.8509
0
CIRCLE
5
121
330
C
100
AcDbEntity
8
F.SilkS
100
AcDbCircle
10
-33.02
20
65.913
30
0
40
0.8509
0
LINE
5
122
330
C
100
AcDbEntity
8
F.SilkS
100
AcDbLine
10
-28.6
20
75.413
30
0
11
-47.6
21
75.413
31
0
0
LINE
5
123
330
C
100
AcDbEntity
8
F.SilkS
100
AcDbLine
10
-47.6
20
75.413
30
0
11
-47.6
21
56.413
31
0
0
LINE
5
124
330
C
100
AcDbEntity
8
F.SilkS
100
AcDbLine
10
-47.6
20
56.413
30
0
11
-28.6
21
56.413
31
0
0
LINE
5
125
330
C
100
AcDbEntity
8
F.SilkS
100
AcDbLine
10
-28.6
20
56.413
30
0
11
-28.6
21
75.413
31
0
0
CIRCLE
5
126
330
C
100
AcDbEntity
8
F.SilkS
100
AcDbCircle
10
-40.64
20
70.993
30
0
40
1.5
0
CIRCLE
5
127
330
C
100
AcDbEntity
8
F.SilkS
100
AcDbCircle
10
-34.29
20
68.453
30
0
40
1.5
0
LWPOLYLINE
5
128
330
C
100
AcDbEntity
8
F.SilkS
62
1
100
AcDbPolyline
90
4
70
1
43
0
38
0
39
0
10
-29.740000000000002
20
69.703
10
-32.29
20
69.703
10
-32.29
20
67.203
10
-29.740000000000002
20
67.203
0
LWPOLYLINE
5
129
330
C
100
AcDbEntity
8
F.SilkS
62
1
100
AcDbPolyline
90
4
70
1
43
0
38
0
39
0
10
-42.667
20
72.243
10
-45.217
20
72.243
10
-45.217
20
69.743
10
-42.667
20
69.743
0
TEXT
5
12A
330
C
100
AcDbEntity
8
F.SilkS
100
AcDbText
10
-57.15
20
13.5255
30
0
40
1.27
1
S13
7
STANDARD
100
AcDbText
0
TEXT
5
12B
330
C
100
AcDbEntity
8
F.SilkS
100
AcDbText
10
-57.15
20
13.5255
30
0
40
1.27
1

7
STANDARD
100
AcDbText
0
LINE
5
12C
330
C
100
AcDbEntity
8
F.SilkS
100
AcDbLine
10
-50.15
20
19.5255
30
0
11
-50.15
21
20.5255
31
0
0
LINE
5
12D
330
C
100
AcDbEntity
8
F.SilkS
100
AcDbLine
10
-50.15
20
6.525499999999999
30
0
11
-51.15
21
6.525499999999999
31
0
0
LINE
5
12E
330
C
100
AcDbEntity
8
F.SilkS
100
AcDbLine
10
-51.15
20
20.5255
30
0
11
-50.15
21
20.5255
31
0
0
LINE
5
12F
330
C
100
AcDbEntity
8
F.SilkS
100
AcDbLine
10
-50.15
20
6.525499999999999
30
0
11
-50.15
21
7.525499999999999
31
0
0
LINE
5
130
330
C
100
AcDbEntity
8
F.SilkS
100
AcDbLine
10
-64.15
20
7.525499999999999
30
0
11
-64.15
21
6.525499999999999
31
0
0
LINE
5
131
330
C
100
AcDbEntity
8
F.SilkS
100
AcDbLine
10
-64.15
20
20.5255
30
0
11
-63.15
21
20.5255
31
0
0
LINE
5
132
330
C
100
AcDbEntity
8
F.SilkS
100
AcDbLine
10
-63.15
20
6.525499999999999
30
0
11
-64.15
21
6.525499999999999
31
0
0
LINE
5
133
330
C
100
AcDbEntity
8
F.SilkS
100
AcDbLine
10
-64.15
20
20.5255
30
0
11
-64.15
21
19.5255
31
0
0
CIRCLE
5
134
330
C
100
AcDbEntity
8
F.SilkS
100
AcDbCircle
10
-57.15
20
13.5255
30
0
40
1.9939
0
CIRCLE
5
135
330
C
100
AcDbEntity
8
F.SilkS
100
AcDbCircle
10
-62.23
20
13.5255
30
0
40
0.8509
0
CIRCLE
5
136
330
C
100
AcDbEntity
8
F.SilkS
100
AcDbCircle
10
-52.07
20
13.5255
30
0
40
0.8509
0
LINE
5
137
330
C
100
AcDbEntity
8
F.SilkS
100
AcDbLine
10
-47.65
20
23.0255
30
0
11
-66.65
21
23.0255
31
0
0
LINE
5
138
330
C
100
AcDbEntity
8
F.SilkS
100
AcDbLine
10
-66.65
20
23.0255
30
0
11
-66.65
21
4.025499999999999
31
0
0
LINE
5
139
330
C
100
AcDbEntity
8
F.SilkS
100
AcDbLine
10
-66.65
20
4.025499999999999
30
0
11
-47.65
21
4.025499999999999
31
0
0
LINE
5
13A
330
C
100
AcDbEntity
8
F.SilkS
100
AcDbLine
10
-47.65
20
4.025499999999999
30
0
11
-47.65
21
23.0255
31
0
0
CIRCLE
5
13B
330
C
100
AcDbEntity
8
F.SilkS
100
AcDbCircle
10
-59.69
20
18.6055
30
0
40
1.5
0
CIRCLE
5
13C
330
C
100
AcDbEntity
8
F.SilkS
100
AcDbCircle
10
-53.339999999999996
20
16.0655
30
0
40
1.5
0
LWPOLYLINE
5
13D
330
C
100
AcDbEntity
8
F.SilkS
62
1
100
AcDbPolyline
90
4
70
1
43
0
38
0
39
0
10
-48.79
20
17.3155
10
-51.339999999999996
20
17.3155
10
-51.339999999999996
20
14.8155
10
-48.79
20
14.8155
0
LWPOLYLINE
5
13E
330
C
100
AcDbEntity
8
F.SilkS
62
1
100
AcDbPolyline
90
4
70
1
43
0
38
0
39
0
10
-61.717
20
19.8555
10
-64.267
20
19.8555
10
-64.267
20
17.3555
10
-61.717
20
17.3555
0
TEXT
5
13F
330
C
100
AcDbEntity
8
F.SilkS
100
AcDbText
10
-57.15
20
32.5755
30
0
40
1.27
1
S14
7
STANDARD
100
AcDbText
0
TEXT
5
140
330
C
100
AcDbEntity
8
F.SilkS
100
AcDbText
10
-57.15
20
32.5755
30
0
40
1.27
1

7
STANDARD
100
AcDbText
0
LINE
5
141
330
C
100
AcDbEntity
8
F.SilkS
100
AcDbLine
10
-50.15
20
38.5755
30
0
11
-50.15
21
39.5755
31
0
0
LINE
5
142
330
C
100
AcDbEntity
8
F.SilkS
100
AcDbLine
10
-50.15
20
25.575499999999998
30
0
11
-51.15
21
25.575499999999998
31
0
0
LINE
5
143
330
C
100
AcDbEntity
8
F.SilkS
100
AcDbLine
10
-51.15
20
39.5755
30
0
11
-50.15
21
39.5755
31
0
0
LINE
5
144
330
C
100
AcDbEntity
8
F.SilkS
100
AcDbLine
10
-50.15
20
25.575499999999998
30
0
11
-50.15
21
26.575499999999998
31
0
0
LINE
5
145
330
C
100
AcDbEntity
8
F.SilkS
100
AcDbLine
10
-64.15
20
26.575499999999998
30
0
11
-64.15
21
25.575499999999998
31
0
0
LINE
5
146
330
C
100
AcDbEntity
8
F.SilkS
100
AcDbLine
10
-64.15
20
39.5755
30
0
11
-63.15
21
39.5755
31
0
0
LINE
5
147
330
C
100
AcDbEntity
8
F.SilkS
100
AcDbLine
10
-63.15
20
25.575499999999998
30
0
11
-64.15
21
25.575499999999998
31
0
0
LINE
5
148
330
C
100
AcDbEntity
8
F.SilkS
100
AcDbLine
10
-64.15
20
39.5755
30
0
11
-64.15
21
38.5755
31
0
0
CIRCLE
5
149
330
C
100
AcDbEntity
8
F.SilkS
100
AcDbCircle
10
-57.15
20
32.5755
30
0
40
1.9939
0
CIRCLE
5
14A
330
C
100
AcDbEntity
8
F.SilkS
100
AcDbCircle
10
-62.23
20
32.5755
30
0
40
0.8509
0
CIRCLE
5
14B
330
C
100
AcDbEntity
8
F.SilkS
100
AcDbCircle
10
-52.07
20
32.5755
30
0
40
0.8509
0
LINE
5
14C
330
C
100
AcDbEntity
8
F.SilkS
100
AcDbLine
10
-47.65
20
42.0755
30
0
11
-66.65
21
42.0755
31
0
0
LINE
5
14D
330
C
100
AcDbEntity
8
F.SilkS
100
AcDbLine
10
-66.65
20
42.0755
30
0
11
-66.65
21
23.075499999999998
31
0
0
LINE
5
14E
330
C
100
AcDbEntity
8
F.SilkS
100
AcDbLine
10
-66.65
20
23.075499999999998
30
0
11
-47.65
21
23.075499999999998
31
0
0
LINE
5
14F
330
C
100
AcDbEntity
8
F.SilkS
100
AcDbLine
10
-47.65
20
23.075499999999998
30
0
11
-47.65
21
42.0755
31
0
0
CIRCLE
5
150
330
C
100
AcDbEntity
8
F.SilkS
100
AcDbCircle
10
-59.69
20
37.655499999999996
30
0
40
1.5
0
CIRCLE
5
151
330
C
100
AcDbEntity
8
F.SilkS
100
AcDbCircle
10
-53.339999999999996
20
35.1155
30
0
40
1.5
0
LWPOLYLINE
5
152
330
C
100
AcDbEntity
8
F.SilkS
62
1
100
AcDbPolyline
90
4
70
1
43
0
38
0
39
0
10
-48.79
20
36.3655
10
-51.339999999999996
20
36.3655
10
-51.339999999999996
20
33.8655
10
-48.79
20
33.8655
0
LWPOLYLINE
5
153
330
C
100
AcDbEntity
8
F.SilkS
62
1
100
AcDbPolyline
90
4
70
1
43
0
38
0
39
0
10
-61.717
20
38.905499999999996
10
-64.267
20
38.905499999999996
10
-64.267
20
36.405499999999996
10
-61.717
20
36.405499999999996
0
TEXT
5
154
330
C
100
AcDbEntity
8
F.SilkS
100
AcDbText
10
-57.15
20
51.6255
30
0
40
1.27
1
S15
7
STANDARD
100
AcDbText
0
TEXT
5
155
330
C
100
AcDbEntity
8
F.SilkS
100
AcDbText
10
-57.15
20
51.6255
30
0
40
1.27
1

7
STANDARD
100
AcDbText
0
LINE
5
156
330
C
100
AcDbEntity
8
F.SilkS
100
AcDbLine
10
-50.15
20
57.6255
30
0
11
-50.15
21
58.6255
31
0
0
LINE
5
157
330
C
100
AcDbEntity
8
F.SilkS
100
AcDbLine
10
-50.15
20
44.6255
30
0
11
-51.15
21
44.6255
31
0
0
LINE
5
158
330
C
100
AcDbEntity
8
F.SilkS
100
AcDbLine
10
-51.15
20
58.6255
30
0
11
-50.15
21
58.6255
31
0
0
LINE
5
159
330
C
100
AcDbEntity
8
F.SilkS
100
AcDbLine
10
-50.15
20
44.6255
30
0
11
-50.15
21
45.6255
31
0
0
LINE
5
15A
330
C
100
AcDbEntity
8
F.SilkS
100
AcDbLine
10
-64.15
20
45.6255
30
0
11
-64.15
21
44.6255
31
0
0
LINE
5
15B
330
C
100
AcDbEntity
8
F.SilkS
100
AcDbLine
10
-64.15
20
58.6255
30
0
11
-63.15
21
58.6255
31
0
0
LINE
5
15C
330
C
100
AcDbEntity
8
F.SilkS
100
AcDbLine
10
-63.15
20
44.6255
30
0
11
-64.15
21
44.6255
31
0
0
LINE
5
15D
330
C
100
AcDbEntity
8
F.SilkS
100
AcDbLine
10
-64.15
20
58.6255
30
0
11
-64.15
21
57.6255
31
0
0
CIRCLE
5
15E
330
C
100
AcDbEntity
8
F.SilkS
100
AcDbCircle
10
-57.15
20
51.6255
30
0
40
1.9939
0
CIRCLE
5
15F
330
C
100
AcDbEntity
8
F.SilkS
100
AcDbCircle
10
-62.23
20
51.6255
30
0
40
0.8509
0
CIRCLE
5
160
330
C
100
AcDbEntity
8
F.SilkS
100
AcDbCircle
10
-52.07
20
51.6255
30
0
40
0.8509
0
LINE
5
161
330
C
100
AcDbEntity
8
F.SilkS
100
AcDbLine
10
-47.65
20
61.1255
30
0
11
-66.65
21
61.1255
31
0
0
LINE
5
162
330
C
100
AcDbEntity
8
F.SilkS
100
AcDbLine
10
-66.65
20
61.1255
30
0
11
-66.65
21
42.1255
31
0
0
LINE
5
163
330
C
100
AcDbEntity
8
F.SilkS
100
AcDbLine
10
-66.65
20
42.1255
30
0
11
-47.65
21
42.1255
31
0
0
LINE
5
164
330
C
100
AcDbEntity
8
F.SilkS
100
AcDbLine
10
-47.65
20
42.1255
30
0
11
-47.65
21
61.1255
31
0
0
CIRCLE
5
165
330
C
100
AcDbEntity
8
F.SilkS
100
AcDbCircle
10
-59.69
20
56.7055
30
0
40
1.5
0
CIRCLE
5
166
330
C
100
AcDbEntity
8
F.SilkS
100
AcDbCircle
10
-53.339999999999996
20
54.1655
30
0
40
1.5
0
LWPOLYLINE
5
167
330
C
100
AcDbEntity
8
F.SilkS
62
1
100
AcDbPolyline
90
4
70
1
43
0
38
0
39
0
10
-48.79
20
55.4155
10
-51.339999999999996
20
55.4155
10
-51.339999999999996
20
52.9155
10
-48.79
20
52.9155
0
LWPOLYLINE
5
168
330
C
100
AcDbEntity
8
F.SilkS
62
1
100
AcDbPolyline
90
4
70
1
43
0
38
0
39
0
10
-61.717
20
57.9555
10
-64.267
20
57.9555
10
-64.267
20
55.4555
10
-61.717
20
55.4555
0
TEXT
5
169
330
C
100
AcDbEntity
8
F.SilkS
100
AcDbText
10
-57.15
20
70.6755
30
0
40
1.27
1
S16
7
STANDARD
100
AcDbText
0
TEXT
5
16A
330
C
100
AcDbEntity
8
F.SilkS
100
AcDbText
10
-57.15
20
70.6755
30
0
40
1.27
1

7
STANDARD
100
AcDbText
0
LINE
5
16B
330
C
100
AcDbEntity
8
F.SilkS
100
AcDbLine
10
-50.15
20
76.6755
30
0
11
-50.15
21
77.6755
31
0
0
LINE
5
16C
330
C
100
AcDbEntity
8
F.SilkS
100
AcDbLine
10
-50.15
20
63.6755
30
0
11
-51.15
21
63.6755
31
0
0
LINE
5
16D
330
C
100
AcDbEntity
8
F.SilkS
100
AcDbLine
10
-51.15
20
77.6755
30
0
11
-50.15
21
77.6755
31
0
0
LINE
5
16E
330
C
100
AcDbEntity
8
F.SilkS
100
AcDbLine
10
-50.15
20
63.6755
30
0
11
-50.15
21
64.6755
31
0
0
LINE
5
16F
330
C
100
AcDbEntity
8
F.SilkS
100
AcDbLine
10
-64.15
20
64.6755
30
0
11
-64.15
21
63.6755
31
0
0
LINE
5
170
330
C
100
AcDbEntity
8
F.SilkS
100
AcDbLine
10
-64.15
20
77.6755
30
0
11
-63.15
21
77.6755
31
0
0
LINE
5
171
330
C
100
AcDbEntity
8
F.SilkS
100
AcDbLine
10
-63.15
20
63.6755
30
0
11
-64.15
21
63.6755
31
0
0
LINE
5
172
330
C
100
AcDbEntity
8
F.SilkS
100
AcDbLine
10
-64.15
20
77.6755
30
0
11
-64.15
21
76.6755
31
0
0
CIRCLE
5
173
330
C
100
AcDbEntity
8
F.SilkS
100
AcDbCircle
10
-57.15
20
70.6755
30
0
40
1.9939
0
CIRCLE
5
174
330
C
100
AcDbEntity
8
F.SilkS
100
AcDbCircle
10
-62.23
20
70.6755
30
0
40
0.8509
0
CIRCLE
5
175
330
C
100
AcDbEntity
8
F.SilkS
100
AcDbCircle
10
-52.07
20
70.6755
30
0
40
0.8509
0
LINE
5
176
330
C
100
AcDbEntity
8
F.SilkS
100
AcDbLine
10
-47.65
20
80.1755
30
0
11
-66.65
21
80.1755
31
0
0
LINE
5
177
330
C
100
AcDbEntity
8
F.SilkS
100
AcDbLine
10
-66.65
20
80.1755
30
0
11
-66.65
21
61.1755
31
0
0
LINE
5
178
330
C
100
AcDbEntity
8
F.SilkS
100
AcDbLine
10
-66.65
20
61.1755
30
0
11
-47.65
21
61.1755
31
0
0
LINE
5
179
330
C
100
AcDbEntity
8
F.SilkS
100
AcDbLine
10
-47.65
20
61.1755
30
0
11
-47.65
21
80.1755
31
0
0
CIRCLE
5
17A
330
C
100
AcDbEntity
8
F.SilkS
100
AcDbCircle
10
-59.69
20
75.7555
30
0
40
1.5
0
CIRCLE
5
17B
330
C
100
AcDbEntity
8
F.SilkS
100
AcDbCircle
10
-53.339999999999996
20
73.2155
30
0
40
1.5
0
LWPOLYLINE
5
17C
330
C
100
AcDbEntity
8
F.SilkS
62
1
100
AcDbPolyline
90
4
70
1
43
0
38
0
39
0
10
-48.79
20
74.4655
10
-51.339999999999996
20
74.4655
10
-51.339999999999996
20
71.9655
10
-48.79
20
71.9655
0
LWPOLYLINE
5
17D
330
C
100
AcDbEntity
8
F.SilkS
62
1
100
AcDbPolyline
90
4
70
1
43
0
38
0
39
0
10
-61.717
20
77.0055
10
-64.267
20
77.0055
10
-64.267
20
74.5055
10
-61.717
20
74.5055
0
TEXT
5
17E
330
C
100
AcDbEntity
8
F.SilkS
100
AcDbText
10
-76.2
20
8.763
30
0
40
1.27
1
S17
7
STANDARD
100
AcDbText
0
TEXT
5
17F
330
C
100
AcDbEntity
8
F.SilkS
100
AcDbText
10
-76.2
20
8.763
30
0
40
1.27
1

7
STANDARD
100
AcDbText
0
LINE
5
180
330
C
100
AcDbEntity
8
F.SilkS
100
AcDbLine
10
-69.2
20
14.763
30
0
11
-69.2
21
15.763
31
0
0
LINE
5
181
330
C
100
AcDbEntity
8
F.SilkS
100
AcDbLine
10
-69.2
20
1.763
30
0
11
-70.2
21
1.763
31
0
0
LINE
5
182
330
C
100
AcDbEntity
8
F.SilkS
100
AcDbLine
10
-70.2
20
15.763
30
0
11
-69.2
21
15.763
31
0
0
LINE
5
183
330
C
100
AcDbEntity
8
F.SilkS
100
AcDbLine
10
-69.2
20
1.763
30
0
11
-69.2
21
2.763
31
0
0
LINE
5
184
330
C
100
AcDbEntity
8
F.SilkS
100
AcDbLine
10
-83.2
20
2.763
30
0
11
-83.2
21
1.763
31
0
0
LINE
5
185
330
C
100
AcDbEntity
8
F.SilkS
100
AcDbLine
10
-83.2
20
15.763
30
0
11
-82.2
21
15.763
31
0
0
LINE
5
186
330
C
100
AcDbEntity
8
F.SilkS
100
AcDbLine
10
-82.2
20
1.763
30
0
11
-83.2
21
1.763
31
0
0
LINE
5
187
330
C
100
AcDbEntity
8
F.SilkS
100
AcDbLine
10
-83.2
20
15.763
30
0
11
-83.2
21
14.763
31
0
0
CIRCLE
5
188
330
C
100
AcDbEntity
8
F.SilkS
100
AcDbCircle
10
-76.2
20
8.763
30
0
40
1.9939
0
CIRCLE
5
189
330
C
100
AcDbEntity
8
F.SilkS
100
AcDbCircle
10
-81.28
20
8.763
30
0
40
0.8509
0
CIRCLE
5
18A
330
C
100
AcDbEntity
8
F.SilkS
100
AcDbCircle
10
-71.12
20
8.763
30
0
40
0.8509
0
LINE
5
18B
330
C
100
AcDbEntity
8
F.SilkS
100
AcDbLine
10
-66.7
20
18.262999999999998
30
0
11
-85.7
21
18.262999999999998
31
0
0
LINE
5
18C
330
C
100
AcDbEntity
8
F.SilkS
100
AcDbLine
10
-85.7
20
18.262999999999998
30
0
11
-85.7
21
-0.7370000000000001
31
0
0
LINE
5
18D
330
C
100
AcDbEntity
8
F.SilkS
100
AcDbLine
10
-85.7
20
-0.7370000000000001
30
0
11
-66.7
21
-0.7370000000000001
31
0
0
LINE
5
18E
330
C
100
AcDbEntity
8
F.SilkS
100
AcDbLine
10
-66.7
20
-0.7370000000000001
30
0
11
-66.7
21
18.262999999999998
31
0
0
CIRCLE
5
18F
330
C
100
AcDbEntity
8
F.SilkS
100
AcDbCircle
10
-78.74000000000001
20
13.843
30
0
40
1.5
0
CIRCLE
5
190
330
C
100
AcDbEntity
8
F.SilkS
100
AcDbCircle
10
-72.39
20
11.303
30
0
40
1.5
0
LWPOLYLINE
5
191
330
C
100
AcDbEntity
8
F.SilkS
62
1
100
AcDbPolyline
90
4
70
1
43
0
38
0
39
0
10
-67.84
20
12.553
10
-70.39
20
12.553
10
-70.39
20
10.053
10
-67.84
20
10.053
0
LWPOLYLINE
5
192
330
C
100
AcDbEntity
8
F.SilkS
62
1
100
AcDbPolyline
90
4
70
1
43
0
38
0
39
0
10
-80.767
20
15.093
10
-83.31700000000001
20
15.093
10
-83.31700000000001
20
12.593
10
-80.767
20
12.593
0
TEXT
5
193
330
C
100
AcDbEntity
8
F.SilkS
100
AcDbText
10
-76.2
20
27.813000000000002
30
0
40
1.27
1
S18
7
STANDARD
100
AcDbText
0
TEXT
5
194
330
C
100
AcDbEntity
8
F.SilkS
100
AcDbText
10
-76.2
20
27.813000000000002
30
0
40
1.27
1

7
STANDARD
100
AcDbText
0
LINE
5
195
330
C
100
AcDbEntity
8
F.SilkS
100
AcDbLine
10
-69.2
20
33.813
30
0
11
-69.2
21
34.813
31
0
0
LINE
5
196
330
C
100
AcDbEntity
8
F.SilkS
100
AcDbLine
10
-69.2
20
20.813000000000002
30
0
11
-70.2
21
20.813000000000002
31
0
0
LINE
5
197
330
C
100
AcDbEntity
8
F.SilkS
100
AcDbLine
10
-70.2
20
34.813
30
0
11
-69.2
21
34.813
31
0
0
LINE
5
198
330
C
100
AcDbEntity
8
F.SilkS
100
AcDbLine
10
-69.2
20
20.813000000000002
30
0
11
-69.2
21
21.813000000000002
31
0
0
LINE
5
199
330
C
100
AcDbEntity
8
F.SilkS
100
AcDbLine
10
-83.2
20
21.813000000000002
30
0
11
-83.2
21
20.813000000000002
31
0
0
LINE
5
19A
330
C
100
AcDbEntity
8
F.SilkS
100
AcDbLine
10
-83.2
20
34.813
30
0
11
-82.2
21
34.813
31
0
0
LINE
5
19B
330
C
100
AcDbEntity
8
F.SilkS
100
AcDbLine
10
-82.2
20
20.813000000000002
30
0
11
-83.2
21
20.813000000000002
31
0
0
LINE
5
19C
330
C
100
AcDbEntity
8
F.SilkS
100
AcDbLine
10
-83.2
20
34.813
30
0
11
-83.2
21
33.813
31
0
0
CIRCLE
5
19D
330
C
100
AcDbEntity
8
F.SilkS
100
AcDbCircle
10
-76.2
20
27.813000000000002
30
0
40
1.9939
0
CIRCLE
5
19E
330
C
100
AcDbEntity
8
F.SilkS
100
AcDbCircle
10
-81.28
20
27.813000000000002
30
0
40
0.8509
0
CIRCLE
5
19F
330
C
100
AcDbEntity
8
F.SilkS
100
AcDbCircle
10
-71.12
20
27.813000000000002
30
0
40
0.8509
0
LINE
5
1A0
330
C
100
AcDbEntity
8
F.SilkS
100
AcDbLine
10
-66.7
20
37.313
30
0
11
-85.7
21
37.313
31
0
0
LINE
5
1A1
330
C
100
AcDbEntity
8
F.SilkS
100
AcDbLine
10
-85.7
20
37.313
30
0
11
-85.7
21
18.313000000000002
31
0
0
LINE
5
1A2
330
C
100
AcDbEntity
8
F.SilkS
100
AcDbLine
10
-85.7
20
18.313000000000002
30
0
11
-66.7
21
18.313000000000002
31
0
0
LINE
5
1A3
330
C
100
AcDbEntity
8
F.SilkS
100
AcDbLine
10
-66.7
20
18.313000000000002
30
0
11
-66.7
21
37.313
31
0
0
CIRCLE
5
1A4
330
C
100
AcDbEntity
8
F.SilkS
100
AcDbCircle
10
-78.74000000000001
20
32.893
30
0
40
1.5
0
CIRCLE
5
1A5
330
C
100
AcDbEntity
8
F.SilkS
100
AcDbCircle
10
-72.39
20
30.353
30
0
40
1.5
0
LWPOLYLINE
5
1A6
330
C
100
AcDbEntity
8
F.SilkS
62
1
100
AcDbPolyline
90
4
70
1
43
0
38
0
39
0
10
-67.84
20
31.603
10
-70.39
20
31.603
10
-70.39
20
29.103
10
-67.84
20
29.103
0
LWPOLYLINE
5
1A7
330
C
100
AcDbEntity
8
F.SilkS
62
1
100
AcDbPolyline
90
4
70
1
43
0
38
0
39
0
10
-80.767
20
34.143
10
-83.31700000000001
20
34.143
10
-83.31700000000001
20
31.643
10
-80.767
20
31.643
0
TEXT
5
1A8
330
C
100
AcDbEntity
8
F.SilkS
100
AcDbText
10
-76.2
20
46.863
30
0
40
1.27
1
S19
7
STANDARD
100
AcDbText
0
TEXT
5
1A9
330
C
100
AcDbEntity
8
F.SilkS
100
AcDbText
10
-76.2
20
46.863
30
0
40
1.27
1

7
STANDARD
100
AcDbText
0
LINE
5
1AA
330
C
100
AcDbEntity
8
F.SilkS
100
AcDbLine
10
-69.2
20
52.863
30
0
11
-69.2
21
53.863
31
0
0
LINE
5
1AB
330
C
100
AcDbEntity
8
F.SilkS
100
AcDbLine
10
-69.2
20
39.863
30
0
11
-70.2
21
39.863
31
0
0
LINE
5
1AC
330
C
100
AcDbEntity
8
F.SilkS
100
AcDbLine
10
-70.2
20
53.863
30
0
11
-69.2
21
53.863
31
0
0
LINE
5
1AD
330
C
100
AcDbEntity
8
F.SilkS
100
AcDbLine
10
-69.2
20
39.863
30
0
11
-69.2
21
40.863
31
0
0
LINE
5
1AE
330
C
100
AcDbEntity
8
F.SilkS
100
AcDbLine
10
-83.2
20
40.863
30
0
11
-83.2
21
39.863
31
0
0
LINE
5
1AF
330
C
100
AcDbEntity
8
F.SilkS
100
AcDbLine
10
-83.2
20
53.863
30
0
11
-82.2
21
53.863
31
0
0
LINE
5
1B0
330
C
100
AcDbEntity
8
F.SilkS
100
AcDbLine
10
-82.2
20
39.863
30
0
11
-83.2
21
39.863
31
0
0
LINE
5
1B1
330
C
100
AcDbEntity
8
F.SilkS
100
AcDbLine
10
-83.2
20
53.863
30
0
11
-83.2
21
52.863
31
0
0
CIRCLE
5
1B2
330
C
100
AcDbEntity
8
F.SilkS
100
AcDbCircle
10
-76.2
20
46.863
30
0
40
1.9939
0
CIRCLE
5
1B3
330
C
100
AcDbEntity
8
F.SilkS
100
AcDbCircle
10
-81.28
20
46.863
30
0
40
0.8509
0
CIRCLE
5
1B4
330
C
100
AcDbEntity
8
F.SilkS
100
AcDbCircle
10
-71.12
20
46.863
30
0
40
0.8509
0
LINE
5
1B5
330
C
100
AcDbEntity
8
F.SilkS
100
AcDbLine
10
-66.7
20
56.363
30
0
11
-85.7
21
56.363
31
0
0
LINE
5
1B6
330
C
100
AcDbEntity
8
F.SilkS
100
AcDbLine
10
-85.7
20
56.363
30
0
11
-85.7
21
37.363
31
0
0
LINE
5
1B7
330
C
100
AcDbEntity
8
F.SilkS
100
AcDbLine
10
-85.7
20
37.363
30
0
11
-66.7
21
37.363
31
0
0
LINE
5
1B8
330
C
100
AcDbEntity
8
F.SilkS
100
AcDbLine
10
-66.7
20
37.363
30
0
11
-66.7
21
56.363
31
0
0
CIRCLE
5
1B9
330
C
100
AcDbEntity
8
F.SilkS
100
AcDbCircle
10
-78.74000000000001
20
51.943
30
0
40
1.5
0
CIRCLE
5
1BA
330
C
100
AcDbEntity
8
F.SilkS
100
AcDbCircle
10
-72.39
20
49.403
30
0
40
1.5
0
LWPOLYLINE
5
1BB
330
C
100
AcDbEntity
8
F.SilkS
62
1
100
AcDbPolyline
90
4
70
1
43
0
38
0
39
0
10
-67.84
20
50.653
10
-70.39
20
50.653
10
-70.39
20
48.153
10
-67.84
20
48.153
0
LWPOLYLINE
5
1BC
330
C
100
AcDbEntity
8
F.SilkS
62
1
100
AcDbPolyline
90
4
70
1
43
0
38
0
39
0
10
-80.767
20
53.193
10
-83.31700000000001
20
53.193
10
-83.31700000000001
20
50.693
10
-80.767
20
50.693
0
TEXT
5
1BD
330
C
100
AcDbEntity
8
F.SilkS
100
AcDbText
10
-76.2
20
65.913
30
0
40
1.27
1
S20
7
STANDARD
100
AcDbText
0
TEXT
5
1BE
330
C
100
AcDbEntity
8
F.SilkS
100
AcDbText
10
-76.2
20
65.913
30
0
40
1.27
1

7
STANDARD
100
AcDbText
0
LINE
5
1BF
330
C
100
AcDbEntity
8
F.SilkS
100
AcDbLine
10
-69.2
20
71.913
30
0
11
-69.2
21
72.913
31
0
0
LINE
5
1C0
330
C
100
AcDbEntity
8
F.SilkS
100
AcDbLine
10
-69.2
20
58.913
30
0
11
-70.2
21
58.913
31
0
0
LINE
5
1C1
330
C
100
AcDbEntity
8
F.SilkS
100
AcDbLine
10
-70.2
20
72.913
30
0
11
-69.2
21
72.913
31
0
0
LINE
5
1C2
330
C
100
AcDbEntity
8
F.SilkS
100
AcDbLine
10
-69.2
20
58.913
30
0
11
-69.2
21
59.913
31
0
0
LINE
5
1C3
330
C
100
AcDbEntity
8
F.SilkS
100
AcDbLine
10
-83.2
20
59.913
30
0
11
-83.2
21
58.913
31
0
0
LINE
5
1C4
330
C
100
AcDbEntity
8
F.SilkS
100
AcDbLine
10
-83.2
20
72.913
30
0
11
-82.2
21
72.913
31
0
0
LINE
5
1C5
330
C
100
AcDbEntity
8
F.SilkS
100
AcDbLine
10
-82.2
20
58.913
30
0
11
-83.2
21
58.913
31
0
0
LINE
5
1C6
330
C
100
AcDbEntity
8
F.SilkS
100
AcDbLine
10
-83.2
20
72.913
30
0
11
-83.2
21
71.913
31
0
0
CIRCLE
5
1C7
330
C
100
AcDbEntity
8
F.SilkS
100
AcDbCircle
10
-76.2
20
65.913
30
0
40
1.9939
0
CIRCLE
5
1C8
330
C
100
AcDbEntity
8
F.SilkS
100
AcDbCircle
10
-81.28
20
65.913
30
0
40
0.8509
0
CIRCLE
5
1C9
330
C
100
AcDbEntity
8
F.SilkS
100
AcDbCircle
10
-71.12
20
65.913
30
0
40
0.8509
0
LINE
5
1CA
330
C
100
AcDbEntity
8
F.SilkS
100
AcDbLine
10
-66.7
20
75.413
30
0
11
-85.7
21
75.413
31
0
0
LINE
5
1CB
330
C
100
AcDbEntity
8
F.SilkS
100
AcDbLine
10
-85.7
20
75.413
30
0
11
-85.7
21
56.413
31
0
0
LINE
5
1CC
330
C
100
AcDbEntity
8
F.SilkS
100
AcDbLine
10
-85.7
20
56.413
30
0
11
-66.7
21
56.413
31
0
0
LINE
5
1CD
330
C
100
AcDbEntity
8
F.SilkS
100
AcDbLine
10
-66.7
20
56.413
30
0
11
-66.7
21
75.413
31
0
0
CIRCLE
5
1CE
330
C
100
AcDbEntity
8
F.SilkS
100
AcDbCircle
10
-78.74000000000001
20
70.993
30
0
40
1.5
0
CIRCLE
5
1CF
330
C
100
AcDbEntity
8
F.SilkS
100
AcDbCircle
10
-72.39
20
68.453
30
0
40
1.5
0
LWPOLYLINE
5
1D0
330
C
100
AcDbEntity
8
F.SilkS
62
1
100
AcDbPolyline
90
4
70
1
43
0
38
0
39
0
10
-67.84
20
69.703
10
-70.39
20
69.703
10
-70.39
20
67.203
10
-67.84
20
67.203
0
LWPOLYLINE
5
1D1
330
C
100
AcDbEntity
8
F.SilkS
62
1
100
AcDbPolyline
90
4
70
1
43
0
38
0
39
0
10
-80.767
20
72.243
10
-83.31700000000001
20
72.243
10
-83.31700000000001
20
69.743
10
-80.767
20
69.743
0
TEXT
5
1D2
330
C
100
AcDbEntity
8
F.SilkS
100
AcDbText
10
-95.25
20
5.9055
30
0
40
1.27
1
S21
7
STANDARD
100
AcDbText
0
TEXT
5
1D3
330
C
100
AcDbEntity
8
F.SilkS
100
AcDbText
10
-95.25
20
5.9055
30
0
40
1.27
1

7
STANDARD
100
AcDbText
0
LINE
5
1D4
330
C
100
AcDbEntity
8
F.SilkS
100
AcDbLine
10
-88.25
20
11.9055
30
0
11
-88.25
21
12.9055
31
0
0
LINE
5
1D5
330
C
100
AcDbEntity
8
F.SilkS
100
AcDbLine
10
-88.25
20
-1.0945
30
0
11
-89.25
21
-1.0945
31
0
0
LINE
5
1D6
330
C
100
AcDbEntity
8
F.SilkS
100
AcDbLine
10
-89.25
20
12.9055
30
0
11
-88.25
21
12.9055
31
0
0
LINE
5
1D7
330
C
100
AcDbEntity
8
F.SilkS
100
AcDbLine
10
-88.25
20
-1.0945
30
0
11
-88.25
21
-0.09450000000000003
31
0
0
LINE
5
1D8
330
C
100
AcDbEntity
8
F.SilkS
100
AcDbLine
10
-102.25
20
-0.09450000000000003
30
0
11
-102.25
21
-1.0945
31
0
0
LINE
5
1D9
330
C
100
AcDbEntity
8
F.SilkS
100
AcDbLine
10
-102.25
20
12.9055
30
0
11
-101.25
21
12.9055
31
0
0
LINE
5
1DA
330
C
100
AcDbEntity
8
F.SilkS
100
AcDbLine
10
-101.25
20
-1.0945
30
0
11
-102.25
21
-1.0945
31
0
0
LINE
5
1DB
330
C
100
AcDbEntity
8
F.SilkS
100
AcDbLine
10
-102.25
20
12.9055
30
0
11
-102.25
21
11.9055
31
0
0
CIRCLE
5
1DC
330
C
100
AcDbEntity
8
F.SilkS
100
AcDbCircle
10
-95.25
20
5.9055
30
0
40
1.9939
0
CIRCLE
5
1DD
330
C
100
AcDbEntity
8
F.SilkS
100
AcDbCircle
10
-100.33
20
5.9055
30
0
40
0.8509
0
CIRCLE
5
1DE
330
C
100
AcDbEntity
8
F.SilkS
100
AcDbCircle
10
-90.17
20
5.9055
30
0
40
0.8509
0
LINE
5
1DF
330
C
100
AcDbEntity
8
F.SilkS
100
AcDbLine
10
-85.75
20
15.4055
30
0
11
-104.75
21
15.4055
31
0
0
LINE
5
1E0
330
C
100
AcDbEntity
8
F.SilkS
100
AcDbLine
10
-104.75
20
15.4055
30
0
11
-104.75
21
-3.5945
31
0
0
LINE
5
1E1
330
C
100
AcDbEntity
8
F.SilkS
100
AcDbLine
10
-104.75
20
-3.5945
30
0
11
-85.75
21
-3.5945
31
0
0
LINE
5
1E2
330
C
100
AcDbEntity
8
F.SilkS
100
AcDbLine
10
-85.75
20
-3.5945
30
0
11
-85.75
21
15.4055
31
0
0
CIRCLE
5
1E3
330
C
100
AcDbEntity
8
F.SilkS
100
AcDbCircle
10
-97.79
20
10.9855
30
0
40
1.5
0
CIRCLE
5
1E4
330
C
100
AcDbEntity
8
F.SilkS
100
AcDbCircle
10
-91.44
20
8.4455
30
0
40
1.5
0
LWPOLYLINE
5
1E5
330
C
100
AcDbEntity
8
F.SilkS
62
1
100
AcDbPolyline
90
4
70
1
43
0
38
0
39
0
10
-86.89
20
9.6955
10
-89.44
20
9.6955
10
-89.44
20
7.1955
10
-86.89
20
7.1955
0
LWPOLYLINE
5
1E6
330
C
100
AcDbEntity
8
F.SilkS
62
1
100
AcDbPolyline
90
4
70
1
43
0
38
0
39
0
10
-99.81700000000001
20
12.2355
10
-102.367
20
12.2355
10
-102.367
20
9.7355
10
-99.81700000000001
20
9.7355
0
TEXT
5
1E7
330
C
100
AcDbEntity
8
F.SilkS
100
AcDbText
10
-95.25
20
24.9555
30
0
40
1.27
1
S22
7
STANDARD
100
AcDbText
0
TEXT
5
1E8
330
C
100
AcDbEntity
8
F.SilkS
100
AcDbText
10
-95.25
20
24.9555
30
0
40
1.27
1

7
STANDARD
100
AcDbText
0
LINE
5
1E9
330
C
100
AcDbEntity
8
F.SilkS
100
AcDbLine
10
-88.25
20
30.9555
30
0
11
-88.25
21
31.9555
31
0
0
LINE
5
1EA
330
C
100
AcDbEntity
8
F.SilkS
100
AcDbLine
10
-88.25
20
17.9555
30
0
11
-89.25
21
17.9555
31
0
0
LINE
5
1EB
330
C
100
AcDbEntity
8
F.SilkS
100
AcDbLine
10
-89.25
20
31.9555
30
0
11
-88.25
21
31.9555
31
0
0
LINE
5
1EC
330
C
100
AcDbEntity
8
F.SilkS
100
AcDbLine
10
-88.25
20
17.9555
30
0
11
-88.25
21
18.9555
31
0
0
LINE
5
1ED
330
C
100
AcDbEntity
8
F.SilkS
100
AcDbLine
10
-102.25
20
18.9555
30
0
11
-102.25
21
17.9555
31
0
0
LINE
5
1EE
330
C
100
AcDbEntity
8
F.SilkS
100
AcDbLine
10
-102.25
20
31.9555
30
0
11
-101.25
21
31.9555
31
0
0
LINE
5
1EF
330
C
100
AcDbEntity
8
F.SilkS
100
AcDbLine
10
-101.25
20
17.9555
30
0
11
-102.25
21
17.9555
31
0
0
LINE
5
1F0
330
C
100
AcDbEntity
8
F.SilkS
100
AcDbLine
10
-102.25
20
31.9555
30
0
11
-102.25
21
30.9555
31
0
0
CIRCLE
5
1F1
330
C
100
AcDbEntity
8
F.SilkS
100
AcDbCircle
10
-95.25
20
24.9555
30
0
40
1.9939
0
CIRCLE
5
1F2
330
C
100
AcDbEntity
8
F.SilkS
100
AcDbCircle
10
-100.33
20
24.9555
30
0
40
0.8509
0
CIRCLE
5
1F3
330
C
100
AcDbEntity
8
F.SilkS
100
AcDbCircle
10
-90.17
20
24.9555
30
0
40
0.8509
0
LINE
5
1F4
330
C
100
AcDbEntity
8
F.SilkS
100
AcDbLine
10
-85.75
20
34.4555
30
0
11
-104.75
21
34.4555
31
0
0
LINE
5
1F5
330
C
100
AcDbEntity
8
F.SilkS
100
AcDbLine
10
-104.75
20
34.4555
30
0
11
-104.75
21
15.4555
31
0
0
LINE
5
1F6
330
C
100
AcDbEntity
8
F.SilkS
100
AcDbLine
10
-104.75
20
15.4555
30
0
11
-85.75
21
15.4555
31
0
0
LINE
5
1F7
330
C
100
AcDbEntity
8
F.SilkS
100
AcDbLine
10
-85.75
20
15.4555
30
0
11
-85.75
21
34.4555
31
0
0
CIRCLE
5
1F8
330
C
100
AcDbEntity
8
F.SilkS
100
AcDbCircle
10
-97.79
20
30.0355
30
0
40
1.5
0
CIRCLE
5
1F9
330
C
100
AcDbEntity
8
F.SilkS
100
AcDbCircle
10
-91.44
20
27.4955
30
0
40
1.5
0
LWPOLYLINE
5
1FA
330
C
100
AcDbEntity
8
F.SilkS
62
1
100
AcDbPolyline
90
4
70
1
43
0
38
0
39
0
10
-86.89
20
28.7455
10
-89.44
20
28.7455
10
-89.44
20
26.2455
10
-86.89
20
26.2455
0
LWPOLYLINE
5
1FB
330
C
100
AcDbEntity
8
F.SilkS
62
1
100
AcDbPolyline
90
4
70
1
43
0
38
0
39
0
10
-99.81700000000001
20
31.2855
10
-102.367
20
31.2855
10
-102.367
20
28.7855
10
-99.81700000000001
20
28.7855
0
TEXT
5
1FC
330
C
100
AcDbEntity
8
F.SilkS
100
AcDbText
10
-95.25
20
44.0055
30
0
40
1.27
1
S23
7
STANDARD
100
AcDbText
0
TEXT
5
1FD
330
C
100
AcDbEntity
8
F.SilkS
100
AcDbText
10
-95.25
20
44.0055
30
0
40
1.27
1

7
STANDARD
100
AcDbText
0
LINE
5
1FE
330
C
100
AcDbEntity
8
F.SilkS
100
AcDbLine
10
-88.25
20
50.0055
30
0
11
-88.25
21
51.0055
31
0
0
LINE
5
1FF
330
C
100
AcDbEntity
8
F.SilkS
100
AcDbLine
10
-88.25
20
37.0055
30
0
11
-89.25
21
37.0055
31
0
0
LINE
5
200
330
C
100
AcDbEntity
8
F.SilkS
100
AcDbLine
10
-89.25
20
51.0055
30
0
11
-88.25
21
51.0055
31
0
0
LINE
5
201
330
C
100
AcDbEntity
8
F.SilkS
100
AcDbLine
10
-88.25
20
37.0055
30
0
11
-88.25
21
38.0055
31
0
0
LINE
5
202
330
C
100
AcDbEntity
8
F.SilkS
100
AcDbLine
10
-102.25
20
38.0055
30
0
11
-102.25
21
37.0055
31
0
0
LINE
5
203
330
C
100
AcDbEntity
8
F.SilkS
100
AcDbLine
10
-102.25
20
51.0055
30
0
11
-101.25
21
51.0055
31
0
0
LINE
5
204
330
C
100
AcDbEntity
8
F.SilkS
100
AcDbLine
10
-101.25
20
37.0055
30
0
11
-102.25
21
37.0055
31
0
0
LINE
5
205
330
C
100
AcDbEntity
8
F.SilkS
100
AcDbLine
10
-102.25
20
51.0055
30
0
11
-102.25
21
50.0055
31
0
0
CIRCLE
5
206
330
C
100
AcDbEntity
8
F.SilkS
100
AcDbCircle
10
-95.25
20
44.0055
30
0
40
1.9939
0
CIRCLE
5
207
330
C
100
AcDbEntity
8
F.SilkS
100
AcDbCircle
10
-100.33
20
44.0055
30
0
40
0.8509
0
CIRCLE
5
208
330
C
100
AcDbEntity
8
F.SilkS
100
AcDbCircle
10
-90.17
20
44.0055
30
0
40
0.8509
0
LINE
5
209
330
C
100
AcDbEntity
8
F.SilkS
100
AcDbLine
10
-85.75
20
53.5055
30
0
11
-104.75
21
53.5055
31
0
0
LINE
5
20A
330
C
100
AcDbEntity
8
F.SilkS
100
AcDbLine
10
-104.75
20
53.5055
30
0
11
-104.75
21
34.5055
31
0
0
LINE
5
20B
330
C
100
AcDbEntity
8
F.SilkS
100
AcDbLine
10
-104.75
20
34.5055
30
0
11
-85.75
21
34.5055
31
0
0
LINE
5
20C
330
C
100
AcDbEntity
8
F.SilkS
100
AcDbLine
10
-85.75
20
34.5055
30
0
11
-85.75
21
53.5055
31
0
0
CIRCLE
5
20D
330
C
100
AcDbEntity
8
F.SilkS
100
AcDbCircle
10
-97.79
20
49.085499999999996
30
0
40
1.5
0
CIRCLE
5
20E
330
C
100
AcDbEntity
8
F.SilkS
100
AcDbCircle
10
-91.44
20
46.5455
30
0
40
1.5
0
LWPOLYLINE
5
20F
330
C
100
AcDbEntity
8
F.SilkS
62
1
100
AcDbPolyline
90
4
70
1
43
0
38
0
39
0
10
-86.89
20
47.7955
10
-89.44
20
47.7955
10
-89.44
20
45.2955
10
-86.89
20
45.2955
0
LWPOLYLINE
5
210
330
C
100
AcDbEntity
8
F.SilkS
62
1
100
AcDbPolyline
90
4
70
1
43
0
38
0
39
0
10
-99.81700000000001
20
50.335499999999996
10
-102.367
20
50.335499999999996
10
-102.367
20
47.835499999999996
10
-99.81700000000001
20
47.835499999999996
0
TEXT
5
211
330
C
100
AcDbEntity
8
F.SilkS
100
AcDbText
10
-95.25
20
63.055499999999995
30
0
40
1.27
1
S24
7
STANDARD
100
AcDbText
0
TEXT
5
212
330
C
100
AcDbEntity
8
F.SilkS
100
AcDbText
10
-95.25
20
63.055499999999995
30
0
40
1.27
1

7
STANDARD
100
AcDbText
0
LINE
5
213
330
C
100
AcDbEntity
8
F.SilkS
100
AcDbLine
10
-88.25
20
69.0555
30
0
11
-88.25
21
70.0555
31
0
0
LINE
5
214
330
C
100
AcDbEntity
8
F.SilkS
100
AcDbLine
10
-88.25
20
56.055499999999995
30
0
11
-89.25
21
56.055499999999995
31
0
0
LINE
5
215
330
C
100
AcDbEntity
8
F.SilkS
100
AcDbLine
10
-89.25
20
70.0555
30
0
11
-88.25
21
70.0555
31
0
0
LINE
5
216
330
C
100
AcDbEntity
8
F.SilkS
100
AcDbLine
10
-88.25
20
56.055499999999995
30
0
11
-88.25
21
57.055499999999995
31
0
0
LINE
5
217
330
C
100
AcDbEntity
8
F.SilkS
100
AcDbLine
10
-102.25
20
57.055499999999995
30
0
11
-102.25
21
56.055499999999995
31
0
0
LINE
5
218
330
C
100
AcDbEntity
8
F.SilkS
100
AcDbLine
10
-102.25
20
70.0555
30
0
11
-101.25
21
70.0555
31
0
0
LINE
5
219
330
C
100
AcDbEntity
8
F.SilkS
100
AcDbLine
10
-101.25
20
56.055499999999995
30
0
11
-102.25
21
56.055499999999995
31
0
0
LINE
5
21A
330
C
100
AcDbEntity
8
F.SilkS
100
AcDbLine
10
-102.25
20
70.0555
30
0
11
-102.25
21
69.0555
31
0
0
CIRCLE
5
21B
330
C
100
AcDbEntity
8
F.SilkS
100
AcDbCircle
10
-95.25
20
63.055499999999995
30
0
40
1.9939
0
CIRCLE
5
21C
330
C
100
AcDbEntity
8
F.SilkS
100
AcDbCircle
10
-100.33
20
63.055499999999995
30
0
40
0.8509
0
CIRCLE
5
21D
330
C
100
AcDbEntity
8
F.SilkS
100
AcDbCircle
10
-90.17
20
63.055499999999995
30
0
40
0.8509
0
LINE
5
21E
330
C
100
AcDbEntity
8
F.SilkS
100
AcDbLine
10
-85.75
20
72.5555
30
0
11
-104.75
21
72.5555
31
0
0
LINE
5
21F
330
C
100
AcDbEntity
8
F.SilkS
100
AcDbLine
10
-104.75
20
72.5555
30
0
11
-104.75
21
53.555499999999995
31
0
0
LINE
5
220
330
C
100
AcDbEntity
8
F.SilkS
100
AcDbLine
10
-104.75
20
53.555499999999995
30
0
11
-85.75
21
53.555499999999995
31
0
0
LINE
5
221
330
C
100
AcDbEntity
8
F.SilkS
100
AcDbLine
10
-85.75
20
53.555499999999995
30
0
11
-85.75
21
72.5555
31
0
0
CIRCLE
5
222
330
C
100
AcDbEntity
8
F.SilkS
100
AcDbCircle
10
-97.79
20
68.1355
30
0
40
1.5
0
CIRCLE
5
223
330
C
100
AcDbEntity
8
F.SilkS
100
AcDbCircle
10
-91.44
20
65.5955
30
0
40
1.5
0
LWPOLYLINE
5
224
330
C
100
AcDbEntity
8
F.SilkS
62
1
100
AcDbPolyline
90
4
70
1
43
0
38
0
39
0
10
-86.89
20
66.8455
10
-89.44
20
66.8455
10
-89.44
20
64.3455
10
-86.89
20
64.3455
0
LWPOLYLINE
5
225
330
C
100
AcDbEntity
8
F.SilkS
62
1
100
AcDbPolyline
90
4
70
1
43
0
38
0
39
0
10
-99.81700000000001
20
69.3855
10
-102.367
20
69.3855
10
-102.367
20
66.8855
10
-99.81700000000001
20
66.8855
0
TEXT
5
226
330
C
100
AcDbEntity
8
F.SilkS
100
AcDbText
10
-115.0328493
20
-17.5237653
30
0
40
1.27
1
S25
7
STANDARD
100
AcDbText
0
TEXT
5
227
330
C
100
AcDbEntity
8
F.SilkS
100
AcDbText
10
-115.0328493
20
-17.5237653
30
0
40
1.27
1

7
STANDARD
100
AcDbText
0
LINE
5
228
330
C
100
AcDbEntity
8
F.SilkS
100
AcDbLine
10
-105.93706937348036
20
-19.02935074371361
30
0
11
-105.17102493036137
21
-18.38656313402707
31
0
0
LINE
5
229
330
C
100
AcDbEntity
8
F.SilkS
100
AcDbLine
10
-115.89564713402707
20
-27.385589669638623
30
0
11
-116.53843474371361
21
-26.619545226519644
31
0
0
LINE
5
22A
330
C
100
AcDbEntity
8
F.SilkS
100
AcDbLine
10
-105.8138125400479
20
-17.620518690908092
30
0
11
-105.17102493036137
21
-18.38656313402707
31
0
0
LINE
5
22B
330
C
100
AcDbEntity
8
F.SilkS
100
AcDbLine
10
-115.89564713402707
20
-27.385589669638623
30
0
11
-115.12960269090809
21
-26.742802059952083
31
0
0
LINE
5
22C
330
C
100
AcDbEntity
8
F.SilkS
100
AcDbLine
10
-124.12862922651964
20
-16.01817985628639
30
0
11
-124.89467366963862
21
-16.66096746597293
31
0
0
LINE
5
22D
330
C
100
AcDbEntity
8
F.SilkS
100
AcDbLine
10
-114.17005146597292
20
-7.661940930361379
30
0
11
-113.52726385628638
21
-8.427985373480357
31
0
0
LINE
5
22E
330
C
100
AcDbEntity
8
F.SilkS
100
AcDbLine
10
-124.25188605995208
20
-17.42701190909191
30
0
11
-124.89467366963862
21
-16.66096746597293
31
0
0
LINE
5
22F
330
C
100
AcDbEntity
8
F.SilkS
100
AcDbLine
10
-114.17005146597292
20
-7.661940930361379
30
0
11
-114.9360959090919
21
-8.304728540047918
31
0
0
CIRCLE
5
230
330
C
100
AcDbEntity
8
F.SilkS
100
AcDbCircle
10
-115.0328493
20
-17.5237653
30
0
40
1.9939
0
CIRCLE
5
231
330
C
100
AcDbEntity
8
F.SilkS
100
AcDbCircle
10
-118.29821035720761
20
-13.632259528955593
30
0
40
0.8509
0
CIRCLE
5
232
330
C
100
AcDbEntity
8
F.SilkS
100
AcDbCircle
10
-111.76748824279238
20
-21.41527107104441
30
0
40
0.8509
0
LINE
5
233
330
C
100
AcDbEntity
8
F.SilkS
100
AcDbLine
10
-101.64894479834759
20
-18.694705217608167
30
0
11
-113.86190938239183
21
-4.139860798347586
31
0
0
LINE
5
234
330
C
100
AcDbEntity
8
F.SilkS
100
AcDbLine
10
-113.86190938239183
20
-4.139860798347586
30
0
11
-128.41675380165242
21
-16.352825382391835
31
0
0
LINE
5
235
330
C
100
AcDbEntity
8
F.SilkS
100
AcDbLine
10
-128.41675380165242
20
-16.352825382391835
30
0
11
-116.20378921760816
21
-30.907669801652418
31
0
0
LINE
5
236
330
C
100
AcDbEntity
8
F.SilkS
100
AcDbLine
10
-116.20378921760816
20
-30.907669801652418
30
0
11
-101.64894479834759
21
-18.694705217608167
31
0
0
CIRCLE
5
237
330
C
100
AcDbEntity
8
F.SilkS
100
AcDbCircle
10
-112.7740240575594
20
-12.312651357270177
30
0
40
1.5
0
CIRCLE
5
238
330
C
100
AcDbEntity
8
F.SilkS
100
AcDbCircle
10
-110.63807562157207
20
-18.809714099679496
30
0
40
1.5
0
LWPOLYLINE
5
239
330
C
100
AcDbEntity
8
F.SilkS
62
1
100
AcDbPolyline
90
4
70
1
43
0
38
0
39
0
10
-106.7558364435996
20
-21.491731803762672
10
-110.31005595609771
20
-21.491731803762672
10
-110.31005595609771
20
-21.145287498025628
10
-106.7558364435996
20
-21.145287498025628
0
LWPOLYLINE
5
23A
330
C
100
AcDbEntity
8
F.SilkS
62
1
100
AcDbPolyline
90
4
70
1
43
0
38
0
39
0
10
-113.11939898849529
20
-9.956394758959835
10
-116.67361850099341
20
-9.956394758959835
10
-116.67361850099341
20
-9.60995045322279
10
-113.11939898849529
20
-9.60995045322279
0
TEXT
5
23B
330
C
100
AcDbEntity
8
F.SilkS
100
AcDbText
10
-47.625
20
-15.0495
30
0
40
1.27
1
S26
7
STANDARD
100
AcDbText
0
TEXT
5
23C
330
C
100
AcDbEntity
8
F.SilkS
100
AcDbText
10
-47.625
20
-15.0495
30
0
40
1.27
1

7
STANDARD
100
AcDbText
0
LINE
5
23D
330
C
100
AcDbEntity
8
F.SilkS
100
AcDbLine
10
-40.625
20
-9.0495
30
0
11
-40.625
21
-8.0495
31
0
0
LINE
5
23E
330
C
100
AcDbEntity
8
F.SilkS
100
AcDbLine
10
-40.625
20
-22.049500000000002
30
0
11
-41.625
21
-22.049500000000002
31
0
0
LINE
5
23F
330
C
100
AcDbEntity
8
F.SilkS
100
AcDbLine
10
-41.625
20
-8.0495
30
0
11
-40.625
21
-8.0495
31
0
0
LINE
5
240
330
C
100
AcDbEntity
8
F.SilkS
100
AcDbLine
10
-40.625
20
-22.049500000000002
30
0
11
-40.625
21
-21.049500000000002
31
0
0
LINE
5
241
330
C
100
AcDbEntity
8
F.SilkS
100
AcDbLine
10
-54.625
20
-21.049500000000002
30
0
11
-54.625
21
-22.049500000000002
31
0
0
LINE
5
242
330
C
100
AcDbEntity
8
F.SilkS
100
AcDbLine
10
-54.625
20
-8.0495
30
0
11
-53.625
21
-8.0495
31
0
0
LINE
5
243
330
C
100
AcDbEntity
8
F.SilkS
100
AcDbLine
10
-53.625
20
-22.049500000000002
30
0
11
-54.625
21
-22.049500000000002
31
0
0
LINE
5
244
330
C
100
AcDbEntity
8
F.SilkS
100
AcDbLine
10
-54.625
20
-8.0495
30
0
11
-54.625
21
-9.0495
31
0
0
CIRCLE
5
245
330
C
100
AcDbEntity
8
F.SilkS
100
AcDbCircle
10
-47.625
20
-15.0495
30
0
40
1.9939
0
CIRCLE
5
246
330
C
100
AcDbEntity
8
F.SilkS
100
AcDbCircle
10
-52.705
20
-15.0495
30
0
40
0.8509
0
CIRCLE
5
247
330
C
100
AcDbEntity
8
F.SilkS
100
AcDbCircle
10
-42.545
20
-15.0495
30
0
40
0.8509
0
LINE
5
248
330
C
100
AcDbEntity
8
F.SilkS
100
AcDbLine
10
-38.125
20
-5.5495
30
0
11
-57.125
21
-5.5495
31
0
0
LINE
5
249
330
C
100
AcDbEntity
8
F.SilkS
100
AcDbLine
10
-57.125
20
-5.5495
30
0
11
-57.125
21
-24.549500000000002
31
0
0
LINE
5
24A
330
C
100
AcDbEntity
8
F.SilkS
100
AcDbLine
10
-57.125
20
-24.549500000000002
30
0
11
-38.125
21
-24.549500000000002
31
0
0
LINE
5
24B
330
C
100
AcDbEntity
8
F.SilkS
100
AcDbLine
10
-38.125
20
-24.549500000000002
30
0
11
-38.125
21
-5.5495
31
0
0
CIRCLE
5
24C
330
C
100
AcDbEntity
8
F.SilkS
100
AcDbCircle
10
-50.165
20
-9.9695
30
0
40
1.5
0
CIRCLE
5
24D
330
C
100
AcDbEntity
8
F.SilkS
100
AcDbCircle
10
-43.815
20
-12.5095
30
0
40
1.5
0
LWPOLYLINE
5
24E
330
C
100
AcDbEntity
8
F.SilkS
62
1
100
AcDbPolyline
90
4
70
1
43
0
38
0
39
0
10
-39.265
20
-11.2595
10
-41.815
20
-11.2595
10
-41.815
20
-13.7595
10
-39.265
20
-13.7595
0
LWPOLYLINE
5
24F
330
C
100
AcDbEntity
8
F.SilkS
62
1
100
AcDbPolyline
90
4
70
1
43
0
38
0
39
0
10
-52.192
20
-8.7195
10
-54.742
20
-8.7195
10
-54.742
20
-11.2195
10
-52.192
20
-11.2195
0
TEXT
5
250
330
C
100
AcDbEntity
8
F.SilkS
100
AcDbText
10
-66.625
20
-15.0495
30
0
40
1.27
1
S27
7
STANDARD
100
AcDbText
0
TEXT
5
251
330
C
100
AcDbEntity
8
F.SilkS
100
AcDbText
10
-66.625
20
-15.0495
30
0
40
1.27
1

7
STANDARD
100
AcDbText
0
LINE
5
252
330
C
100
AcDbEntity
8
F.SilkS
100
AcDbLine
10
-59.625
20
-9.0495
30
0
11
-59.625
21
-8.0495
31
0
0
LINE
5
253
330
C
100
AcDbEntity
8
F.SilkS
100
AcDbLine
10
-59.625
20
-22.049500000000002
30
0
11
-60.625
21
-22.049500000000002
31
0
0
LINE
5
254
330
C
100
AcDbEntity
8
F.SilkS
100
AcDbLine
10
-60.625
20
-8.0495
30
0
11
-59.625
21
-8.0495
31
0
0
LINE
5
255
330
C
100
AcDbEntity
8
F.SilkS
100
AcDbLine
10
-59.625
20
-22.049500000000002
30
0
11
-59.625
21
-21.049500000000002
31
0
0
LINE
5
256
330
C
100
AcDbEntity
8
F.SilkS
100
AcDbLine
10
-73.625
20
-21.049500000000002
30
0
11
-73.625
21
-22.049500000000002
31
0
0
LINE
5
257
330
C
100
AcDbEntity
8
F.SilkS
100
AcDbLine
10
-73.625
20
-8.0495
30
0
11
-72.625
21
-8.0495
31
0
0
LINE
5
258
330
C
100
AcDbEntity
8
F.SilkS
100
AcDbLine
10
-72.625
20
-22.049500000000002
30
0
11
-73.625
21
-22.049500000000002
31
0
0
LINE
5
259
330
C
100
AcDbEntity
8
F.SilkS
100
AcDbLine
10
-73.625
20
-8.0495
30
0
11
-73.625
21
-9.0495
31
0
0
CIRCLE
5
25A
330
C
100
AcDbEntity
8
F.SilkS
100
AcDbCircle
10
-66.625
20
-15.0495
30
0
40
1.9939
0
CIRCLE
5
25B
330
C
100
AcDbEntity
8
F.SilkS
100
AcDbCircle
10
-71.705
20
-15.0495
30
0
40
0.8509
0
CIRCLE
5
25C
330
C
100
AcDbEntity
8
F.SilkS
100
AcDbCircle
10
-61.545
20
-15.0495
30
0
40
0.8509
0
LINE
5
25D
330
C
100
AcDbEntity
8
F.SilkS
100
AcDbLine
10
-57.125
20
-5.5495
30
0
11
-76.125
21
-5.5495
31
0
0
LINE
5
25E
330
C
100
AcDbEntity
8
F.SilkS
100
AcDbLine
10
-76.125
20
-5.5495
30
0
11
-76.125
21
-24.549500000000002
31
0
0
LINE
5
25F
330
C
100
AcDbEntity
8
F.SilkS
100
AcDbLine
10
-76.125
20
-24.549500000000002
30
0
11
-57.125
21
-24.549500000000002
31
0
0
LINE
5
260
330
C
100
AcDbEntity
8
F.SilkS
100
AcDbLine
10
-57.125
20
-24.549500000000002
30
0
11
-57.125
21
-5.5495
31
0
0
CIRCLE
5
261
330
C
100
AcDbEntity
8
F.SilkS
100
AcDbCircle
10
-69.165
20
-9.9695
30
0
40
1.5
0
CIRCLE
5
262
330
C
100
AcDbEntity
8
F.SilkS
100
AcDbCircle
10
-62.815
20
-12.5095
30
0
40
1.5
0
LWPOLYLINE
5
263
330
C
100
AcDbEntity
8
F.SilkS
62
1
100
AcDbPolyline
90
4
70
1
43
0
38
0
39
0
10
-58.265
20
-11.2595
10
-60.815
20
-11.2595
10
-60.815
20
-13.7595
10
-58.265
20
-13.7595
0
LWPOLYLINE
5
264
330
C
100
AcDbEntity
8
F.SilkS
62
1
100
AcDbPolyline
90
4
70
1
43
0
38
0
39
0
10
-71.19200000000001
20
-8.7195
10
-73.742
20
-8.7195
10
-73.742
20
-11.2195
10
-71.19200000000001
20
-11.2195
0
TEXT
5
265
330
C
100
AcDbEntity
8
F.SilkS
100
AcDbText
10
-85.625
20
-15.0495
30
0
40
1.27
1
S28
7
STANDARD
100
AcDbText
0
TEXT
5
266
330
C
100
AcDbEntity
8
F.SilkS
100
AcDbText
10
-85.625
20
-15.0495
30
0
40
1.27
1

7
STANDARD
100
AcDbText
0
LINE
5
267
330
C
100
AcDbEntity
8
F.SilkS
100
AcDbLine
10
-78.625
20
-9.0495
30
0
11
-78.625
21
-8.0495
31
0
0
LINE
5
268
330
C
100
AcDbEntity
8
F.SilkS
100
AcDbLine
10
-78.625
20
-22.049500000000002
30
0
11
-79.625
21
-22.049500000000002
31
0
0
LINE
5
269
330
C
100
AcDbEntity
8
F.SilkS
100
AcDbLine
10
-79.625
20
-8.0495
30
0
11
-78.625
21
-8.0495
31
0
0
LINE
5
26A
330
C
100
AcDbEntity
8
F.SilkS
100
AcDbLine
10
-78.625
20
-22.049500000000002
30
0
11
-78.625
21
-21.049500000000002
31
0
0
LINE
5
26B
330
C
100
AcDbEntity
8
F.SilkS
100
AcDbLine
10
-92.625
20
-21.049500000000002
30
0
11
-92.625
21
-22.049500000000002
31
0
0
LINE
5
26C
330
C
100
AcDbEntity
8
F.SilkS
100
AcDbLine
10
-92.625
20
-8.0495
30
0
11
-91.625
21
-8.0495
31
0
0
LINE
5
26D
330
C
100
AcDbEntity
8
F.SilkS
100
AcDbLine
10
-91.625
20
-22.049500000000002
30
0
11
-92.625
21
-22.049500000000002
31
0
0
LINE
5
26E
330
C
100
AcDbEntity
8
F.SilkS
100
AcDbLine
10
-92.625
20
-8.0495
30
0
11
-92.625
21
-9.0495
31
0
0
CIRCLE
5
26F
330
C
100
AcDbEntity
8
F.SilkS
100
AcDbCircle
10
-85.625
20
-15.0495
30
0
40
1.9939
0
CIRCLE
5
270
330
C
100
AcDbEntity
8
F.SilkS
100
AcDbCircle
10
-90.705
20
-15.0495
30
0
40
0.8509
0
CIRCLE
5
271
330
C
100
AcDbEntity
8
F.SilkS
100
AcDbCircle
10
-80.545
20
-15.0495
30
0
40
0.8509
0
LINE
5
272
330
C
100
AcDbEntity
8
F.SilkS
100
AcDbLine
10
-76.125
20
-5.5495
30
0
11
-95.125
21
-5.5495
31
0
0
LINE
5
273
330
C
100
AcDbEntity
8
F.SilkS
100
AcDbLine
10
-95.125
20
-5.5495
30
0
11
-95.125
21
-24.549500000000002
31
0
0
LINE
5
274
330
C
100
AcDbEntity
8
F.SilkS
100
AcDbLine
10
-95.125
20
-24.549500000000002
30
0
11
-76.125
21
-24.549500000000002
31
0
0
LINE
5
275
330
C
100
AcDbEntity
8
F.SilkS
100
AcDbLine
10
-76.125
20
-24.549500000000002
30
0
11
-76.125
21
-5.5495
31
0
0
CIRCLE
5
276
330
C
100
AcDbEntity
8
F.SilkS
100
AcDbCircle
10
-88.165
20
-9.9695
30
0
40
1.5
0
CIRCLE
5
277
330
C
100
AcDbEntity
8
F.SilkS
100
AcDbCircle
10
-81.815
20
-12.5095
30
0
40
1.5
0
LWPOLYLINE
5
278
330
C
100
AcDbEntity
8
F.SilkS
62
1
100
AcDbPolyline
90
4
70
1
43
0
38
0
39
0
10
-77.265
20
-11.2595
10
-79.815
20
-11.2595
10
-79.815
20
-13.7595
10
-77.265
20
-13.7595
0
LWPOLYLINE
5
279
330
C
100
AcDbEntity
8
F.SilkS
62
1
100
AcDbPolyline
90
4
70
1
43
0
38
0
39
0
10
-90.19200000000001
20
-8.7195
10
-92.742
20
-8.7195
10
-92.742
20
-11.2195
10
-90.19200000000001
20
-11.2195
0
TEXT
5
27A
330
C
100
AcDbEntity
8
F.SilkS
100
AcDbText
10
0
20
-5
30
0
40
1.27
1
D1
7
STANDARD
100
AcDbText
0
TEXT
5
27B
330
C
100
AcDbEntity
8
F.SilkS
100
AcDbText
10
0
20
-5
30
0
40
1.27
1

7
STANDARD
100
AcDbText
0
LINE
5
27C
330
C
100
AcDbEntity
8
F.SilkS
100
AcDbLine
10
-0.25
20
-5
30
0
11
-0.75
21
-5
31
0
0
LINE
5
27D
330
C
100
AcDbEntity
8
F.SilkS
100
AcDbLine
10
-0.25
20
-5.4
30
0
11
0.35
21
-5
31
0
0
LINE
5
27E
330
C
100
AcDbEntity
8
F.SilkS
100
AcDbLine
10
-0.25
20
-4.6
30
0
11
-0.25
21
-5.4
31
0
0
LINE
5
27F
330
C
100
AcDbEntity
8
F.SilkS
100
AcDbLine
10
0.35
20
-5
30
0
11
-0.25
21
-4.6
31
0
0
LINE
5
280
330
C
100
AcDbEntity
8
F.SilkS
100
AcDbLine
10
0.35
20
-5
30
0
11
0.35
21
-5.55
31
0
0
LINE
5
281
330
C
100
AcDbEntity
8
F.SilkS
100
AcDbLine
10
0.35
20
-5
30
0
11
0.35
21
-4.45
31
0
0
LINE
5
282
330
C
100
AcDbEntity
8
F.SilkS
100
AcDbLine
10
0.75
20
-5
30
0
11
0.35
21
-5
31
0
0
LINE
5
283
330
C
100
AcDbEntity
8
F.SilkS
100
AcDbLine
10
-0.25
20
-5
30
0
11
-0.75
21
-5
31
0
0
LINE
5
284
330
C
100
AcDbEntity
8
F.SilkS
100
AcDbLine
10
-0.25
20
-5.4
30
0
11
0.35
21
-5
31
0
0
LINE
5
285
330
C
100
AcDbEntity
8
F.SilkS
100
AcDbLine
10
-0.25
20
-4.6
30
0
11
-0.25
21
-5.4
31
0
0
LINE
5
286
330
C
100
AcDbEntity
8
F.SilkS
100
AcDbLine
10
0.35
20
-5
30
0
11
-0.25
21
-4.6
31
0
0
LINE
5
287
330
C
100
AcDbEntity
8
F.SilkS
100
AcDbLine
10
0.35
20
-5
30
0
11
0.35
21
-5.55
31
0
0
LINE
5
288
330
C
100
AcDbEntity
8
F.SilkS
100
AcDbLine
10
0.35
20
-5
30
0
11
0.35
21
-4.45
31
0
0
LINE
5
289
330
C
100
AcDbEntity
8
F.SilkS
100
AcDbLine
10
0.75
20
-5
30
0
11
0.35
21
-5
31
0
0
LWPOLYLINE
5
28A
330
C
100
AcDbEntity
8
F.SilkS
62
1
100
AcDbPolyline
90
4
70
1
43
0
38
0
39
0
10
2.1
20
-4.4
10
1.2
20
-4.4
10
1.2
20
-5.6
10
2.1
20
-5.6
0
LWPOLYLINE
5
28B
330
C
100
AcDbEntity
8
F.SilkS
62
1
100
AcDbPolyline
90
4
70
1
43
0
38
0
39
0
10
-1.2
20
-4.4
10
-2.1
20
-4.4
10
-2.1
20
-5.6
10
-1.2
20
-5.6
0
LWPOLYLINE
5
28C
330
C
100
AcDbEntity
8
F.SilkS
62
1
100
AcDbPolyline
90
4
70
1
43
0
38
0
39
0
10
2.1
20
-4.4
10
1.2
20
-4.4
10
1.2
20
-5.6
10
2.1
20
-5.6
0
LWPOLYLINE
5
28D
330
C
100
AcDbEntity
8
F.SilkS
62
1
100
AcDbPolyline
90
4
70
1
43
0
38
0
39
0
10
-1.2
20
-4.4
10
-2.1
20
-4.4
10
-2.1
20
-5.6
10
-1.2
20
-5.6
0
LWPOLYLINE
5
28E
330
C
100
AcDbEntity
8
F.SilkS
62
1
100
AcDbPolyline
90
4
70
1
43
0
38
0
39
0
10
4.699
20
-4.111
10
2.9210000000000003
20
-4.111
10
2.9210000000000003
20
-5.889
10
4.699
20
-5.889
0
CIRCLE
5
28F
330
C
100
AcDbEntity
8
F.SilkS
100
AcDbCircle
10
-3.81
20
-5
30
0
40
0.9525
0
TEXT
5
290
330
C
100
AcDbEntity
8
F.SilkS
100
AcDbText
10
0
20
14.05
30
0
40
1.27
1
D2
7
STANDARD
100
AcDbText
0
TEXT
5
291
330
C
100
AcDbEntity
8
F.SilkS
100
AcDbText
10
0
20
14.05
30
0
40
1.27
1

7
STANDARD
100
AcDbText
0
LINE
5
292
330
C
100
AcDbEntity
8
F.SilkS
100
AcDbLine
10
-0.25
20
14.05
30
0
11
-0.75
21
14.05
31
0
0
LINE
5
293
330
C
100
AcDbEntity
8
F.SilkS
100
AcDbLine
10
-0.25
20
13.65
30
0
11
0.35
21
14.05
31
0
0
LINE
5
294
330
C
100
AcDbEntity
8
F.SilkS
100
AcDbLine
10
-0.25
20
14.450000000000001
30
0
11
-0.25
21
13.65
31
0
0
LINE
5
295
330
C
100
AcDbEntity
8
F.SilkS
100
AcDbLine
10
0.35
20
14.05
30
0
11
-0.25
21
14.450000000000001
31
0
0
LINE
5
296
330
C
100
AcDbEntity
8
F.SilkS
100
AcDbLine
10
0.35
20
14.05
30
0
11
0.35
21
13.5
31
0
0
LINE
5
297
330
C
100
AcDbEntity
8
F.SilkS
100
AcDbLine
10
0.35
20
14.05
30
0
11
0.35
21
14.600000000000001
31
0
0
LINE
5
298
330
C
100
AcDbEntity
8
F.SilkS
100
AcDbLine
10
0.75
20
14.05
30
0
11
0.35
21
14.05
31
0
0
LINE
5
299
330
C
100
AcDbEntity
8
F.SilkS
100
AcDbLine
10
-0.25
20
14.05
30
0
11
-0.75
21
14.05
31
0
0
LINE
5
29A
330
C
100
AcDbEntity
8
F.SilkS
100
AcDbLine
10
-0.25
20
13.65
30
0
11
0.35
21
14.05
31
0
0
LINE
5
29B
330
C
100
AcDbEntity
8
F.SilkS
100
AcDbLine
10
-0.25
20
14.450000000000001
30
0
11
-0.25
21
13.65
31
0
0
LINE
5
29C
330
C
100
AcDbEntity
8
F.SilkS
100
AcDbLine
10
0.35
20
14.05
30
0
11
-0.25
21
14.450000000000001
31
0
0
LINE
5
29D
330
C
100
AcDbEntity
8
F.SilkS
100
AcDbLine
10
0.35
20
14.05
30
0
11
0.35
21
13.5
31
0
0
LINE
5
29E
330
C
100
AcDbEntity
8
F.SilkS
100
AcDbLine
10
0.35
20
14.05
30
0
11
0.35
21
14.600000000000001
31
0
0
LINE
5
29F
330
C
100
AcDbEntity
8
F.SilkS
100
AcDbLine
10
0.75
20
14.05
30
0
11
0.35
21
14.05
31
0
0
LWPOLYLINE
5
2A0
330
C
100
AcDbEntity
8
F.SilkS
62
1
100
AcDbPolyline
90
4
70
1
43
0
38
0
39
0
10
2.1
20
14.65
10
1.2
20
14.65
10
1.2
20
13.450000000000001
10
2.1
20
13.450000000000001
0
LWPOLYLINE
5
2A1
330
C
100
AcDbEntity
8
F.SilkS
62
1
100
AcDbPolyline
90
4
70
1
43
0
38
0
39
0
10
-1.2
20
14.65
10
-2.1
20
14.65
10
-2.1
20
13.450000000000001
10
-1.2
20
13.450000000000001
0
LWPOLYLINE
5
2A2
330
C
100
AcDbEntity
8
F.SilkS
62
1
100
AcDbPolyline
90
4
70
1
43
0
38
0
39
0
10
2.1
20
14.65
10
1.2
20
14.65
10
1.2
20
13.450000000000001
10
2.1
20
13.450000000000001
0
LWPOLYLINE
5
2A3
330
C
100
AcDbEntity
8
F.SilkS
62
1
100
AcDbPolyline
90
4
70
1
43
0
38
0
39
0
10
-1.2
20
14.65
10
-2.1
20
14.65
10
-2.1
20
13.450000000000001
10
-1.2
20
13.450000000000001
0
LWPOLYLINE
5
2A4
330
C
100
AcDbEntity
8
F.SilkS
62
1
100
AcDbPolyline
90
4
70
1
43
0
38
0
39
0
10
4.699
20
14.939
10
2.9210000000000003
20
14.939
10
2.9210000000000003
20
13.161000000000001
10
4.699
20
13.161000000000001
0
CIRCLE
5
2A5
330
C
100
AcDbEntity
8
F.SilkS
100
AcDbCircle
10
-3.81
20
14.05
30
0
40
0.9525
0
TEXT
5
2A6
330
C
100
AcDbEntity
8
F.SilkS
100
AcDbText
10
0
20
33.1
30
0
40
1.27
1
D3
7
STANDARD
100
AcDbText
0
TEXT
5
2A7
330
C
100
AcDbEntity
8
F.SilkS
100
AcDbText
10
0
20
33.1
30
0
40
1.27
1

7
STANDARD
100
AcDbText
0
LINE
5
2A8
330
C
100
AcDbEntity
8
F.SilkS
100
AcDbLine
10
-0.25
20
33.1
30
0
11
-0.75
21
33.1
31
0
0
LINE
5
2A9
330
C
100
AcDbEntity
8
F.SilkS
100
AcDbLine
10
-0.25
20
32.7
30
0
11
0.35
21
33.1
31
0
0
LINE
5
2AA
330
C
100
AcDbEntity
8
F.SilkS
100
AcDbLine
10
-0.25
20
33.5
30
0
11
-0.25
21
32.7
31
0
0
LINE
5
2AB
330
C
100
AcDbEntity
8
F.SilkS
100
AcDbLine
10
0.35
20
33.1
30
0
11
-0.25
21
33.5
31
0
0
LINE
5
2AC
330
C
100
AcDbEntity
8
F.SilkS
100
AcDbLine
10
0.35
20
33.1
30
0
11
0.35
21
32.550000000000004
31
0
0
LINE
5
2AD
330
C
100
AcDbEntity
8
F.SilkS
100
AcDbLine
10
0.35
20
33.1
30
0
11
0.35
21
33.65
31
0
0
LINE
5
2AE
330
C
100
AcDbEntity
8
F.SilkS
100
AcDbLine
10
0.75
20
33.1
30
0
11
0.35
21
33.1
31
0
0
LINE
5
2AF
330
C
100
AcDbEntity
8
F.SilkS
100
AcDbLine
10
-0.25
20
33.1
30
0
11
-0.75
21
33.1
31
0
0
LINE
5
2B0
330
C
100
AcDbEntity
8
F.SilkS
100
AcDbLine
10
-0.25
20
32.7
30
0
11
0.35
21
33.1
31
0
0
LINE
5
2B1
330
C
100
AcDbEntity
8
F.SilkS
100
AcDbLine
10
-0.25
20
33.5
30
0
11
-0.25
21
32.7
31
0
0
LINE
5
2B2
330
C
100
AcDbEntity
8
F.SilkS
100
AcDbLine
10
0.35
20
33.1
30
0
11
-0.25
21
33.5
31
0
0
LINE
5
2B3
330
C
100
AcDbEntity
8
F.SilkS
100
AcDbLine
10
0.35
20
33.1
30
0
11
0.35
21
32.550000000000004
31
0
0
LINE
5
2B4
330
C
100
AcDbEntity
8
F.SilkS
100
AcDbLine
10
0.35
20
33.1
30
0
11
0.35
21
33.65
31
0
0
LINE
5
2B5
330
C
100
AcDbEntity
8
F.SilkS
100
AcDbLine
10
0.75
20
33.1
30
0
11
0.35
21
33.1
31
0
0
LWPOLYLINE
5
2B6
330
C
100
AcDbEntity
8
F.SilkS
62
1
100
AcDbPolyline
90
4
70
1
43
0
38
0
39
0
10
2.1
20
33.7
10
1.2
20
33.7
10
1.2
20
32.5
10
2.1
20
32.5
0
LWPOLYLINE
5
2B7
330
C
100
AcDbEntity
8
F.SilkS
62
1
100
AcDbPolyline
90
4
70
1
43
0
38
0
39
0
10
-1.2
20
33.7
10
-2.1
20
33.7
10
-2.1
20
32.5
10
-1.2
20
32.5
0
LWPOLYLINE
5
2B8
330
C
100
AcDbEntity
8
F.SilkS
62
1
100
AcDbPolyline
90
4
70
1
43
0
38
0
39
0
10
2.1
20
33.7
10
1.2
20
33.7
10
1.2
20
32.5
10
2.1
20
32.5
0
LWPOLYLINE
5
2B9
330
C
100
AcDbEntity
8
F.SilkS
62
1
100
AcDbPolyline
90
4
70
1
43
0
38
0
39
0
10
-1.2
20
33.7
10
-2.1
20
33.7
10
-2.1
20
32.5
10
-1.2
20
32.5
0
LWPOLYLINE
5
2BA
330
C
100
AcDbEntity
8
F.SilkS
62
1
100
AcDbPolyline
90
4
70
1
43
0
38
0
39
0
10
4.699
20
33.989000000000004
10
2.9210000000000003
20
33.989000000000004
10
2.9210000000000003
20
32.211
10
4.699
20
32.211
0
CIRCLE
5
2BB
330
C
100
AcDbEntity
8
F.SilkS
100
AcDbCircle
10
-3.81
20
33.1
30
0
40
0.9525
0
TEXT
5
2BC
330
C
100
AcDbEntity
8
F.SilkS
100
AcDbText
10
0
20
52.150000000000006
30
0
40
1.27
1
D4
7
STANDARD
100
AcDbText
0
TEXT
5
2BD
330
C
100
AcDbEntity
8
F.SilkS
100
AcDbText
10
0
20
52.150000000000006
30
0
40
1.27
1

7
STANDARD
100
AcDbText
0
LINE
5
2BE
330
C
100
AcDbEntity
8
F.SilkS
100
AcDbLine
10
-0.25
20
52.150000000000006
30
0
11
-0.75
21
52.150000000000006
31
0
0
LINE
5
2BF
330
C
100
AcDbEntity
8
F.SilkS
100
AcDbLine
10
-0.25
20
51.75000000000001
30
0
11
0.35
21
52.150000000000006
31
0
0
LINE
5
2C0
330
C
100
AcDbEntity
8
F.SilkS
100
AcDbLine
10
-0.25
20
52.550000000000004
30
0
11
-0.25
21
51.75000000000001
31
0
0
LINE
5
2C1
330
C
100
AcDbEntity
8
F.SilkS
100
AcDbLine
10
0.35
20
52.150000000000006
30
0
11
-0.25
21
52.550000000000004
31
0
0
LINE
5
2C2
330
C
100
AcDbEntity
8
F.SilkS
100
AcDbLine
10
0.35
20
52.150000000000006
30
0
11
0.35
21
51.60000000000001
31
0
0
LINE
5
2C3
330
C
100
AcDbEntity
8
F.SilkS
100
AcDbLine
10
0.35
20
52.150000000000006
30
0
11
0.35
21
52.7
31
0
0
LINE
5
2C4
330
C
100
AcDbEntity
8
F.SilkS
100
AcDbLine
10
0.75
20
52.150000000000006
30
0
11
0.35
21
52.150000000000006
31
0
0
LINE
5
2C5
330
C
100
AcDbEntity
8
F.SilkS
100
AcDbLine
10
-0.25
20
52.150000000000006
30
0
11
-0.75
21
52.150000000000006
31
0
0
LINE
5
2C6
330
C
100
AcDbEntity
8
F.SilkS
100
AcDbLine
10
-0.25
20
51.75000000000001
30
0
11
0.35
21
52.150000000000006
31
0
0
LINE
5
2C7
330
C
100
AcDbEntity
8
F.SilkS
100
AcDbLine
10
-0.25
20
52.550000000000004
30
0
11
-0.25
21
51.75000000000001
31
0
0
LINE
5
2C8
330
C
100
AcDbEntity
8
F.SilkS
100
AcDbLine
10
0.35
20
52.150000000000006
30
0
11
-0.25
21
52.550000000000004
31
0
0
LINE
5
2C9
330
C
100
AcDbEntity
8
F.SilkS
100
AcDbLine
10
0.35
20
52.150000000000006
30
0
11
0.35
21
51.60000000000001
31
0
0
LINE
5
2CA
330
C
100
AcDbEntity
8
F.SilkS
100
AcDbLine
10
0.35
20
52.150000000000006
30
0
11
0.35
21
52.7
31
0
0
LINE
5
2CB
330
C
100
AcDbEntity
8
F.SilkS
100
AcDbLine
10
0.75
20
52.150000000000006
30
0
11
0.35
21
52.150000000000006
31
0
0
LWPOLYLINE
5
2CC
330
C
100
AcDbEntity
8
F.SilkS
62
1
100
AcDbPolyline
90
4
70
1
43
0
38
0
39
0
10
2.1
20
52.75000000000001
10
1.2
20
52.75000000000001
10
1.2
20
51.550000000000004
10
2.1
20
51.550000000000004
0
LWPOLYLINE
5
2CD
330
C
100
AcDbEntity
8
F.SilkS
62
1
100
AcDbPolyline
90
4
70
1
43
0
38
0
39
0
10
-1.2
20
52.75000000000001
10
-2.1
20
52.75000000000001
10
-2.1
20
51.550000000000004
10
-1.2
20
51.550000000000004
0
LWPOLYLINE
5
2CE
330
C
100
AcDbEntity
8
F.SilkS
62
1
100
AcDbPolyline
90
4
70
1
43
0
38
0
39
0
10
2.1
20
52.75000000000001
10
1.2
20
52.75000000000001
10
1.2
20
51.550000000000004
10
2.1
20
51.550000000000004
0
LWPOLYLINE
5
2CF
330
C
100
AcDbEntity
8
F.SilkS
62
1
100
AcDbPolyline
90
4
70
1
43
0
38
0
39
0
10
-1.2
20
52.75000000000001
10
-2.1
20
52.75000000000001
10
-2.1
20
51.550000000000004
10
-1.2
20
51.550000000000004
0
LWPOLYLINE
5
2D0
330
C
100
AcDbEntity
8
F.SilkS
62
1
100
AcDbPolyline
90
4
70
1
43
0
38
0
39
0
10
4.699
20
53.03900000000001
10
2.9210000000000003
20
53.03900000000001
10
2.9210000000000003
20
51.261
10
4.699
20
51.261
0
CIRCLE
5
2D1
330
C
100
AcDbEntity
8
F.SilkS
100
AcDbCircle
10
-3.81
20
52.150000000000006
30
0
40
0.9525
0
TEXT
5
2D2
330
C
100
AcDbEntity
8
F.SilkS
100
AcDbText
10
-19.05
20
-3.0949999999999998
30
0
40
1.27
1
D5
7
STANDARD
100
AcDbText
0
TEXT
5
2D3
330
C
100
AcDbEntity
8
F.SilkS
100
AcDbText
10
-19.05
20
-3.0949999999999998
30
0
40
1.27
1

7
STANDARD
100
AcDbText
0
LINE
5
2D4
330
C
100
AcDbEntity
8
F.SilkS
100
AcDbLine
10
-19.3
20
-3.0949999999999998
30
0
11
-19.8
21
-3.0949999999999998
31
0
0
LINE
5
2D5
330
C
100
AcDbEntity
8
F.SilkS
100
AcDbLine
10
-19.3
20
-3.4949999999999997
30
0
11
-18.7
21
-3.0949999999999998
31
0
0
LINE
5
2D6
330
C
100
AcDbEntity
8
F.SilkS
100
AcDbLine
10
-19.3
20
-2.695
30
0
11
-19.3
21
-3.4949999999999997
31
0
0
LINE
5
2D7
330
C
100
AcDbEntity
8
F.SilkS
100
AcDbLine
10
-18.7
20
-3.0949999999999998
30
0
11
-19.3
21
-2.695
31
0
0
LINE
5
2D8
330
C
100
AcDbEntity
8
F.SilkS
100
AcDbLine
10
-18.7
20
-3.0949999999999998
30
0
11
-18.7
21
-3.6449999999999996
31
0
0
LINE
5
2D9
330
C
100
AcDbEntity
8
F.SilkS
100
AcDbLine
10
-18.7
20
-3.0949999999999998
30
0
11
-18.7
21
-2.545
31
0
0
LINE
5
2DA
330
C
100
AcDbEntity
8
F.SilkS
100
AcDbLine
10
-18.3
20
-3.0949999999999998
30
0
11
-18.7
21
-3.0949999999999998
31
0
0
LINE
5
2DB
330
C
100
AcDbEntity
8
F.SilkS
100
AcDbLine
10
-19.3
20
-3.0949999999999998
30
0
11
-19.8
21
-3.0949999999999998
31
0
0
LINE
5
2DC
330
C
100
AcDbEntity
8
F.SilkS
100
AcDbLine
10
-19.3
20
-3.4949999999999997
30
0
11
-18.7
21
-3.0949999999999998
31
0
0
LINE
5
2DD
330
C
100
AcDbEntity
8
F.SilkS
100
AcDbLine
10
-19.3
20
-2.695
30
0
11
-19.3
21
-3.4949999999999997
31
0
0
LINE
5
2DE
330
C
100
AcDbEntity
8
F.SilkS
100
AcDbLine
10
-18.7
20
-3.0949999999999998
30
0
11
-19.3
21
-2.695
31
0
0
LINE
5
2DF
330
C
100
AcDbEntity
8
F.SilkS
100
AcDbLine
10
-18.7
20
-3.0949999999999998
30
0
11
-18.7
21
-3.6449999999999996
31
0
0
LINE
5
2E0
330
C
100
AcDbEntity
8
F.SilkS
100
AcDbLine
10
-18.7
20
-3.0949999999999998
30
0
11
-18.7
21
-2.545
31
0
0
LINE
5
2E1
330
C
100
AcDbEntity
8
F.SilkS
100
AcDbLine
10
-18.3
20
-3.0949999999999998
30
0
11
-18.7
21
-3.0949999999999998
31
0
0
LWPOLYLINE
5
2E2
330
C
100
AcDbEntity
8
F.SilkS
62
1
100
AcDbPolyline
90
4
70
1
43
0
38
0
39
0
10
-16.95
20
-2.4949999999999997
10
-17.85
20
-2.4949999999999997
10
-17.85
20
-3.695
10
-16.95
20
-3.695
0
LWPOLYLINE
5
2E3
330
C
100
AcDbEntity
8
F.SilkS
62
1
100
AcDbPolyline
90
4
70
1
43
0
38
0
39
0
10
-20.25
20
-2.4949999999999997
10
-21.150000000000002
20
-2.4949999999999997
10
-21.150000000000002
20
-3.695
10
-20.25
20
-3.695
0
LWPOLYLINE
5
2E4
330
C
100
AcDbEntity
8
F.SilkS
62
1
100
AcDbPolyline
90
4
70
1
43
0
38
0
39
0
10
-16.95
20
-2.4949999999999997
10
-17.85
20
-2.4949999999999997
10
-17.85
20
-3.695
10
-16.95
20
-3.695
0
LWPOLYLINE
5
2E5
330
C
100
AcDbEntity
8
F.SilkS
62
1
100
AcDbPolyline
90
4
70
1
43
0
38
0
39
0
10
-20.25
20
-2.4949999999999997
10
-21.150000000000002
20
-2.4949999999999997
10
-21.150000000000002
20
-3.695
10
-20.25
20
-3.695
0
LWPOLYLINE
5
2E6
330
C
100
AcDbEntity
8
F.SilkS
62
1
100
AcDbPolyline
90
4
70
1
43
0
38
0
39
0
10
-14.351
20
-2.2059999999999995
10
-16.129
20
-2.2059999999999995
10
-16.129
20
-3.984
10
-14.351
20
-3.984
0
CIRCLE
5
2E7
330
C
100
AcDbEntity
8
F.SilkS
100
AcDbCircle
10
-22.86
20
-3.0949999999999998
30
0
40
0.9525
0
TEXT
5
2E8
330
C
100
AcDbEntity
8
F.SilkS
100
AcDbText
10
-19.05
20
15.955000000000002
30
0
40
1.27
1
D6
7
STANDARD
100
AcDbText
0
TEXT
5
2E9
330
C
100
AcDbEntity
8
F.SilkS
100
AcDbText
10
-19.05
20
15.955000000000002
30
0
40
1.27
1

7
STANDARD
100
AcDbText
0
LINE
5
2EA
330
C
100
AcDbEntity
8
F.SilkS
100
AcDbLine
10
-19.3
20
15.955000000000002
30
0
11
-19.8
21
15.955000000000002
31
0
0
LINE
5
2EB
330
C
100
AcDbEntity
8
F.SilkS
100
AcDbLine
10
-19.3
20
15.555000000000001
30
0
11
-18.7
21
15.955000000000002
31
0
0
LINE
5
2EC
330
C
100
AcDbEntity
8
F.SilkS
100
AcDbLine
10
-19.3
20
16.355
30
0
11
-19.3
21
15.555000000000001
31
0
0
LINE
5
2ED
330
C
100
AcDbEntity
8
F.SilkS
100
AcDbLine
10
-18.7
20
15.955000000000002
30
0
11
-19.3
21
16.355
31
0
0
LINE
5
2EE
330
C
100
AcDbEntity
8
F.SilkS
100
AcDbLine
10
-18.7
20
15.955000000000002
30
0
11
-18.7
21
15.405000000000001
31
0
0
LINE
5
2EF
330
C
100
AcDbEntity
8
F.SilkS
100
AcDbLine
10
-18.7
20
15.955000000000002
30
0
11
-18.7
21
16.505000000000003
31
0
0
LINE
5
2F0
330
C
100
AcDbEntity
8
F.SilkS
100
AcDbLine
10
-18.3
20
15.955000000000002
30
0
11
-18.7
21
15.955000000000002
31
0
0
LINE
5
2F1
330
C
100
AcDbEntity
8
F.SilkS
100
AcDbLine
10
-19.3
20
15.955000000000002
30
0
11
-19.8
21
15.955000000000002
31
0
0
LINE
5
2F2
330
C
100
AcDbEntity
8
F.SilkS
100
AcDbLine
10
-19.3
20
15.555000000000001
30
0
11
-18.7
21
15.955000000000002
31
0
0
LINE
5
2F3
330
C
100
AcDbEntity
8
F.SilkS
100
AcDbLine
10
-19.3
20
16.355
30
0
11
-19.3
21
15.555000000000001
31
0
0
LINE
5
2F4
330
C
100
AcDbEntity
8
F.SilkS
100
AcDbLine
10
-18.7
20
15.955000000000002
30
0
11
-19.3
21
16.355
31
0
0
LINE
5
2F5
330
C
100
AcDbEntity
8
F.SilkS
100
AcDbLine
10
-18.7
20
15.955000000000002
30
0
11
-18.7
21
15.405000000000001
31
0
0
LINE
5
2F6
330
C
100
AcDbEntity
8
F.SilkS
100
AcDbLine
10
-18.7
20
15.955000000000002
30
0
11
-18.7
21
16.505000000000003
31
0
0
LINE
5
2F7
330
C
100
AcDbEntity
8
F.SilkS
100
AcDbLine
10
-18.3
20
15.955000000000002
30
0
11
-18.7
21
15.955000000000002
31
0
0
LWPOLYLINE
5
2F8
330
C
100
AcDbEntity
8
F.SilkS
62
1
100
AcDbPolyline
90
4
70
1
43
0
38
0
39
0
10
-16.95
20
16.555000000000003
10
-17.85
20
16.555000000000003
10
-17.85
20
15.355000000000002
10
-16.95
20
15.355000000000002
0
LWPOLYLINE
5
2F9
330
C
100
AcDbEntity
8
F.SilkS
62
1
100
AcDbPolyline
90
4
70
1
43
0
38
0
39
0
10
-20.25
20
16.555000000000003
10
-21.150000000000002
20
16.555000000000003
10
-21.150000000000002
20
15.355000000000002
10
-20.25
20
15.355000000000002
0
LWPOLYLINE
5
2FA
330
C
100
AcDbEntity
8
F.SilkS
62
1
100
AcDbPolyline
90
4
70
1
43
0
38
0
39
0
10
-16.95
20
16.555000000000003
10
-17.85
20
16.555000000000003
10
-17.85
20
15.355000000000002
10
-16.95
20
15.355000000000002
0
LWPOLYLINE
5
2FB
330
C
100
AcDbEntity
8
F.SilkS
62
1
100
AcDbPolyline
90
4
70
1
43
0
38
0
39
0
10
-20.25
20
16.555000000000003
10
-21.150000000000002
20
16.555000000000003
10
-21.150000000000002
20
15.355000000000002
10
-20.25
20
15.355000000000002
0
LWPOLYLINE
5
2FC
330
C
100
AcDbEntity
8
F.SilkS
62
1
100
AcDbPolyline
90
4
70
1
43
0
38
0
39
0
10
-14.351
20
16.844
10
-16.129
20
16.844
10
-16.129
20
15.066000000000003
10
-14.351
20
15.066000000000003
0
CIRCLE
5
2FD
330
C
100
AcDbEntity
8
F.SilkS
100
AcDbCircle
10
-22.86
20
15.955000000000002
30
0
40
0.9525
0
TEXT
5
2FE
330
C
100
AcDbEntity
8
F.SilkS
100
AcDbText
10
-19.05
20
35.005
30
0
40
1.27
1
D7
7
STANDARD
100
AcDbText
0
TEXT
5
2FF
330
C
100
AcDbEntity
8
F.SilkS
100
AcDbText
10
-19.05
20
35.005
30
0
40
1.27
1

7
STANDARD
100
AcDbText
0
LINE
5
300
330
C
100
AcDbEntity
8
F.SilkS
100
AcDbLine
10
-19.3
20
35.005
30
0
11
-19.8
21
35.005
31
0
0
LINE
5
301
330
C
100
AcDbEntity
8
F.SilkS
100
AcDbLine
10
-19.3
20
34.605000000000004
30
0
11
-18.7
21
35.005
31
0
0
LINE
5
302
330
C
100
AcDbEntity
8
F.SilkS
100
AcDbLine
10
-19.3
20
35.405
30
0
11
-19.3
21
34.605000000000004
31
0
0
LINE
5
303
330
C
100
AcDbEntity
8
F.SilkS
100
AcDbLine
10
-18.7
20
35.005
30
0
11
-19.3
21
35.405
31
0
0
LINE
5
304
330
C
100
AcDbEntity
8
F.SilkS
100
AcDbLine
10
-18.7
20
35.005
30
0
11
-18.7
21
34.455000000000005
31
0
0
LINE
5
305
330
C
100
AcDbEntity
8
F.SilkS
100
AcDbLine
10
-18.7
20
35.005
30
0
11
-18.7
21
35.555
31
0
0
LINE
5
306
330
C
100
AcDbEntity
8
F.SilkS
100
AcDbLine
10
-18.3
20
35.005
30
0
11
-18.7
21
35.005
31
0
0
LINE
5
307
330
C
100
AcDbEntity
8
F.SilkS
100
AcDbLine
10
-19.3
20
35.005
30
0
11
-19.8
21
35.005
31
0
0
LINE
5
308
330
C
100
AcDbEntity
8
F.SilkS
100
AcDbLine
10
-19.3
20
34.605000000000004
30
0
11
-18.7
21
35.005
31
0
0
LINE
5
309
330
C
100
AcDbEntity
8
F.SilkS
100
AcDbLine
10
-19.3
20
35.405
30
0
11
-19.3
21
34.605000000000004
31
0
0
LINE
5
30A
330
C
100
AcDbEntity
8
F.SilkS
100
AcDbLine
10
-18.7
20
35.005
30
0
11
-19.3
21
35.405
31
0
0
LINE
5
30B
330
C
100
AcDbEntity
8
F.SilkS
100
AcDbLine
10
-18.7
20
35.005
30
0
11
-18.7
21
34.455000000000005
31
0
0
LINE
5
30C
330
C
100
AcDbEntity
8
F.SilkS
100
AcDbLine
10
-18.7
20
35.005
30
0
11
-18.7
21
35.555
31
0
0
LINE
5
30D
330
C
100
AcDbEntity
8
F.SilkS
100
AcDbLine
10
-18.3
20
35.005
30
0
11
-18.7
21
35.005
31
0
0
LWPOLYLINE
5
30E
330
C
100
AcDbEntity
8
F.SilkS
62
1
100
AcDbPolyline
90
4
70
1
43
0
38
0
39
0
10
-16.95
20
35.605000000000004
10
-17.85
20
35.605000000000004
10
-17.85
20
34.405
10
-16.95
20
34.405
0
LWPOLYLINE
5
30F
330
C
100
AcDbEntity
8
F.SilkS
62
1
100
AcDbPolyline
90
4
70
1
43
0
38
0
39
0
10
-20.25
20
35.605000000000004
10
-21.150000000000002
20
35.605000000000004
10
-21.150000000000002
20
34.405
10
-20.25
20
34.405
0
LWPOLYLINE
5
310
330
C
100
AcDbEntity
8
F.SilkS
62
1
100
AcDbPolyline
90
4
70
1
43
0
38
0
39
0
10
-16.95
20
35.605000000000004
10
-17.85
20
35.605000000000004
10
-17.85
20
34.405
10
-16.95
20
34.405
0
LWPOLYLINE
5
311
330
C
100
AcDbEntity
8
F.SilkS
62
1
100
AcDbPolyline
90
4
70
1
43
0
38
0
39
0
10
-20.25
20
35.605000000000004
10
-21.150000000000002
20
35.605000000000004
10
-21.150000000000002
20
34.405
10
-20.25
20
34.405
0
LWPOLYLINE
5
312
330
C
100
AcDbEntity
8
F.SilkS
62
1
100
AcDbPolyline
90
4
70
1
43
0
38
0
39
0
10
-14.351
20
35.894000000000005
10
-16.129
20
35.894000000000005
10
-16.129
20
34.116
10
-14.351
20
34.116
0
CIRCLE
5
313
330
C
100
AcDbEntity
8
F.SilkS
100
AcDbCircle
10
-22.86
20
35.005
30
0
40
0.9525
0
TEXT
5
314
330
C
100
AcDbEntity
8
F.SilkS
100
AcDbText
10
-19.05
20
54.05500000000001
30
0
40
1.27
1
D8
7
STANDARD
100
AcDbText
0
TEXT
5
315
330
C
100
AcDbEntity
8
F.SilkS
100
AcDbText
10
-19.05
20
54.05500000000001
30
0
40
1.27
1

7
STANDARD
100
AcDbText
0
LINE
5
316
330
C
100
AcDbEntity
8
F.SilkS
100
AcDbLine
10
-19.3
20
54.05500000000001
30
0
11
-19.8
21
54.05500000000001
31
0
0
LINE
5
317
330
C
100
AcDbEntity
8
F.SilkS
100
AcDbLine
10
-19.3
20
53.65500000000001
30
0
11
-18.7
21
54.05500000000001
31
0
0
LINE
5
318
330
C
100
AcDbEntity
8
F.SilkS
100
AcDbLine
10
-19.3
20
54.455000000000005
30
0
11
-19.3
21
53.65500000000001
31
0
0
LINE
5
319
330
C
100
AcDbEntity
8
F.SilkS
100
AcDbLine
10
-18.7
20
54.05500000000001
30
0
11
-19.3
21
54.455000000000005
31
0
0
LINE
5
31A
330
C
100
AcDbEntity
8
F.SilkS
100
AcDbLine
10
-18.7
20
54.05500000000001
30
0
11
-18.7
21
53.50500000000001
31
0
0
LINE
5
31B
330
C
100
AcDbEntity
8
F.SilkS
100
AcDbLine
10
-18.7
20
54.05500000000001
30
0
11
-18.7
21
54.605000000000004
31
0
0
LINE
5
31C
330
C
100
AcDbEntity
8
F.SilkS
100
AcDbLine
10
-18.3
20
54.05500000000001
30
0
11
-18.7
21
54.05500000000001
31
0
0
LINE
5
31D
330
C
100
AcDbEntity
8
F.SilkS
100
AcDbLine
10
-19.3
20
54.05500000000001
30
0
11
-19.8
21
54.05500000000001
31
0
0
LINE
5
31E
330
C
100
AcDbEntity
8
F.SilkS
100
AcDbLine
10
-19.3
20
53.65500000000001
30
0
11
-18.7
21
54.05500000000001
31
0
0
LINE
5
31F
330
C
100
AcDbEntity
8
F.SilkS
100
AcDbLine
10
-19.3
20
54.455000000000005
30
0
11
-19.3
21
53.65500000000001
31
0
0
LINE
5
320
330
C
100
AcDbEntity
8
F.SilkS
100
AcDbLine
10
-18.7
20
54.05500000000001
30
0
11
-19.3
21
54.455000000000005
31
0
0
LINE
5
321
330
C
100
AcDbEntity
8
F.SilkS
100
AcDbLine
10
-18.7
20
54.05500000000001
30
0
11
-18.7
21
53.50500000000001
31
0
0
LINE
5
322
330
C
100
AcDbEntity
8
F.SilkS
100
AcDbLine
10
-18.7
20
54.05500000000001
30
0
11
-18.7
21
54.605000000000004
31
0
0
LINE
5
323
330
C
100
AcDbEntity
8
F.SilkS
100
AcDbLine
10
-18.3
20
54.05500000000001
30
0
11
-18.7
21
54.05500000000001
31
0
0
LWPOLYLINE
5
324
330
C
100
AcDbEntity
8
F.SilkS
62
1
100
AcDbPolyline
90
4
70
1
43
0
38
0
39
0
10
-16.95
20
54.65500000000001
10
-17.85
20
54.65500000000001
10
-17.85
20
53.455000000000005
10
-16.95
20
53.455000000000005
0
LWPOLYLINE
5
325
330
C
100
AcDbEntity
8
F.SilkS
62
1
100
AcDbPolyline
90
4
70
1
43
0
38
0
39
0
10
-20.25
20
54.65500000000001
10
-21.150000000000002
20
54.65500000000001
10
-21.150000000000002
20
53.455000000000005
10
-20.25
20
53.455000000000005
0
LWPOLYLINE
5
326
330
C
100
AcDbEntity
8
F.SilkS
62
1
100
AcDbPolyline
90
4
70
1
43
0
38
0
39
0
10
-16.95
20
54.65500000000001
10
-17.85
20
54.65500000000001
10
-17.85
20
53.455000000000005
10
-16.95
20
53.455000000000005
0
LWPOLYLINE
5
327
330
C
100
AcDbEntity
8
F.SilkS
62
1
100
AcDbPolyline
90
4
70
1
43
0
38
0
39
0
10
-20.25
20
54.65500000000001
10
-21.150000000000002
20
54.65500000000001
10
-21.150000000000002
20
53.455000000000005
10
-20.25
20
53.455000000000005
0
LWPOLYLINE
5
328
330
C
100
AcDbEntity
8
F.SilkS
62
1
100
AcDbPolyline
90
4
70
1
43
0
38
0
39
0
10
-14.351
20
54.94400000000001
10
-16.129
20
54.94400000000001
10
-16.129
20
53.166000000000004
10
-14.351
20
53.166000000000004
0
CIRCLE
5
329
330
C
100
AcDbEntity
8
F.SilkS
100
AcDbCircle
10
-22.86
20
54.05500000000001
30
0
40
0.9525
0
TEXT
5
32A
330
C
100
AcDbEntity
8
F.SilkS
100
AcDbText
10
-38.1
20
3.763
30
0
40
1.27
1
D9
7
STANDARD
100
AcDbText
0
TEXT
5
32B
330
C
100
AcDbEntity
8
F.SilkS
100
AcDbText
10
-38.1
20
3.763
30
0
40
1.27
1

7
STANDARD
100
AcDbText
0
LINE
5
32C
330
C
100
AcDbEntity
8
F.SilkS
100
AcDbLine
10
-38.35
20
3.763
30
0
11
-38.85
21
3.763
31
0
0
LINE
5
32D
330
C
100
AcDbEntity
8
F.SilkS
100
AcDbLine
10
-38.35
20
3.363
30
0
11
-37.75
21
3.763
31
0
0
LINE
5
32E
330
C
100
AcDbEntity
8
F.SilkS
100
AcDbLine
10
-38.35
20
4.163
30
0
11
-38.35
21
3.363
31
0
0
LINE
5
32F
330
C
100
AcDbEntity
8
F.SilkS
100
AcDbLine
10
-37.75
20
3.763
30
0
11
-38.35
21
4.163
31
0
0
LINE
5
330
330
C
100
AcDbEntity
8
F.SilkS
100
AcDbLine
10
-37.75
20
3.763
30
0
11
-37.75
21
3.213
31
0
0
LINE
5
331
330
C
100
AcDbEntity
8
F.SilkS
100
AcDbLine
10
-37.75
20
3.763
30
0
11
-37.75
21
4.313
31
0
0
LINE
5
332
330
C
100
AcDbEntity
8
F.SilkS
100
AcDbLine
10
-37.35
20
3.763
30
0
11
-37.75
21
3.763
31
0
0
LINE
5
333
330
C
100
AcDbEntity
8
F.SilkS
100
AcDbLine
10
-38.35
20
3.763
30
0
11
-38.85
21
3.763
31
0
0
LINE
5
334
330
C
100
AcDbEntity
8
F.SilkS
100
AcDbLine
10
-38.35
20
3.363
30
0
11
-37.75
21
3.763
31
0
0
LINE
5
335
330
C
100
AcDbEntity
8
F.SilkS
100
AcDbLine
10
-38.35
20
4.163
30
0
11
-38.35
21
3.363
31
0
0
LINE
5
336
330
C
100
AcDbEntity
8
F.SilkS
100
AcDbLine
10
-37.75
20
3.763
30
0
11
-38.35
21
4.163
31
0
0
LINE
5
337
330
C
100
AcDbEntity
8
F.SilkS
100
AcDbLine
10
-37.75
20
3.763
30
0
11
-37.75
21
3.213
31
0
0
LINE
5
338
330
C
100
AcDbEntity
8
F.SilkS
100
AcDbLine
10
-37.75
20
3.763
30
0
11
-37.75
21
4.313
31
0
0
LINE
5
339
330
C
100
AcDbEntity
8
F.SilkS
100
AcDbLine
10
-37.35
20
3.763
30
0
11
-37.75
21
3.763
31
0
0
LWPOLYLINE
5
33A
330
C
100
AcDbEntity
8
F.SilkS
62
1
100
AcDbPolyline
90
4
70
1
43
0
38
0
39
0
10
-36
20
4.3629999999999995
10
-36.9
20
4.3629999999999995
10
-36.9
20
3.163
10
-36
20
3.163
0
LWPOLYLINE
5
33B
330
C
100
AcDbEntity
8
F.SilkS
62
1
100
AcDbPolyline
90
4
70
1
43
0
38
0
39
0
10
-39.300000000000004
20
4.3629999999999995
10
-40.2
20
4.3629999999999995
10
-40.2
20
3.163
10
-39.300000000000004
20
3.163
0
LWPOLYLINE
5
33C
330
C
100
AcDbEntity
8
F.SilkS
62
1
100
AcDbPolyline
90
4
70
1
43
0
38
0
39
0
10
-36
20
4.3629999999999995
10
-36.9
20
4.3629999999999995
10
-36.9
20
3.163
10
-36
20
3.163
0
LWPOLYLINE
5
33D
330
C
100
AcDbEntity
8
F.SilkS
62
1
100
AcDbPolyline
90
4
70
1
43
0
38
0
39
0
10
-39.300000000000004
20
4.3629999999999995
10
-40.2
20
4.3629999999999995
10
-40.2
20
3.163
10
-39.300000000000004
20
3.163
0
LWPOLYLINE
5
33E
330
C
100
AcDbEntity
8
F.SilkS
62
1
100
AcDbPolyline
90
4
70
1
43
0
38
0
39
0
10
-33.401
20
4.652
10
-35.179
20
4.652
10
-35.179
20
2.8739999999999997
10
-33.401
20
2.8739999999999997
0
CIRCLE
5
33F
330
C
100
AcDbEntity
8
F.SilkS
100
AcDbCircle
10
-41.910000000000004
20
3.763
30
0
40
0.9525
0
TEXT
5
340
330
C
100
AcDbEntity
8
F.SilkS
100
AcDbText
10
-38.1
20
22.813000000000002
30
0
40
1.27
1
D10
7
STANDARD
100
AcDbText
0
TEXT
5
341
330
C
100
AcDbEntity
8
F.SilkS
100
AcDbText
10
-38.1
20
22.813000000000002
30
0
40
1.27
1

7
STANDARD
100
AcDbText
0
LINE
5
342
330
C
100
AcDbEntity
8
F.SilkS
100
AcDbLine
10
-38.35
20
22.813000000000002
30
0
11
-38.85
21
22.813000000000002
31
0
0
LINE
5
343
330
C
100
AcDbEntity
8
F.SilkS
100
AcDbLine
10
-38.35
20
22.413000000000004
30
0
11
-37.75
21
22.813000000000002
31
0
0
LINE
5
344
330
C
100
AcDbEntity
8
F.SilkS
100
AcDbLine
10
-38.35
20
23.213
30
0
11
-38.35
21
22.413000000000004
31
0
0
LINE
5
345
330
C
100
AcDbEntity
8
F.SilkS
100
AcDbLine
10
-37.75
20
22.813000000000002
30
0
11
-38.35
21
23.213
31
0
0
LINE
5
346
330
C
100
AcDbEntity
8
F.SilkS
100
AcDbLine
10
-37.75
20
22.813000000000002
30
0
11
-37.75
21
22.263
31
0
0
LINE
5
347
330
C
100
AcDbEntity
8
F.SilkS
100
AcDbLine
10
-37.75
20
22.813000000000002
30
0
11
-37.75
21
23.363000000000003
31
0
0
LINE
5
348
330
C
100
AcDbEntity
8
F.SilkS
100
AcDbLine
10
-37.35
20
22.813000000000002
30
0
11
-37.75
21
22.813000000000002
31
0
0
LINE
5
349
330
C
100
AcDbEntity
8
F.SilkS
100
AcDbLine
10
-38.35
20
22.813000000000002
30
0
11
-38.85
21
22.813000000000002
31
0
0
LINE
5
34A
330
C
100
AcDbEntity
8
F.SilkS
100
AcDbLine
10
-38.35
20
22.413000000000004
30
0
11
-37.75
21
22.813000000000002
31
0
0
LINE
5
34B
330
C
100
AcDbEntity
8
F.SilkS
100
AcDbLine
10
-38.35
20
23.213
30
0
11
-38.35
21
22.413000000000004
31
0
0
LINE
5
34C
330
C
100
AcDbEntity
8
F.SilkS
100
AcDbLine
10
-37.75
20
22.813000000000002
30
0
11
-38.35
21
23.213
31
0
0
LINE
5
34D
330
C
100
AcDbEntity
8
F.SilkS
100
AcDbLine
10
-37.75
20
22.813000000000002
30
0
11
-37.75
21
22.263
31
0
0
LINE
5
34E
330
C
100
AcDbEntity
8
F.SilkS
100
AcDbLine
10
-37.75
20
22.813000000000002
30
0
11
-37.75
21
23.363000000000003
31
0
0
LINE
5
34F
330
C
100
AcDbEntity
8
F.SilkS
100
AcDbLine
10
-37.35
20
22.813000000000002
30
0
11
-37.75
21
22.813000000000002
31
0
0
LWPOLYLINE
5
350
330
C
100
AcDbEntity
8
F.SilkS
62
1
100
AcDbPolyline
90
4
70
1
43
0
38
0
39
0
10
-36
20
23.413000000000004
10
-36.9
20
23.413000000000004
10
-36.9
20
22.213
10
-36
20
22.213
0
LWPOLYLINE
5
351
330
C
100
AcDbEntity
8
F.SilkS
62
1
100
AcDbPolyline
90
4
70
1
43
0
38
0
39
0
10
-39.300000000000004
20
23.413000000000004
10
-40.2
20
23.413000000000004
10
-40.2
20
22.213
10
-39.300000000000004
20
22.213
0
LWPOLYLINE
5
352
330
C
100
AcDbEntity
8
F.SilkS
62
1
100
AcDbPolyline
90
4
70
1
43
0
38
0
39
0
10
-36
20
23.413000000000004
10
-36.9
20
23.413000000000004
10
-36.9
20
22.213
10
-36
20
22.213
0
LWPOLYLINE
5
353
330
C
100
AcDbEntity
8
F.SilkS
62
1
100
AcDbPolyline
90
4
70
1
43
0
38
0
39
0
10
-39.300000000000004
20
23.413000000000004
10
-40.2
20
23.413000000000004
10
-40.2
20
22.213
10
-39.300000000000004
20
22.213
0
LWPOLYLINE
5
354
330
C
100
AcDbEntity
8
F.SilkS
62
1
100
AcDbPolyline
90
4
70
1
43
0
38
0
39
0
10
-33.401
20
23.702
10
-35.179
20
23.702
10
-35.179
20
21.924000000000003
10
-33.401
20
21.924000000000003
0
CIRCLE
5
355
330
C
100
AcDbEntity
8
F.SilkS
100
AcDbCircle
10
-41.910000000000004
20
22.813000000000002
30
0
40
0.9525
0
TEXT
5
356
330
C
100
AcDbEntity
8
F.SilkS
100
AcDbText
10
-38.1
20
41.863
30
0
40
1.27
1
D11
7
STANDARD
100
AcDbText
0
TEXT
5
357
330
C
100
AcDbEntity
8
F.SilkS
100
AcDbText
10
-38.1
20
41.863
30
0
40
1.27
1

7
STANDARD
100
AcDbText
0
LINE
5
358
330
C
100
AcDbEntity
8
F.SilkS
100
AcDbLine
10
-38.35
20
41.863
30
0
11
-38.85
21
41.863
31
0
0
LINE
5
359
330
C
100
AcDbEntity
8
F.SilkS
100
AcDbLine
10
-38.35
20
41.463
30
0
11
-37.75
21
41.863
31
0
0
LINE
5
35A
330
C
100
AcDbEntity
8
F.SilkS
100
AcDbLine
10
-38.35
20
42.263
30
0
11
-38.35
21
41.463
31
0
0
LINE
5
35B
330
C
100
AcDbEntity
8
F.SilkS
100
AcDbLine
10
-37.75
20
41.863
30
0
11
-38.35
21
42.263
31
0
0
LINE
5
35C
330
C
100
AcDbEntity
8
F.SilkS
100
AcDbLine
10
-37.75
20
41.863
30
0
11
-37.75
21
41.313
31
0
0
LINE
5
35D
330
C
100
AcDbEntity
8
F.SilkS
100
AcDbLine
10
-37.75
20
41.863
30
0
11
-37.75
21
42.413
31
0
0
LINE
5
35E
330
C
100
AcDbEntity
8
F.SilkS
100
AcDbLine
10
-37.35
20
41.863
30
0
11
-37.75
21
41.863
31
0
0
LINE
5
35F
330
C
100
AcDbEntity
8
F.SilkS
100
AcDbLine
10
-38.35
20
41.863
30
0
11
-38.85
21
41.863
31
0
0
LINE
5
360
330
C
100
AcDbEntity
8
F.SilkS
100
AcDbLine
10
-38.35
20
41.463
30
0
11
-37.75
21
41.863
31
0
0
LINE
5
361
330
C
100
AcDbEntity
8
F.SilkS
100
AcDbLine
10
-38.35
20
42.263
30
0
11
-38.35
21
41.463
31
0
0
LINE
5
362
330
C
100
AcDbEntity
8
F.SilkS
100
AcDbLine
10
-37.75
20
41.863
30
0
11
-38.35
21
42.263
31
0
0
LINE
5
363
330
C
100
AcDbEntity
8
F.SilkS
100
AcDbLine
10
-37.75
20
41.863
30
0
11
-37.75
21
41.313
31
0
0
LINE
5
364
330
C
100
AcDbEntity
8
F.SilkS
100
AcDbLine
10
-37.75
20
41.863
30
0
11
-37.75
21
42.413
31
0
0
LINE
5
365
330
C
100
AcDbEntity
8
F.SilkS
100
AcDbLine
10
-37.35
20
41.863
30
0
11
-37.75
21
41.863
31
0
0
LWPOLYLINE
5
366
330
C
100
AcDbEntity
8
F.SilkS
62
1
100
AcDbPolyline
90
4
70
1
43
0
38
0
39
0
10
-36
20
42.463
10
-36.9
20
42.463
10
-36.9
20
41.263
10
-36
20
41.263
0
LWPOLYLINE
5
367
330
C
100
AcDbEntity
8
F.SilkS
62
1
100
AcDbPolyline
90
4
70
1
43
0
38
0
39
0
10
-39.300000000000004
20
42.463
10
-40.2
20
42.463
10
-40.2
20
41.263
10
-39.300000000000004
20
41.263
0
LWPOLYLINE
5
368
330
C
100
AcDbEntity
8
F.SilkS
62
1
100
AcDbPolyline
90
4
70
1
43
0
38
0
39
0
10
-36
20
42.463
10
-36.9
20
42.463
10
-36.9
20
41.263
10
-36
20
41.263
0
LWPOLYLINE
5
369
330
C
100
AcDbEntity
8
F.SilkS
62
1
100
AcDbPolyline
90
4
70
1
43
0
38
0
39
0
10
-39.300000000000004
20
42.463
10
-40.2
20
42.463
10
-40.2
20
41.263
10
-39.300000000000004
20
41.263
0
LWPOLYLINE
5
36A
330
C
100
AcDbEntity
8
F.SilkS
62
1
100
AcDbPolyline
90
4
70
1
43
0
38
0
39
0
10
-33.401
20
42.752
10
-35.179
20
42.752
10
-35.179
20
40.974
10
-33.401
20
40.974
0
CIRCLE
5
36B
330
C
100
AcDbEntity
8
F.SilkS
100
AcDbCircle
10
-41.910000000000004
20
41.863
30
0
40
0.9525
0
TEXT
5
36C
330
C
100
AcDbEntity
8
F.SilkS
100
AcDbText
10
-38.1
20
60.913
30
0
40
1.27
1
D12
7
STANDARD
100
AcDbText
0
TEXT
5
36D
330
C
100
AcDbEntity
8
F.SilkS
100
AcDbText
10
-38.1
20
60.913
30
0
40
1.27
1

7
STANDARD
100
AcDbText
0
LINE
5
36E
330
C
100
AcDbEntity
8
F.SilkS
100
AcDbLine
10
-38.35
20
60.913
30
0
11
-38.85
21
60.913
31
0
0
LINE
5
36F
330
C
100
AcDbEntity
8
F.SilkS
100
AcDbLine
10
-38.35
20
60.513
30
0
11
-37.75
21
60.913
31
0
0
LINE
5
370
330
C
100
AcDbEntity
8
F.SilkS
100
AcDbLine
10
-38.35
20
61.312999999999995
30
0
11
-38.35
21
60.513
31
0
0
LINE
5
371
330
C
100
AcDbEntity
8
F.SilkS
100
AcDbLine
10
-37.75
20
60.913
30
0
11
-38.35
21
61.312999999999995
31
0
0
LINE
5
372
330
C
100
AcDbEntity
8
F.SilkS
100
AcDbLine
10
-37.75
20
60.913
30
0
11
-37.75
21
60.363
31
0
0
LINE
5
373
330
C
100
AcDbEntity
8
F.SilkS
100
AcDbLine
10
-37.75
20
60.913
30
0
11
-37.75
21
61.462999999999994
31
0
0
LINE
5
374
330
C
100
AcDbEntity
8
F.SilkS
100
AcDbLine
10
-37.35
20
60.913
30
0
11
-37.75
21
60.913
31
0
0
LINE
5
375
330
C
100
AcDbEntity
8
F.SilkS
100
AcDbLine
10
-38.35
20
60.913
30
0
11
-38.85
21
60.913
31
0
0
LINE
5
376
330
C
100
AcDbEntity
8
F.SilkS
100
AcDbLine
10
-38.35
20
60.513
30
0
11
-37.75
21
60.913
31
0
0
LINE
5
377
330
C
100
AcDbEntity
8
F.SilkS
100
AcDbLine
10
-38.35
20
61.312999999999995
30
0
11
-38.35
21
60.513
31
0
0
LINE
5
378
330
C
100
AcDbEntity
8
F.SilkS
100
AcDbLine
10
-37.75
20
60.913
30
0
11
-38.35
21
61.312999999999995
31
0
0
LINE
5
379
330
C
100
AcDbEntity
8
F.SilkS
100
AcDbLine
10
-37.75
20
60.913
30
0
11
-37.75
21
60.363
31
0
0
LINE
5
37A
330
C
100
AcDbEntity
8
F.SilkS
100
AcDbLine
10
-37.75
20
60.913
30
0
11
-37.75
21
61.462999999999994
31
0
0
LINE
5
37B
330
C
100
AcDbEntity
8
F.SilkS
100
AcDbLine
10
-37.35
20
60.913
30
0
11
-37.75
21
60.913
31
0
0
LWPOLYLINE
5
37C
330
C
100
AcDbEntity
8
F.SilkS
62
1
100
AcDbPolyline
90
4
70
1
43
0
38
0
39
0
10
-36
20
61.513
10
-36.9
20
61.513
10
-36.9
20
60.312999999999995
10
-36
20
60.312999999999995
0
LWPOLYLINE
5
37D
330
C
100
AcDbEntity
8
F.SilkS
62
1
100
AcDbPolyline
90
4
70
1
43
0
38
0
39
0
10
-39.300000000000004
20
61.513
10
-40.2
20
61.513
10
-40.2
20
60.312999999999995
10
-39.300000000000004
20
60.312999999999995
0
LWPOLYLINE
5
37E
330
C
100
AcDbEntity
8
F.SilkS
62
1
100
AcDbPolyline
90
4
70
1
43
0
38
0
39
0
10
-36
20
61.513
10
-36.9
20
61.513
10
-36.9
20
60.312999999999995
10
-36
20
60.312999999999995
0
LWPOLYLINE
5
37F
330
C
100
AcDbEntity
8
F.SilkS
62
1
100
AcDbPolyline
90
4
70
1
43
0
38
0
39
0
10
-39.300000000000004
20
61.513
10
-40.2
20
61.513
10
-40.2
20
60.312999999999995
10
-39.300000000000004
20
60.312999999999995
0
LWPOLYLINE
5
380
330
C
100
AcDbEntity
8
F.SilkS
62
1
100
AcDbPolyline
90
4
70
1
43
0
38
0
39
0
10
-33.401
20
61.802
10
-35.179
20
61.802
10
-35.179
20
60.023999999999994
10
-33.401
20
60.023999999999994
0
CIRCLE
5
381
330
C
100
AcDbEntity
8
F.SilkS
100
AcDbCircle
10
-41.910000000000004
20
60.913
30
0
40
0.9525
0
TEXT
5
382
330
C
100
AcDbEntity
8
F.SilkS
100
AcDbText
10
-57.15
20
8.5255
30
0
40
1.27
1
D13
7
STANDARD
100
AcDbText
0
TEXT
5
383
330
C
100
AcDbEntity
8
F.SilkS
100
AcDbText
10
-57.15
20
8.5255
30
0
40
1.27
1

7
STANDARD
100
AcDbText
0
LINE
5
384
330
C
100
AcDbEntity
8
F.SilkS
100
AcDbLine
10
-57.4
20
8.5255
30
0
11
-57.9
21
8.5255
31
0
0
LINE
5
385
330
C
100
AcDbEntity
8
F.SilkS
100
AcDbLine
10
-57.4
20
8.125499999999999
30
0
11
-56.8
21
8.5255
31
0
0
LINE
5
386
330
C
100
AcDbEntity
8
F.SilkS
100
AcDbLine
10
-57.4
20
8.9255
30
0
11
-57.4
21
8.125499999999999
31
0
0
LINE
5
387
330
C
100
AcDbEntity
8
F.SilkS
100
AcDbLine
10
-56.8
20
8.5255
30
0
11
-57.4
21
8.9255
31
0
0
LINE
5
388
330
C
100
AcDbEntity
8
F.SilkS
100
AcDbLine
10
-56.8
20
8.5255
30
0
11
-56.8
21
7.975499999999999
31
0
0
LINE
5
389
330
C
100
AcDbEntity
8
F.SilkS
100
AcDbLine
10
-56.8
20
8.5255
30
0
11
-56.8
21
9.0755
31
0
0
LINE
5
38A
330
C
100
AcDbEntity
8
F.SilkS
100
AcDbLine
10
-56.4
20
8.5255
30
0
11
-56.8
21
8.5255
31
0
0
LINE
5
38B
330
C
100
AcDbEntity
8
F.SilkS
100
AcDbLine
10
-57.4
20
8.5255
30
0
11
-57.9
21
8.5255
31
0
0
LINE
5
38C
330
C
100
AcDbEntity
8
F.SilkS
100
AcDbLine
10
-57.4
20
8.125499999999999
30
0
11
-56.8
21
8.5255
31
0
0
LINE
5
38D
330
C
100
AcDbEntity
8
F.SilkS
100
AcDbLine
10
-57.4
20
8.9255
30
0
11
-57.4
21
8.125499999999999
31
0
0
LINE
5
38E
330
C
100
AcDbEntity
8
F.SilkS
100
AcDbLine
10
-56.8
20
8.5255
30
0
11
-57.4
21
8.9255
31
0
0
LINE
5
38F
330
C
100
AcDbEntity
8
F.SilkS
100
AcDbLine
10
-56.8
20
8.5255
30
0
11
-56.8
21
7.975499999999999
31
0
0
LINE
5
390
330
C
100
AcDbEntity
8
F.SilkS
100
AcDbLine
10
-56.8
20
8.5255
30
0
11
-56.8
21
9.0755
31
0
0
LINE
5
391
330
C
100
AcDbEntity
8
F.SilkS
100
AcDbLine
10
-56.4
20
8.5255
30
0
11
-56.8
21
8.5255
31
0
0
LWPOLYLINE
5
392
330
C
100
AcDbEntity
8
F.SilkS
62
1
100
AcDbPolyline
90
4
70
1
43
0
38
0
39
0
10
-55.05
20
9.125499999999999
10
-55.949999999999996
20
9.125499999999999
10
-55.949999999999996
20
7.9254999999999995
10
-55.05
20
7.9254999999999995
0
LWPOLYLINE
5
393
330
C
100
AcDbEntity
8
F.SilkS
62
1
100
AcDbPolyline
90
4
70
1
43
0
38
0
39
0
10
-58.35
20
9.125499999999999
10
-59.25
20
9.125499999999999
10
-59.25
20
7.9254999999999995
10
-58.35
20
7.9254999999999995
0
LWPOLYLINE
5
394
330
C
100
AcDbEntity
8
F.SilkS
62
1
100
AcDbPolyline
90
4
70
1
43
0
38
0
39
0
10
-55.05
20
9.125499999999999
10
-55.949999999999996
20
9.125499999999999
10
-55.949999999999996
20
7.9254999999999995
10
-55.05
20
7.9254999999999995
0
LWPOLYLINE
5
395
330
C
100
AcDbEntity
8
F.SilkS
62
1
100
AcDbPolyline
90
4
70
1
43
0
38
0
39
0
10
-58.35
20
9.125499999999999
10
-59.25
20
9.125499999999999
10
-59.25
20
7.9254999999999995
10
-58.35
20
7.9254999999999995
0
LWPOLYLINE
5
396
330
C
100
AcDbEntity
8
F.SilkS
62
1
100
AcDbPolyline
90
4
70
1
43
0
38
0
39
0
10
-52.451
20
9.414499999999999
10
-54.229
20
9.414499999999999
10
-54.229
20
7.636499999999999
10
-52.451
20
7.636499999999999
0
CIRCLE
5
397
330
C
100
AcDbEntity
8
F.SilkS
100
AcDbCircle
10
-60.96
20
8.5255
30
0
40
0.9525
0
TEXT
5
398
330
C
100
AcDbEntity
8
F.SilkS
100
AcDbText
10
-57.15
20
27.575499999999998
30
0
40
1.27
1
D14
7
STANDARD
100
AcDbText
0
TEXT
5
399
330
C
100
AcDbEntity
8
F.SilkS
100
AcDbText
10
-57.15
20
27.575499999999998
30
0
40
1.27
1

7
STANDARD
100
AcDbText
0
LINE
5
39A
330
C
100
AcDbEntity
8
F.SilkS
100
AcDbLine
10
-57.4
20
27.575499999999998
30
0
11
-57.9
21
27.575499999999998
31
0
0
LINE
5
39B
330
C
100
AcDbEntity
8
F.SilkS
100
AcDbLine
10
-57.4
20
27.1755
30
0
11
-56.8
21
27.575499999999998
31
0
0
LINE
5
39C
330
C
100
AcDbEntity
8
F.SilkS
100
AcDbLine
10
-57.4
20
27.975499999999997
30
0
11
-57.4
21
27.1755
31
0
0
LINE
5
39D
330
C
100
AcDbEntity
8
F.SilkS
100
AcDbLine
10
-56.8
20
27.575499999999998
30
0
11
-57.4
21
27.975499999999997
31
0
0
LINE
5
39E
330
C
100
AcDbEntity
8
F.SilkS
100
AcDbLine
10
-56.8
20
27.575499999999998
30
0
11
-56.8
21
27.025499999999997
31
0
0
LINE
5
39F
330
C
100
AcDbEntity
8
F.SilkS
100
AcDbLine
10
-56.8
20
27.575499999999998
30
0
11
-56.8
21
28.1255
31
0
0
LINE
5
3A0
330
C
100
AcDbEntity
8
F.SilkS
100
AcDbLine
10
-56.4
20
27.575499999999998
30
0
11
-56.8
21
27.575499999999998
31
0
0
LINE
5
3A1
330
C
100
AcDbEntity
8
F.SilkS
100
AcDbLine
10
-57.4
20
27.575499999999998
30
0
11
-57.9
21
27.575499999999998
31
0
0
LINE
5
3A2
330
C
100
AcDbEntity
8
F.SilkS
100
AcDbLine
10
-57.4
20
27.1755
30
0
11
-56.8
21
27.575499999999998
31
0
0
LINE
5
3A3
330
C
100
AcDbEntity
8
F.SilkS
100
AcDbLine
10
-57.4
20
27.975499999999997
30
0
11
-57.4
21
27.1755
31
0
0
LINE
5
3A4
330
C
100
AcDbEntity
8
F.SilkS
100
AcDbLine
10
-56.8
20
27.575499999999998
30
0
11
-57.4
21
27.975499999999997
31
0
0
LINE
5
3A5
330
C
100
AcDbEntity
8
F.SilkS
100
AcDbLine
10
-56.8
20
27.575499999999998
30
0
11
-56.8
21
27.025499999999997
31
0
0
LINE
5
3A6
330
C
100
AcDbEntity
8
F.SilkS
100
AcDbLine
10
-56.8
20
27.575499999999998
30
0
11
-56.8
21
28.1255
31
0
0
LINE
5
3A7
330
C
100
AcDbEntity
8
F.SilkS
100
AcDbLine
10
-56.4
20
27.575499999999998
30
0
11
-56.8
21
27.575499999999998
31
0
0
LWPOLYLINE
5
3A8
330
C
100
AcDbEntity
8
F.SilkS
62
1
100
AcDbPolyline
90
4
70
1
43
0
38
0
39
0
10
-55.05
20
28.1755
10
-55.949999999999996
20
28.1755
10
-55.949999999999996
20
26.975499999999997
10
-55.05
20
26.975499999999997
0
LWPOLYLINE
5
3A9
330
C
100
AcDbEntity
8
F.SilkS
62
1
100
AcDbPolyline
90
4
70
1
43
0
38
0
39
0
10
-58.35
20
28.1755
10
-59.25
20
28.1755
10
-59.25
20
26.975499999999997
10
-58.35
20
26.975499999999997
0
LWPOLYLINE
5
3AA
330
C
100
AcDbEntity
8
F.SilkS
62
1
100
AcDbPolyline
90
4
70
1
43
0
38
0
39
0
10
-55.05
20
28.1755
10
-55.949999999999996
20
28.1755
10
-55.949999999999996
20
26.975499999999997
10
-55.05
20
26.975499999999997
0
LWPOLYLINE
5
3AB
330
C
100
AcDbEntity
8
F.SilkS
62
1
100
AcDbPolyline
90
4
70
1
43
0
38
0
39
0
10
-58.35
20
28.1755
10
-59.25
20
28.1755
10
-59.25
20
26.975499999999997
10
-58.35
20
26.975499999999997
0
LWPOLYLINE
5
3AC
330
C
100
AcDbEntity
8
F.SilkS
62
1
100
AcDbPolyline
90
4
70
1
43
0
38
0
39
0
10
-52.451
20
28.464499999999997
10
-54.229
20
28.464499999999997
10
-54.229
20
26.6865
10
-52.451
20
26.6865
0
CIRCLE
5
3AD
330
C
100
AcDbEntity
8
F.SilkS
100
AcDbCircle
10
-60.96
20
27.575499999999998
30
0
40
0.9525
0
TEXT
5
3AE
330
C
100
AcDbEntity
8
F.SilkS
100
AcDbText
10
-57.15
20
46.6255
30
0
40
1.27
1
D15
7
STANDARD
100
AcDbText
0
TEXT
5
3AF
330
C
100
AcDbEntity
8
F.SilkS
100
AcDbText
10
-57.15
20
46.6255
30
0
40
1.27
1

7
STANDARD
100
AcDbText
0
LINE
5
3B0
330
C
100
AcDbEntity
8
F.SilkS
100
AcDbLine
10
-57.4
20
46.6255
30
0
11
-57.9
21
46.6255
31
0
0
LINE
5
3B1
330
C
100
AcDbEntity
8
F.SilkS
100
AcDbLine
10
-57.4
20
46.225500000000004
30
0
11
-56.8
21
46.6255
31
0
0
LINE
5
3B2
330
C
100
AcDbEntity
8
F.SilkS
100
AcDbLine
10
-57.4
20
47.0255
30
0
11
-57.4
21
46.225500000000004
31
0
0
LINE
5
3B3
330
C
100
AcDbEntity
8
F.SilkS
100
AcDbLine
10
-56.8
20
46.6255
30
0
11
-57.4
21
47.0255
31
0
0
LINE
5
3B4
330
C
100
AcDbEntity
8
F.SilkS
100
AcDbLine
10
-56.8
20
46.6255
30
0
11
-56.8
21
46.075500000000005
31
0
0
LINE
5
3B5
330
C
100
AcDbEntity
8
F.SilkS
100
AcDbLine
10
-56.8
20
46.6255
30
0
11
-56.8
21
47.1755
31
0
0
LINE
5
3B6
330
C
100
AcDbEntity
8
F.SilkS
100
AcDbLine
10
-56.4
20
46.6255
30
0
11
-56.8
21
46.6255
31
0
0
LINE
5
3B7
330
C
100
AcDbEntity
8
F.SilkS
100
AcDbLine
10
-57.4
20
46.6255
30
0
11
-57.9
21
46.6255
31
0
0
LINE
5
3B8
330
C
100
AcDbEntity
8
F.SilkS
100
AcDbLine
10
-57.4
20
46.225500000000004
30
0
11
-56.8
21
46.6255
31
0
0
LINE
5
3B9
330
C
100
AcDbEntity
8
F.SilkS
100
AcDbLine
10
-57.4
20
47.0255
30
0
11
-57.4
21
46.225500000000004
31
0
0
LINE
5
3BA
330
C
100
AcDbEntity
8
F.SilkS
100
AcDbLine
10
-56.8
20
46.6255
30
0
11
-57.4
21
47.0255
31
0
0
LINE
5
3BB
330
C
100
AcDbEntity
8
F.SilkS
100
AcDbLine
10
-56.8
20
46.6255
30
0
11
-56.8
21
46.075500000000005
31
0
0
LINE
5
3BC
330
C
100
AcDbEntity
8
F.SilkS
100
AcDbLine
10
-56.8
20
46.6255
30
0
11
-56.8
21
47.1755
31
0
0
LINE
5
3BD
330
C
100
AcDbEntity
8
F.SilkS
100
AcDbLine
10
-56.4
20
46.6255
30
0
11
-56.8
21
46.6255
31
0
0
LWPOLYLINE
5
3BE
330
C
100
AcDbEntity
8
F.SilkS
62
1
100
AcDbPolyline
90
4
70
1
43
0
38
0
39
0
10
-55.05
20
47.225500000000004
10
-55.949999999999996
20
47.225500000000004
10
-55.949999999999996
20
46.0255
10
-55.05
20
46.0255
0
LWPOLYLINE
5
3BF
330
C
100
AcDbEntity
8
F.SilkS
62
1
100
AcDbPolyline
90
4
70
1
43
0
38
0
39
0
10
-58.35
20
47.225500000000004
10
-59.25
20
47.225500000000004
10
-59.25
20
46.0255
10
-58.35
20
46.0255
0
LWPOLYLINE
5
3C0
330
C
100
AcDbEntity
8
F.SilkS
62
1
100
AcDbPolyline
90
4
70
1
43
0
38
0
39
0
10
-55.05
20
47.225500000000004
10
-55.949999999999996
20
47.225500000000004
10
-55.949999999999996
20
46.0255
10
-55.05
20
46.0255
0
LWPOLYLINE
5
3C1
330
C
100
AcDbEntity
8
F.SilkS
62
1
100
AcDbPolyline
90
4
70
1
43
0
38
0
39
0
10
-58.35
20
47.225500000000004
10
-59.25
20
47.225500000000004
10
-59.25
20
46.0255
10
-58.35
20
46.0255
0
LWPOLYLINE
5
3C2
330
C
100
AcDbEntity
8
F.SilkS
62
1
100
AcDbPolyline
90
4
70
1
43
0
38
0
39
0
10
-52.451
20
47.514500000000005
10
-54.229
20
47.514500000000005
10
-54.229
20
45.7365
10
-52.451
20
45.7365
0
CIRCLE
5
3C3
330
C
100
AcDbEntity
8
F.SilkS
100
AcDbCircle
10
-60.96
20
46.6255
30
0
40
0.9525
0
TEXT
5
3C4
330
C
100
AcDbEntity
8
F.SilkS
100
AcDbText
10
-57.15
20
65.6755
30
0
40
1.27
1
D16
7
STANDARD
100
AcDbText
0
TEXT
5
3C5
330
C
100
AcDbEntity
8
F.SilkS
100
AcDbText
10
-57.15
20
65.6755
30
0
40
1.27
1

7
STANDARD
100
AcDbText
0
LINE
5
3C6
330
C
100
AcDbEntity
8
F.SilkS
100
AcDbLine
10
-57.4
20
65.6755
30
0
11
-57.9
21
65.6755
31
0
0
LINE
5
3C7
330
C
100
AcDbEntity
8
F.SilkS
100
AcDbLine
10
-57.4
20
65.2755
30
0
11
-56.8
21
65.6755
31
0
0
LINE
5
3C8
330
C
100
AcDbEntity
8
F.SilkS
100
AcDbLine
10
-57.4
20
66.0755
30
0
11
-57.4
21
65.2755
31
0
0
LINE
5
3C9
330
C
100
AcDbEntity
8
F.SilkS
100
AcDbLine
10
-56.8
20
65.6755
30
0
11
-57.4
21
66.0755
31
0
0
LINE
5
3CA
330
C
100
AcDbEntity
8
F.SilkS
100
AcDbLine
10
-56.8
20
65.6755
30
0
11
-56.8
21
65.1255
31
0
0
LINE
5
3CB
330
C
100
AcDbEntity
8
F.SilkS
100
AcDbLine
10
-56.8
20
65.6755
30
0
11
-56.8
21
66.2255
31
0
0
LINE
5
3CC
330
C
100
AcDbEntity
8
F.SilkS
100
AcDbLine
10
-56.4
20
65.6755
30
0
11
-56.8
21
65.6755
31
0
0
LINE
5
3CD
330
C
100
AcDbEntity
8
F.SilkS
100
AcDbLine
10
-57.4
20
65.6755
30
0
11
-57.9
21
65.6755
31
0
0
LINE
5
3CE
330
C
100
AcDbEntity
8
F.SilkS
100
AcDbLine
10
-57.4
20
65.2755
30
0
11
-56.8
21
65.6755
31
0
0
LINE
5
3CF
330
C
100
AcDbEntity
8
F.SilkS
100
AcDbLine
10
-57.4
20
66.0755
30
0
11
-57.4
21
65.2755
31
0
0
LINE
5
3D0
330
C
100
AcDbEntity
8
F.SilkS
100
AcDbLine
10
-56.8
20
65.6755
30
0
11
-57.4
21
66.0755
31
0
0
LINE
5
3D1
330
C
100
AcDbEntity
8
F.SilkS
100
AcDbLine
10
-56.8
20
65.6755
30
0
11
-56.8
21
65.1255
31
0
0
LINE
5
3D2
330
C
100
AcDbEntity
8
F.SilkS
100
AcDbLine
10
-56.8
20
65.6755
30
0
11
-56.8
21
66.2255
31
0
0
LINE
5
3D3
330
C
100
AcDbEntity
8
F.SilkS
100
AcDbLine
10
-56.4
20
65.6755
30
0
11
-56.8
21
65.6755
31
0
0
LWPOLYLINE
5
3D4
330
C
100
AcDbEntity
8
F.SilkS
62
1
100
AcDbPolyline
90
4
70
1
43
0
38
0
39
0
10
-55.05
20
66.2755
10
-55.949999999999996
20
66.2755
10
-55.949999999999996
20
65.0755
10
-55.05
20
65.0755
0
LWPOLYLINE
5
3D5
330
C
100
AcDbEntity
8
F.SilkS
62
1
100
AcDbPolyline
90
4
70
1
43
0
38
0
39
0
10
-58.35
20
66.2755
10
-59.25
20
66.2755
10
-59.25
20
65.0755
10
-58.35
20
65.0755
0
LWPOLYLINE
5
3D6
330
C
100
AcDbEntity
8
F.SilkS
62
1
100
AcDbPolyline
90
4
70
1
43
0
38
0
39
0
10
-55.05
20
66.2755
10
-55.949999999999996
20
66.2755
10
-55.949999999999996
20
65.0755
10
-55.05
20
65.0755
0
LWPOLYLINE
5
3D7
330
C
100
AcDbEntity
8
F.SilkS
62
1
100
AcDbPolyline
90
4
70
1
43
0
38
0
39
0
10
-58.35
20
66.2755
10
-59.25
20
66.2755
10
-59.25
20
65.0755
10
-58.35
20
65.0755
0
LWPOLYLINE
5
3D8
330
C
100
AcDbEntity
8
F.SilkS
62
1
100
AcDbPolyline
90
4
70
1
43
0
38
0
39
0
10
-52.451
20
66.5645
10
-54.229
20
66.5645
10
-54.229
20
64.7865
10
-52.451
20
64.7865
0
CIRCLE
5
3D9
330
C
100
AcDbEntity
8
F.SilkS
100
AcDbCircle
10
-60.96
20
65.6755
30
0
40
0.9525
0
TEXT
5
3DA
330
C
100
AcDbEntity
8
F.SilkS
100
AcDbText
10
-76.2
20
3.763
30
0
40
1.27
1
D17
7
STANDARD
100
AcDbText
0
TEXT
5
3DB
330
C
100
AcDbEntity
8
F.SilkS
100
AcDbText
10
-76.2
20
3.763
30
0
40
1.27
1

7
STANDARD
100
AcDbText
0
LINE
5
3DC
330
C
100
AcDbEntity
8
F.SilkS
100
AcDbLine
10
-76.45
20
3.763
30
0
11
-76.95
21
3.763
31
0
0
LINE
5
3DD
330
C
100
AcDbEntity
8
F.SilkS
100
AcDbLine
10
-76.45
20
3.363
30
0
11
-75.85000000000001
21
3.763
31
0
0
LINE
5
3DE
330
C
100
AcDbEntity
8
F.SilkS
100
AcDbLine
10
-76.45
20
4.163
30
0
11
-76.45
21
3.363
31
0
0
LINE
5
3DF
330
C
100
AcDbEntity
8
F.SilkS
100
AcDbLine
10
-75.85000000000001
20
3.763
30
0
11
-76.45
21
4.163
31
0
0
LINE
5
3E0
330
C
100
AcDbEntity
8
F.SilkS
100
AcDbLine
10
-75.85000000000001
20
3.763
30
0
11
-75.85000000000001
21
3.213
31
0
0
LINE
5
3E1
330
C
100
AcDbEntity
8
F.SilkS
100
AcDbLine
10
-75.85000000000001
20
3.763
30
0
11
-75.85000000000001
21
4.313
31
0
0
LINE
5
3E2
330
C
100
AcDbEntity
8
F.SilkS
100
AcDbLine
10
-75.45
20
3.763
30
0
11
-75.85000000000001
21
3.763
31
0
0
LINE
5
3E3
330
C
100
AcDbEntity
8
F.SilkS
100
AcDbLine
10
-76.45
20
3.763
30
0
11
-76.95
21
3.763
31
0
0
LINE
5
3E4
330
C
100
AcDbEntity
8
F.SilkS
100
AcDbLine
10
-76.45
20
3.363
30
0
11
-75.85000000000001
21
3.763
31
0
0
LINE
5
3E5
330
C
100
AcDbEntity
8
F.SilkS
100
AcDbLine
10
-76.45
20
4.163
30
0
11
-76.45
21
3.363
31
0
0
LINE
5
3E6
330
C
100
AcDbEntity
8
F.SilkS
100
AcDbLine
10
-75.85000000000001
20
3.763
30
0
11
-76.45
21
4.163
31
0
0
LINE
5
3E7
330
C
100
AcDbEntity
8
F.SilkS
100
AcDbLine
10
-75.85000000000001
20
3.763
30
0
11
-75.85000000000001
21
3.213
31
0
0
LINE
5
3E8
330
C
100
AcDbEntity
8
F.SilkS
100
AcDbLine
10
-75.85000000000001
20
3.763
30
0
11
-75.85000000000001
21
4.313
31
0
0
LINE
5
3E9
330
C
100
AcDbEntity
8
F.SilkS
100
AcDbLine
10
-75.45
20
3.763
30
0
11
-75.85000000000001
21
3.763
31
0
0
LWPOLYLINE
5
3EA
330
C
100
AcDbEntity
8
F.SilkS
62
1
100
AcDbPolyline
90
4
70
1
43
0
38
0
39
0
10
-74.10000000000001
20
4.3629999999999995
10
-75
20
4.3629999999999995
10
-75
20
3.163
10
-74.10000000000001
20
3.163
0
LWPOLYLINE
5
3EB
330
C
100
AcDbEntity
8
F.SilkS
62
1
100
AcDbPolyline
90
4
70
1
43
0
38
0
39
0
10
-77.4
20
4.3629999999999995
10
-78.3
20
4.3629999999999995
10
-78.3
20
3.163
10
-77.4
20
3.163
0
LWPOLYLINE
5
3EC
330
C
100
AcDbEntity
8
F.SilkS
62
1
100
AcDbPolyline
90
4
70
1
43
0
38
0
39
0
10
-74.10000000000001
20
4.3629999999999995
10
-75
20
4.3629999999999995
10
-75
20
3.163
10
-74.10000000000001
20
3.163
0
LWPOLYLINE
5
3ED
330
C
100
AcDbEntity
8
F.SilkS
62
1
100
AcDbPolyline
90
4
70
1
43
0
38
0
39
0
10
-77.4
20
4.3629999999999995
10
-78.3
20
4.3629999999999995
10
-78.3
20
3.163
10
-77.4
20
3.163
0
LWPOLYLINE
5
3EE
330
C
100
AcDbEntity
8
F.SilkS
62
1
100
AcDbPolyline
90
4
70
1
43
0
38
0
39
0
10
-71.501
20
4.652
10
-73.279
20
4.652
10
-73.279
20
2.8739999999999997
10
-71.501
20
2.8739999999999997
0
CIRCLE
5
3EF
330
C
100
AcDbEntity
8
F.SilkS
100
AcDbCircle
10
-80.01
20
3.763
30
0
40
0.9525
0
TEXT
5
3F0
330
C
100
AcDbEntity
8
F.SilkS
100
AcDbText
10
-76.2
20
22.813000000000002
30
0
40
1.27
1
D18
7
STANDARD
100
AcDbText
0
TEXT
5
3F1
330
C
100
AcDbEntity
8
F.SilkS
100
AcDbText
10
-76.2
20
22.813000000000002
30
0
40
1.27
1

7
STANDARD
100
AcDbText
0
LINE
5
3F2
330
C
100
AcDbEntity
8
F.SilkS
100
AcDbLine
10
-76.45
20
22.813000000000002
30
0
11
-76.95
21
22.813000000000002
31
0
0
LINE
5
3F3
330
C
100
AcDbEntity
8
F.SilkS
100
AcDbLine
10
-76.45
20
22.413000000000004
30
0
11
-75.85000000000001
21
22.813000000000002
31
0
0
LINE
5
3F4
330
C
100
AcDbEntity
8
F.SilkS
100
AcDbLine
10
-76.45
20
23.213
30
0
11
-76.45
21
22.413000000000004
31
0
0
LINE
5
3F5
330
C
100
AcDbEntity
8
F.SilkS
100
AcDbLine
10
-75.85000000000001
20
22.813000000000002
30
0
11
-76.45
21
23.213
31
0
0
LINE
5
3F6
330
C
100
AcDbEntity
8
F.SilkS
100
AcDbLine
10
-75.85000000000001
20
22.813000000000002
30
0
11
-75.85000000000001
21
22.263
31
0
0
LINE
5
3F7
330
C
100
AcDbEntity
8
F.SilkS
100
AcDbLine
10
-75.85000000000001
20
22.813000000000002
30
0
11
-75.85000000000001
21
23.363000000000003
31
0
0
LINE
5
3F8
330
C
100
AcDbEntity
8
F.SilkS
100
AcDbLine
10
-75.45
20
22.813000000000002
30
0
11
-75.85000000000001
21
22.813000000000002
31
0
0
LINE
5
3F9
330
C
100
AcDbEntity
8
F.SilkS
100
AcDbLine
10
-76.45
20
22.813000000000002
30
0
11
-76.95
21
22.813000000000002
31
0
0
LINE
5
3FA
330
C
100
AcDbEntity
8
F.SilkS
100
AcDbLine
10
-76.45
20
22.413000000000004
30
0
11
-75.85000000000001
21
22.813000000000002
31
0
0
LINE
5
3FB
330
C
100
AcDbEntity
8
F.SilkS
100
AcDbLine
10
-76.45
20
23.213
30
0
11
-76.45
21
22.413000000000004
31
0
0
LINE
5
3FC
330
C
100
AcDbEntity
8
F.SilkS
100
AcDbLine
10
-75.85000000000001
20
22.813000000000002
30
0
11
-76.45
21
23.213
31
0
0
LINE
5
3FD
330
C
100
AcDbEntity
8
F.SilkS
100
AcDbLine
10
-75.85000000000001
20
22.813000000000002
30
0
11
-75.85000000000001
21
22.263
31
0
0
LINE
5
3FE
330
C
100
AcDbEntity
8
F.SilkS
100
AcDbLine
10
-75.85000000000001
20
22.813000000000002
30
0
11
-75.85000000000001
21
23.363000000000003
31
0
0
LINE
5
3FF
330
C
100
AcDbEntity
8
F.SilkS
100
AcDbLine
10
-75.45
20
22.813000000000002
30
0
11
-75.85000000000001
21
22.813000000000002
31
0
0
LWPOLYLINE
5
400
330
C
100
AcDbEntity
8
F.SilkS
62
1
100
AcDbPolyline
90
4
70
1
43
0
38
0
39
0
10
-74.10000000000001
20
23.413000000000004
10
-75
20
23.413000000000004
10
-75
20
22.213
10
-74.10000000000001
20
22.213
0
LWPOLYLINE
5
401
330
C
100
AcDbEntity
8
F.SilkS
62
1
100
AcDbPolyline
90
4
70
1
43
0
38
0
39
0
10
-77.4
20
23.413000000000004
10
-78.3
20
23.413000000000004
10
-78.3
20
22.213
10
-77.4
20
22.213
0
LWPOLYLINE
5
402
330
C
100
AcDbEntity
8
F.SilkS
62
1
100
AcDbPolyline
90
4
70
1
43
0
38
0
39
0
10
-74.10000000000001
20
23.413000000000004
10
-75
20
23.413000000000004
10
-75
20
22.213
10
-74.10000000000001
20
22.213
0
LWPOLYLINE
5
403
330
C
100
AcDbEntity
8
F.SilkS
62
1
100
AcDbPolyline
90
4
70
1
43
0
38
0
39
0
10
-77.4
20
23.413000000000004
10
-78.3
20
23.413000000000004
10
-78.3
20
22.213
10
-77.4
20
22.213
0
LWPOLYLINE
5
404
330
C
100
AcDbEntity
8
F.SilkS
62
1
100
AcDbPolyline
90
4
70
1
43
0
38
0
39
0
10
-71.501
20
23.702
10
-73.279
20
23.702
10
-73.279
20
21.924000000000003
10
-71.501
20
21.924000000000003
0
CIRCLE
5
405
330
C
100
AcDbEntity
8
F.SilkS
100
AcDbCircle
10
-80.01
20
22.813000000000002
30
0
40
0.9525
0
TEXT
5
406
330
C
100
AcDbEntity
8
F.SilkS
100
AcDbText
10
-76.2
20
41.863
30
0
40
1.27
1
D19
7
STANDARD
100
AcDbText
0
TEXT
5
407
330
C
100
AcDbEntity
8
F.SilkS
100
AcDbText
10
-76.2
20
41.863
30
0
40
1.27
1

7
STANDARD
100
AcDbText
0
LINE
5
408
330
C
100
AcDbEntity
8
F.SilkS
100
AcDbLine
10
-76.45
20
41.863
30
0
11
-76.95
21
41.863
31
0
0
LINE
5
409
330
C
100
AcDbEntity
8
F.SilkS
100
AcDbLine
10
-76.45
20
41.463
30
0
11
-75.85000000000001
21
41.863
31
0
0
LINE
5
40A
330
C
100
AcDbEntity
8
F.SilkS
100
AcDbLine
10
-76.45
20
42.263
30
0
11
-76.45
21
41.463
31
0
0
LINE
5
40B
330
C
100
AcDbEntity
8
F.SilkS
100
AcDbLine
10
-75.85000000000001
20
41.863
30
0
11
-76.45
21
42.263
31
0
0
LINE
5
40C
330
C
100
AcDbEntity
8
F.SilkS
100
AcDbLine
10
-75.85000000000001
20
41.863
30
0
11
-75.85000000000001
21
41.313
31
0
0
LINE
5
40D
330
C
100
AcDbEntity
8
F.SilkS
100
AcDbLine
10
-75.85000000000001
20
41.863
30
0
11
-75.85000000000001
21
42.413
31
0
0
LINE
5
40E
330
C
100
AcDbEntity
8
F.SilkS
100
AcDbLine
10
-75.45
20
41.863
30
0
11
-75.85000000000001
21
41.863
31
0
0
LINE
5
40F
330
C
100
AcDbEntity
8
F.SilkS
100
AcDbLine
10
-76.45
20
41.863
30
0
11
-76.95
21
41.863
31
0
0
LINE
5
410
330
C
100
AcDbEntity
8
F.SilkS
100
AcDbLine
10
-76.45
20
41.463
30
0
11
-75.85000000000001
21
41.863
31
0
0
LINE
5
411
330
C
100
AcDbEntity
8
F.SilkS
100
AcDbLine
10
-76.45
20
42.263
30
0
11
-76.45
21
41.463
31
0
0
LINE
5
412
330
C
100
AcDbEntity
8
F.SilkS
100
AcDbLine
10
-75.85000000000001
20
41.863
30
0
11
-76.45
21
42.263
31
0
0
LINE
5
413
330
C
100
AcDbEntity
8
F.SilkS
100
AcDbLine
10
-75.85000000000001
20
41.863
30
0
11
-75.85000000000001
21
41.313
31
0
0
LINE
5
414
330
C
100
AcDbEntity
8
F.SilkS
100
AcDbLine
10
-75.85000000000001
20
41.863
30
0
11
-75.85000000000001
21
42.413
31
0
0
LINE
5
415
330
C
100
AcDbEntity
8
F.SilkS
100
AcDbLine
10
-75.45
20
41.863
30
0
11
-75.85000000000001
21
41.863
31
0
0
LWPOLYLINE
5
416
330
C
100
AcDbEntity
8
F.SilkS
62
1
100
AcDbPolyline
90
4
70
1
43
0
38
0
39
0
10
-74.10000000000001
20
42.463
10
-75
20
42.463
10
-75
20
41.263
10
-74.10000000000001
20
41.263
0
LWPOLYLINE
5
417
330
C
100
AcDbEntity
8
F.SilkS
62
1
100
AcDbPolyline
90
4
70
1
43
0
38
0
39
0
10
-77.4
20
42.463
10
-78.3
20
42.463
10
-78.3
20
41.263
10
-77.4
20
41.263
0
LWPOLYLINE
5
418
330
C
100
AcDbEntity
8
F.SilkS
62
1
100
AcDbPolyline
90
4
70
1
43
0
38
0
39
0
10
-74.10000000000001
20
42.463
10
-75
20
42.463
10
-75
20
41.263
10
-74.10000000000001
20
41.263
0
LWPOLYLINE
5
419
330
C
100
AcDbEntity
8
F.SilkS
62
1
100
AcDbPolyline
90
4
70
1
43
0
38
0
39
0
10
-77.4
20
42.463
10
-78.3
20
42.463
10
-78.3
20
41.263
10
-77.4
20
41.263
0
LWPOLYLINE
5
41A
330
C
100
AcDbEntity
8
F.SilkS
62
1
100
AcDbPolyline
90
4
70
1
43
0
38
0
39
0
10
-71.501
20
42.752
10
-73.279
20
42.752
10
-73.279
20
40.974
10
-71.501
20
40.974
0
CIRCLE
5
41B
330
C
100
AcDbEntity
8
F.SilkS
100
AcDbCircle
10
-80.01
20
41.863
30
0
40
0.9525
0
TEXT
5
41C
330
C
100
AcDbEntity
8
F.SilkS
100
AcDbText
10
-76.2
20
60.913
30
0
40
1.27
1
D20
7
STANDARD
100
AcDbText
0
TEXT
5
41D
330
C
100
AcDbEntity
8
F.SilkS
100
AcDbText
10
-76.2
20
60.913
30
0
40
1.27
1

7
STANDARD
100
AcDbText
0
LINE
5
41E
330
C
100
AcDbEntity
8
F.SilkS
100
AcDbLine
10
-76.45
20
60.913
30
0
11
-76.95
21
60.913
31
0
0
LINE
5
41F
330
C
100
AcDbEntity
8
F.SilkS
100
AcDbLine
10
-76.45
20
60.513
30
0
11
-75.85000000000001
21
60.913
31
0
0
LINE
5
420
330
C
100
AcDbEntity
8
F.SilkS
100
AcDbLine
10
-76.45
20
61.312999999999995
30
0
11
-76.45
21
60.513
31
0
0
LINE
5
421
330
C
100
AcDbEntity
8
F.SilkS
100
AcDbLine
10
-75.85000000000001
20
60.913
30
0
11
-76.45
21
61.312999999999995
31
0
0
LINE
5
422
330
C
100
AcDbEntity
8
F.SilkS
100
AcDbLine
10
-75.85000000000001
20
60.913
30
0
11
-75.85000000000001
21
60.363
31
0
0
LINE
5
423
330
C
100
AcDbEntity
8
F.SilkS
100
AcDbLine
10
-75.85000000000001
20
60.913
30
0
11
-75.85000000000001
21
61.462999999999994
31
0
0
LINE
5
424
330
C
100
AcDbEntity
8
F.SilkS
100
AcDbLine
10
-75.45
20
60.913
30
0
11
-75.85000000000001
21
60.913
31
0
0
LINE
5
425
330
C
100
AcDbEntity
8
F.SilkS
100
AcDbLine
10
-76.45
20
60.913
30
0
11
-76.95
21
60.913
31
0
0
LINE
5
426
330
C
100
AcDbEntity
8
F.SilkS
100
AcDbLine
10
-76.45
20
60.513
30
0
11
-75.85000000000001
21
60.913
31
0
0
LINE
5
427
330
C
100
AcDbEntity
8
F.SilkS
100
AcDbLine
10
-76.45
20
61.312999999999995
30
0
11
-76.45
21
60.513
31
0
0
LINE
5
428
330
C
100
AcDbEntity
8
F.SilkS
100
AcDbLine
10
-75.85000000000001
20
60.913
30
0
11
-76.45
21
61.312999999999995
31
0
0
LINE
5
429
330
C
100
AcDbEntity
8
F.SilkS
100
AcDbLine
10
-75.85000000000001
20
60.913
30
0
11
-75.85000000000001
21
60.363
31
0
0
LINE
5
42A
330
C
100
AcDbEntity
8
F.SilkS
100
AcDbLine
10
-75.85000000000001
20
60.913
30
0
11
-75.85000000000001
21
61.462999999999994
31
0
0
LINE
5
42B
330
C
100
AcDbEntity
8
F.SilkS
100
AcDbLine
10
-75.45
20
60.913
30
0
11
-75.85000000000001
21
60.913
31
0
0
LWPOLYLINE
5
42C
330
C
100
AcDbEntity
8
F.SilkS
62
1
100
AcDbPolyline
90
4
70
1
43
0
38
0
39
0
10
-74.10000000000001
20
61.513
10
-75
20
61.513
10
-75
20
60.312999999999995
10
-74.10000000000001
20
60.312999999999995
0
LWPOLYLINE
5
42D
330
C
100
AcDbEntity
8
F.SilkS
62
1
100
AcDbPolyline
90
4
70
1
43
0
38
0
39
0
10
-77.4
20
61.513
10
-78.3
20
61.513
10
-78.3
20
60.312999999999995
10
-77.4
20
60.312999999999995
0
LWPOLYLINE
5
42E
330
C
100
AcDbEntity
8
F.SilkS
62
1
100
AcDbPolyline
90
4
70
1
43
0
38
0
39
0
10
-74.10000000000001
20
61.513
10
-75
20
61.513
10
-75
20
60.312999999999995
10
-74.10000000000001
20
60.312999999999995
0
LWPOLYLINE
5
42F
330
C
100
AcDbEntity
8
F.SilkS
62
1
100
AcDbPolyline
90
4
70
1
43
0
38
0
39
0
10
-77.4
20
61.513
10
-78.3
20
61.513
10
-78.3
20
60.312999999999995
10
-77.4
20
60.312999999999995
0
LWPOLYLINE
5
430
330
C
100
AcDbEntity
8
F.SilkS
62
1
100
AcDbPolyline
90
4
70
1
43
0
38
0
39
0
10
-71.501
20
61.802
10
-73.279
20
61.802
10
-73.279
20
60.023999999999994
10
-71.501
20
60.023999999999994
0
CIRCLE
5
431
330
C
100
AcDbEntity
8
F.SilkS
100
AcDbCircle
10
-80.01
20
60.913
30
0
40
0.9525
0
TEXT
5
432
330
C
100
AcDbEntity
8
F.SilkS
100
AcDbText
10
-95.25
20
0.9055
30
0
40
1.27
1
D21
7
STANDARD
100
AcDbText
0
TEXT
5
433
330
C
100
AcDbEntity
8
F.SilkS
100
AcDbText
10
-95.25
20
0.9055
30
0
40
1.27
1

7
STANDARD
100
AcDbText
0
LINE
5
434
330
C
100
AcDbEntity
8
F.SilkS
100
AcDbLine
10
-95.5
20
0.9055
30
0
11
-96
21
0.9055
31
0
0
LINE
5
435
330
C
100
AcDbEntity
8
F.SilkS
100
AcDbLine
10
-95.5
20
0.5055
30
0
11
-94.9
21
0.9055
31
0
0
LINE
5
436
330
C
100
AcDbEntity
8
F.SilkS
100
AcDbLine
10
-95.5
20
1.3054999999999999
30
0
11
-95.5
21
0.5055
31
0
0
LINE
5
437
330
C
100
AcDbEntity
8
F.SilkS
100
AcDbLine
10
-94.9
20
0.9055
30
0
11
-95.5
21
1.3054999999999999
31
0
0
LINE
5
438
330
C
100
AcDbEntity
8
F.SilkS
100
AcDbLine
10
-94.9
20
0.9055
30
0
11
-94.9
21
0.3554999999999999
31
0
0
LINE
5
439
330
C
100
AcDbEntity
8
F.SilkS
100
AcDbLine
10
-94.9
20
0.9055
30
0
11
-94.9
21
1.4555
31
0
0
LINE
5
43A
330
C
100
AcDbEntity
8
F.SilkS
100
AcDbLine
10
-94.5
20
0.9055
30
0
11
-94.9
21
0.9055
31
0
0
LINE
5
43B
330
C
100
AcDbEntity
8
F.SilkS
100
AcDbLine
10
-95.5
20
0.9055
30
0
11
-96
21
0.9055
31
0
0
LINE
5
43C
330
C
100
AcDbEntity
8
F.SilkS
100
AcDbLine
10
-95.5
20
0.5055
30
0
11
-94.9
21
0.9055
31
0
0
LINE
5
43D
330
C
100
AcDbEntity
8
F.SilkS
100
AcDbLine
10
-95.5
20
1.3054999999999999
30
0
11
-95.5
21
0.5055
31
0
0
LINE
5
43E
330
C
100
AcDbEntity
8
F.SilkS
100
AcDbLine
10
-94.9
20
0.9055
30
0
11
-95.5
21
1.3054999999999999
31
0
0
LINE
5
43F
330
C
100
AcDbEntity
8
F.SilkS
100
AcDbLine
10
-94.9
20
0.9055
30
0
11
-94.9
21
0.3554999999999999
31
0
0
LINE
5
440
330
C
100
AcDbEntity
8
F.SilkS
100
AcDbLine
10
-94.9
20
0.9055
30
0
11
-94.9
21
1.4555
31
0
0
LINE
5
441
330
C
100
AcDbEntity
8
F.SilkS
100
AcDbLine
10
-94.5
20
0.9055
30
0
11
-94.9
21
0.9055
31
0
0
LWPOLYLINE
5
442
330
C
100
AcDbEntity
8
F.SilkS
62
1
100
AcDbPolyline
90
4
70
1
43
0
38
0
39
0
10
-93.15
20
1.5055
10
-94.05
20
1.5055
10
-94.05
20
0.3055
10
-93.15
20
0.3055
0
LWPOLYLINE
5
443
330
C
100
AcDbEntity
8
F.SilkS
62
1
100
AcDbPolyline
90
4
70
1
43
0
38
0
39
0
10
-96.45
20
1.5055
10
-97.35
20
1.5055
10
-97.35
20
0.3055
10
-96.45
20
0.3055
0
LWPOLYLINE
5
444
330
C
100
AcDbEntity
8
F.SilkS
62
1
100
AcDbPolyline
90
4
70
1
43
0
38
0
39
0
10
-93.15
20
1.5055
10
-94.05
20
1.5055
10
-94.05
20
0.3055
10
-93.15
20
0.3055
0
LWPOLYLINE
5
445
330
C
100
AcDbEntity
8
F.SilkS
62
1
100
AcDbPolyline
90
4
70
1
43
0
38
0
39
0
10
-96.45
20
1.5055
10
-97.35
20
1.5055
10
-97.35
20
0.3055
10
-96.45
20
0.3055
0
LWPOLYLINE
5
446
330
C
100
AcDbEntity
8
F.SilkS
62
1
100
AcDbPolyline
90
4
70
1
43
0
38
0
39
0
10
-90.551
20
1.7945
10
-92.329
20
1.7945
10
-92.329
20
0.01649999999999996
10
-90.551
20
0.01649999999999996
0
CIRCLE
5
447
330
C
100
AcDbEntity
8
F.SilkS
100
AcDbCircle
10
-99.06
20
0.9055
30
0
40
0.9525
0
TEXT
5
448
330
C
100
AcDbEntity
8
F.SilkS
100
AcDbText
10
-95.25
20
19.9555
30
0
40
1.27
1
D22
7
STANDARD
100
AcDbText
0
TEXT
5
449
330
C
100
AcDbEntity
8
F.SilkS
100
AcDbText
10
-95.25
20
19.9555
30
0
40
1.27
1

7
STANDARD
100
AcDbText
0
LINE
5
44A
330
C
100
AcDbEntity
8
F.SilkS
100
AcDbLine
10
-95.5
20
19.9555
30
0
11
-96
21
19.9555
31
0
0
LINE
5
44B
330
C
100
AcDbEntity
8
F.SilkS
100
AcDbLine
10
-95.5
20
19.555500000000002
30
0
11
-94.9
21
19.9555
31
0
0
LINE
5
44C
330
C
100
AcDbEntity
8
F.SilkS
100
AcDbLine
10
-95.5
20
20.3555
30
0
11
-95.5
21
19.555500000000002
31
0
0
LINE
5
44D
330
C
100
AcDbEntity
8
F.SilkS
100
AcDbLine
10
-94.9
20
19.9555
30
0
11
-95.5
21
20.3555
31
0
0
LINE
5
44E
330
C
100
AcDbEntity
8
F.SilkS
100
AcDbLine
10
-94.9
20
19.9555
30
0
11
-94.9
21
19.4055
31
0
0
LINE
5
44F
330
C
100
AcDbEntity
8
F.SilkS
100
AcDbLine
10
-94.9
20
19.9555
30
0
11
-94.9
21
20.5055
31
0
0
LINE
5
450
330
C
100
AcDbEntity
8
F.SilkS
100
AcDbLine
10
-94.5
20
19.9555
30
0
11
-94.9
21
19.9555
31
0
0
LINE
5
451
330
C
100
AcDbEntity
8
F.SilkS
100
AcDbLine
10
-95.5
20
19.9555
30
0
11
-96
21
19.9555
31
0
0
LINE
5
452
330
C
100
AcDbEntity
8
F.SilkS
100
AcDbLine
10
-95.5
20
19.555500000000002
30
0
11
-94.9
21
19.9555
31
0
0
LINE
5
453
330
C
100
AcDbEntity
8
F.SilkS
100
AcDbLine
10
-95.5
20
20.3555
30
0
11
-95.5
21
19.555500000000002
31
0
0
LINE
5
454
330
C
100
AcDbEntity
8
F.SilkS
100
AcDbLine
10
-94.9
20
19.9555
30
0
11
-95.5
21
20.3555
31
0
0
LINE
5
455
330
C
100
AcDbEntity
8
F.SilkS
100
AcDbLine
10
-94.9
20
19.9555
30
0
11
-94.9
21
19.4055
31
0
0
LINE
5
456
330
C
100
AcDbEntity
8
F.SilkS
100
AcDbLine
10
-94.9
20
19.9555
30
0
11
-94.9
21
20.5055
31
0
0
LINE
5
457
330
C
100
AcDbEntity
8
F.SilkS
100
AcDbLine
10
-94.5
20
19.9555
30
0
11
-94.9
21
19.9555
31
0
0
LWPOLYLINE
5
458
330
C
100
AcDbEntity
8
F.SilkS
62
1
100
AcDbPolyline
90
4
70
1
43
0
38
0
39
0
10
-93.15
20
20.555500000000002
10
-94.05
20
20.555500000000002
10
-94.05
20
19.3555
10
-93.15
20
19.3555
0
LWPOLYLINE
5
459
330
C
100
AcDbEntity
8
F.SilkS
62
1
100
AcDbPolyline
90
4
70
1
43
0
38
0
39
0
10
-96.45
20
20.555500000000002
10
-97.35
20
20.555500000000002
10
-97.35
20
19.3555
10
-96.45
20
19.3555
0
LWPOLYLINE
5
45A
330
C
100
AcDbEntity
8
F.SilkS
62
1
100
AcDbPolyline
90
4
70
1
43
0
38
0
39
0
10
-93.15
20
20.555500000000002
10
-94.05
20
20.555500000000002
10
-94.05
20
19.3555
10
-93.15
20
19.3555
0
LWPOLYLINE
5
45B
330
C
100
AcDbEntity
8
F.SilkS
62
1
100
AcDbPolyline
90
4
70
1
43
0
38
0
39
0
10
-96.45
20
20.555500000000002
10
-97.35
20
20.555500000000002
10
-97.35
20
19.3555
10
-96.45
20
19.3555
0
LWPOLYLINE
5
45C
330
C
100
AcDbEntity
8
F.SilkS
62
1
100
AcDbPolyline
90
4
70
1
43
0
38
0
39
0
10
-90.551
20
20.8445
10
-92.329
20
20.8445
10
-92.329
20
19.0665
10
-90.551
20
19.0665
0
CIRCLE
5
45D
330
C
100
AcDbEntity
8
F.SilkS
100
AcDbCircle
10
-99.06
20
19.9555
30
0
40
0.9525
0
TEXT
5
45E
330
C
100
AcDbEntity
8
F.SilkS
100
AcDbText
10
-95.25
20
39.0055
30
0
40
1.27
1
D23
7
STANDARD
100
AcDbText
0
TEXT
5
45F
330
C
100
AcDbEntity
8
F.SilkS
100
AcDbText
10
-95.25
20
39.0055
30
0
40
1.27
1

7
STANDARD
100
AcDbText
0
LINE
5
460
330
C
100
AcDbEntity
8
F.SilkS
100
AcDbLine
10
-95.5
20
39.0055
30
0
11
-96
21
39.0055
31
0
0
LINE
5
461
330
C
100
AcDbEntity
8
F.SilkS
100
AcDbLine
10
-95.5
20
38.6055
30
0
11
-94.9
21
39.0055
31
0
0
LINE
5
462
330
C
100
AcDbEntity
8
F.SilkS
100
AcDbLine
10
-95.5
20
39.405499999999996
30
0
11
-95.5
21
38.6055
31
0
0
LINE
5
463
330
C
100
AcDbEntity
8
F.SilkS
100
AcDbLine
10
-94.9
20
39.0055
30
0
11
-95.5
21
39.405499999999996
31
0
0
LINE
5
464
330
C
100
AcDbEntity
8
F.SilkS
100
AcDbLine
10
-94.9
20
39.0055
30
0
11
-94.9
21
38.4555
31
0
0
LINE
5
465
330
C
100
AcDbEntity
8
F.SilkS
100
AcDbLine
10
-94.9
20
39.0055
30
0
11
-94.9
21
39.555499999999995
31
0
0
LINE
5
466
330
C
100
AcDbEntity
8
F.SilkS
100
AcDbLine
10
-94.5
20
39.0055
30
0
11
-94.9
21
39.0055
31
0
0
LINE
5
467
330
C
100
AcDbEntity
8
F.SilkS
100
AcDbLine
10
-95.5
20
39.0055
30
0
11
-96
21
39.0055
31
0
0
LINE
5
468
330
C
100
AcDbEntity
8
F.SilkS
100
AcDbLine
10
-95.5
20
38.6055
30
0
11
-94.9
21
39.0055
31
0
0
LINE
5
469
330
C
100
AcDbEntity
8
F.SilkS
100
AcDbLine
10
-95.5
20
39.405499999999996
30
0
11
-95.5
21
38.6055
31
0
0
LINE
5
46A
330
C
100
AcDbEntity
8
F.SilkS
100
AcDbLine
10
-94.9
20
39.0055
30
0
11
-95.5
21
39.405499999999996
31
0
0
LINE
5
46B
330
C
100
AcDbEntity
8
F.SilkS
100
AcDbLine
10
-94.9
20
39.0055
30
0
11
-94.9
21
38.4555
31
0
0
LINE
5
46C
330
C
100
AcDbEntity
8
F.SilkS
100
AcDbLine
10
-94.9
20
39.0055
30
0
11
-94.9
21
39.555499999999995
31
0
0
LINE
5
46D
330
C
100
AcDbEntity
8
F.SilkS
100
AcDbLine
10
-94.5
20
39.0055
30
0
11
-94.9
21
39.0055
31
0
0
LWPOLYLINE
5
46E
330
C
100
AcDbEntity
8
F.SilkS
62
1
100
AcDbPolyline
90
4
70
1
43
0
38
0
39
0
10
-93.15
20
39.6055
10
-94.05
20
39.6055
10
-94.05
20
38.405499999999996
10
-93.15
20
38.405499999999996
0
LWPOLYLINE
5
46F
330
C
100
AcDbEntity
8
F.SilkS
62
1
100
AcDbPolyline
90
4
70
1
43
0
38
0
39
0
10
-96.45
20
39.6055
10
-97.35
20
39.6055
10
-97.35
20
38.405499999999996
10
-96.45
20
38.405499999999996
0
LWPOLYLINE
5
470
330
C
100
AcDbEntity
8
F.SilkS
62
1
100
AcDbPolyline
90
4
70
1
43
0
38
0
39
0
10
-93.15
20
39.6055
10
-94.05
20
39.6055
10
-94.05
20
38.405499999999996
10
-93.15
20
38.405499999999996
0
LWPOLYLINE
5
471
330
C
100
AcDbEntity
8
F.SilkS
62
1
100
AcDbPolyline
90
4
70
1
43
0
38
0
39
0
10
-96.45
20
39.6055
10
-97.35
20
39.6055
10
-97.35
20
38.405499999999996
10
-96.45
20
38.405499999999996
0
LWPOLYLINE
5
472
330
C
100
AcDbEntity
8
F.SilkS
62
1
100
AcDbPolyline
90
4
70
1
43
0
38
0
39
0
10
-90.551
20
39.8945
10
-92.329
20
39.8945
10
-92.329
20
38.116499999999995
10
-90.551
20
38.116499999999995
0
CIRCLE
5
473
330
C
100
AcDbEntity
8
F.SilkS
100
AcDbCircle
10
-99.06
20
39.0055
30
0
40
0.9525
0
TEXT
5
474
330
C
100
AcDbEntity
8
F.SilkS
100
AcDbText
10
-95.25
20
58.055499999999995
30
0
40
1.27
1
D24
7
STANDARD
100
AcDbText
0
TEXT
5
475
330
C
100
AcDbEntity
8
F.SilkS
100
AcDbText
10
-95.25
20
58.055499999999995
30
0
40
1.27
1

7
STANDARD
100
AcDbText
0
LINE
5
476
330
C
100
AcDbEntity
8
F.SilkS
100
AcDbLine
10
-95.5
20
58.055499999999995
30
0
11
-96
21
58.055499999999995
31
0
0
LINE
5
477
330
C
100
AcDbEntity
8
F.SilkS
100
AcDbLine
10
-95.5
20
57.655499999999996
30
0
11
-94.9
21
58.055499999999995
31
0
0
LINE
5
478
330
C
100
AcDbEntity
8
F.SilkS
100
AcDbLine
10
-95.5
20
58.455499999999994
30
0
11
-95.5
21
57.655499999999996
31
0
0
LINE
5
479
330
C
100
AcDbEntity
8
F.SilkS
100
AcDbLine
10
-94.9
20
58.055499999999995
30
0
11
-95.5
21
58.455499999999994
31
0
0
LINE
5
47A
330
C
100
AcDbEntity
8
F.SilkS
100
AcDbLine
10
-94.9
20
58.055499999999995
30
0
11
-94.9
21
57.5055
31
0
0
LINE
5
47B
330
C
100
AcDbEntity
8
F.SilkS
100
AcDbLine
10
-94.9
20
58.055499999999995
30
0
11
-94.9
21
58.60549999999999
31
0
0
LINE
5
47C
330
C
100
AcDbEntity
8
F.SilkS
100
AcDbLine
10
-94.5
20
58.055499999999995
30
0
11
-94.9
21
58.055499999999995
31
0
0
LINE
5
47D
330
C
100
AcDbEntity
8
F.SilkS
100
AcDbLine
10
-95.5
20
58.055499999999995
30
0
11
-96
21
58.055499999999995
31
0
0
LINE
5
47E
330
C
100
AcDbEntity
8
F.SilkS
100
AcDbLine
10
-95.5
20
57.655499999999996
30
0
11
-94.9
21
58.055499999999995
31
0
0
LINE
5
47F
330
C
100
AcDbEntity
8
F.SilkS
100
AcDbLine
10
-95.5
20
58.455499999999994
30
0
11
-95.5
21
57.655499999999996
31
0
0
LINE
5
480
330
C
100
AcDbEntity
8
F.SilkS
100
AcDbLine
10
-94.9
20
58.055499999999995
30
0
11
-95.5
21
58.455499999999994
31
0
0
LINE
5
481
330
C
100
AcDbEntity
8
F.SilkS
100
AcDbLine
10
-94.9
20
58.055499999999995
30
0
11
-94.9
21
57.5055
31
0
0
LINE
5
482
330
C
100
AcDbEntity
8
F.SilkS
100
AcDbLine
10
-94.9
20
58.055499999999995
30
0
11
-94.9
21
58.60549999999999
31
0
0
LINE
5
483
330
C
100
AcDbEntity
8
F.SilkS
100
AcDbLine
10
-94.5
20
58.055499999999995
30
0
11
-94.9
21
58.055499999999995
31
0
0
LWPOLYLINE
5
484
330
C
100
AcDbEntity
8
F.SilkS
62
1
100
AcDbPolyline
90
4
70
1
43
0
38
0
39
0
10
-93.15
20
58.655499999999996
10
-94.05
20
58.655499999999996
10
-94.05
20
57.455499999999994
10
-93.15
20
57.455499999999994
0
LWPOLYLINE
5
485
330
C
100
AcDbEntity
8
F.SilkS
62
1
100
AcDbPolyline
90
4
70
1
43
0
38
0
39
0
10
-96.45
20
58.655499999999996
10
-97.35
20
58.655499999999996
10
-97.35
20
57.455499999999994
10
-96.45
20
57.455499999999994
0
LWPOLYLINE
5
486
330
C
100
AcDbEntity
8
F.SilkS
62
1
100
AcDbPolyline
90
4
70
1
43
0
38
0
39
0
10
-93.15
20
58.655499999999996
10
-94.05
20
58.655499999999996
10
-94.05
20
57.455499999999994
10
-93.15
20
57.455499999999994
0
LWPOLYLINE
5
487
330
C
100
AcDbEntity
8
F.SilkS
62
1
100
AcDbPolyline
90
4
70
1
43
0
38
0
39
0
10
-96.45
20
58.655499999999996
10
-97.35
20
58.655499999999996
10
-97.35
20
57.455499999999994
10
-96.45
20
57.455499999999994
0
LWPOLYLINE
5
488
330
C
100
AcDbEntity
8
F.SilkS
62
1
100
AcDbPolyline
90
4
70
1
43
0
38
0
39
0
10
-90.551
20
58.9445
10
-92.329
20
58.9445
10
-92.329
20
57.16649999999999
10
-90.551
20
57.16649999999999
0
CIRCLE
5
489
330
C
100
AcDbEntity
8
F.SilkS
100
AcDbCircle
10
-99.06
20
58.055499999999995
30
0
40
0.9525
0
TEXT
5
48A
330
C
100
AcDbEntity
8
F.SilkS
100
AcDbText
10
-118.86307149999999
20
-20.7377033
30
0
40
1.27
1
D25
7
STANDARD
100
AcDbText
0
TEXT
5
48B
330
C
100
AcDbEntity
8
F.SilkS
100
AcDbText
10
-118.86307149999999
20
-20.7377033
30
0
40
1.27
1

7
STANDARD
100
AcDbText
0
LINE
5
48C
330
C
100
AcDbEntity
8
F.SilkS
100
AcDbLine
10
-119.02376840242162
20
-20.546192189220257
30
0
11
-119.34516220726489
21
-20.163169967660767
31
0
0
LINE
5
48D
330
C
100
AcDbEntity
8
F.SilkS
100
AcDbLine
10
-119.33018617966921
20
-20.80330723309487
30
0
11
-118.63809583660971
21
-21.005818855091643
31
0
0
LINE
5
48E
330
C
100
AcDbEntity
8
F.SilkS
100
AcDbLine
10
-118.71735062517403
20
-20.28907714534564
30
0
11
-119.33018617966921
21
-20.80330723309487
31
0
0
LINE
5
48F
330
C
100
AcDbEntity
8
F.SilkS
100
AcDbLine
10
-118.63809583660971
20
-21.005818855091643
30
0
11
-118.71735062517403
21
-20.28907714534564
31
0
0
LINE
5
490
330
C
100
AcDbEntity
8
F.SilkS
100
AcDbLine
10
-118.63809583660971
20
-21.005818855091643
30
0
11
-119.05942028032514
21
-21.35935204041924
31
0
0
LINE
5
491
330
C
100
AcDbEntity
8
F.SilkS
100
AcDbLine
10
-118.63809583660971
20
-21.005818855091643
30
0
11
-118.21677139289426
21
-20.652285669764044
31
0
0
LINE
5
492
330
C
100
AcDbEntity
8
F.SilkS
100
AcDbLine
10
-118.38098079273509
20
-21.312236632339232
30
0
11
-118.63809583660971
21
-21.005818855091643
31
0
0
LINE
5
493
330
C
100
AcDbEntity
8
F.SilkS
100
AcDbLine
10
-119.02376840242162
20
-20.546192189220257
30
0
11
-119.34516220726489
21
-20.163169967660767
31
0
0
LINE
5
494
330
C
100
AcDbEntity
8
F.SilkS
100
AcDbLine
10
-119.33018617966921
20
-20.80330723309487
30
0
11
-118.63809583660971
21
-21.005818855091643
31
0
0
LINE
5
495
330
C
100
AcDbEntity
8
F.SilkS
100
AcDbLine
10
-118.71735062517403
20
-20.28907714534564
30
0
11
-119.33018617966921
21
-20.80330723309487
31
0
0
LINE
5
496
330
C
100
AcDbEntity
8
F.SilkS
100
AcDbLine
10
-118.63809583660971
20
-21.005818855091643
30
0
11
-118.71735062517403
21
-20.28907714534564
31
0
0
LINE
5
497
330
C
100
AcDbEntity
8
F.SilkS
100
AcDbLine
10
-118.63809583660971
20
-21.005818855091643
30
0
11
-119.05942028032514
21
-21.35935204041924
31
0
0
LINE
5
498
330
C
100
AcDbEntity
8
F.SilkS
100
AcDbLine
10
-118.63809583660971
20
-21.005818855091643
30
0
11
-118.21677139289426
21
-20.652285669764044
31
0
0
LINE
5
499
330
C
100
AcDbEntity
8
F.SilkS
100
AcDbLine
10
-118.38098079273509
20
-21.312236632339232
30
0
11
-118.63809583660971
21
-21.005818855091643
31
0
0
LWPOLYLINE
5
49A
330
C
100
AcDbEntity
8
F.SilkS
62
1
100
AcDbPolyline
90
4
70
1
43
0
38
0
39
0
10
-117.05359085378687
20
-21.96072406473793
10
-118.55135303424753
20
-21.96072406473793
10
-118.55135303424753
20
-22.042629197554696
10
-117.05359085378687
20
-22.042629197554696
0
LWPOLYLINE
5
49B
330
C
100
AcDbEntity
8
F.SilkS
62
1
100
AcDbPolyline
90
4
70
1
43
0
38
0
39
0
10
-119.17478996575245
20
-19.432777402445303
10
-120.6725521462131
20
-19.432777402445303
10
-120.6725521462131
20
-19.514682535262068
10
-119.17478996575245
20
-19.514682535262068
0
LWPOLYLINE
5
49C
330
C
100
AcDbEntity
8
F.SilkS
62
1
100
AcDbPolyline
90
4
70
1
43
0
38
0
39
0
10
-117.05359085378687
20
-21.96072406473793
10
-118.55135303424753
20
-21.96072406473793
10
-118.55135303424753
20
-22.042629197554696
10
-117.05359085378687
20
-22.042629197554696
0
LWPOLYLINE
5
49D
330
C
100
AcDbEntity
8
F.SilkS
62
1
100
AcDbPolyline
90
4
70
1
43
0
38
0
39
0
10
-119.17478996575245
20
-19.432777402445303
10
-120.6725521462131
20
-19.432777402445303
10
-120.6725521462131
20
-19.514682535262068
10
-119.17478996575245
20
-19.514682535262068
0
LWPOLYLINE
5
49E
330
C
100
AcDbEntity
8
F.SilkS
62
1
100
AcDbPolyline
90
4
70
1
43
0
38
0
39
0
10
-115.16159901215016
20
-23.765907953204746
10
-117.66650240203838
20
-23.765907953204746
10
-117.66650240203838
20
-23.54675730336187
10
-115.16159901215016
20
-23.54675730336187
0
CIRCLE
5
49F
330
C
100
AcDbEntity
8
F.SilkS
100
AcDbCircle
10
-121.3120922929057
20
-17.819073971716694
30
0
40
0.9525
0
TEXT
5
4A0
330
C
100
AcDbEntity
8
F.SilkS
100
AcDbText
10
-47.625
20
-20.049500000000002
30
0
40
1.27
1
D26
7
STANDARD
100
AcDbText
0
TEXT
5
4A1
330
C
100
AcDbEntity
8
F.SilkS
100
AcDbText
10
-47.625
20
-20.049500000000002
30
0
40
1.27
1

7
STANDARD
100
AcDbText
0
LINE
5
4A2
330
C
100
AcDbEntity
8
F.SilkS
100
AcDbLine
10
-47.875
20
-20.049500000000002
30
0
11
-48.375
21
-20.049500000000002
31
0
0
LINE
5
4A3
330
C
100
AcDbEntity
8
F.SilkS
100
AcDbLine
10
-47.875
20
-20.4495
30
0
11
-47.275
21
-20.049500000000002
31
0
0
LINE
5
4A4
330
C
100
AcDbEntity
8
F.SilkS
100
AcDbLine
10
-47.875
20
-19.649500000000003
30
0
11
-47.875
21
-20.4495
31
0
0
LINE
5
4A5
330
C
100
AcDbEntity
8
F.SilkS
100
AcDbLine
10
-47.275
20
-20.049500000000002
30
0
11
-47.875
21
-19.649500000000003
31
0
0
LINE
5
4A6
330
C
100
AcDbEntity
8
F.SilkS
100
AcDbLine
10
-47.275
20
-20.049500000000002
30
0
11
-47.275
21
-20.599500000000003
31
0
0
LINE
5
4A7
330
C
100
AcDbEntity
8
F.SilkS
100
AcDbLine
10
-47.275
20
-20.049500000000002
30
0
11
-47.275
21
-19.4995
31
0
0
LINE
5
4A8
330
C
100
AcDbEntity
8
F.SilkS
100
AcDbLine
10
-46.875
20
-20.049500000000002
30
0
11
-47.275
21
-20.049500000000002
31
0
0
LINE
5
4A9
330
C
100
AcDbEntity
8
F.SilkS
100
AcDbLine
10
-47.875
20
-20.049500000000002
30
0
11
-48.375
21
-20.049500000000002
31
0
0
LINE
5
4AA
330
C
100
AcDbEntity
8
F.SilkS
100
AcDbLine
10
-47.875
20
-20.4495
30
0
11
-47.275
21
-20.049500000000002
31
0
0
LINE
5
4AB
330
C
100
AcDbEntity
8
F.SilkS
100
AcDbLine
10
-47.875
20
-19.649500000000003
30
0
11
-47.875
21
-20.4495
31
0
0
LINE
5
4AC
330
C
100
AcDbEntity
8
F.SilkS
100
AcDbLine
10
-47.275
20
-20.049500000000002
30
0
11
-47.875
21
-19.649500000000003
31
0
0
LINE
5
4AD
330
C
100
AcDbEntity
8
F.SilkS
100
AcDbLine
10
-47.275
20
-20.049500000000002
30
0
11
-47.275
21
-20.599500000000003
31
0
0
LINE
5
4AE
330
C
100
AcDbEntity
8
F.SilkS
100
AcDbLine
10
-47.275
20
-20.049500000000002
30
0
11
-47.275
21
-19.4995
31
0
0
LINE
5
4AF
330
C
100
AcDbEntity
8
F.SilkS
100
AcDbLine
10
-46.875
20
-20.049500000000002
30
0
11
-47.275
21
-20.049500000000002
31
0
0
LWPOLYLINE
5
4B0
330
C
100
AcDbEntity
8
F.SilkS
62
1
100
AcDbPolyline
90
4
70
1
43
0
38
0
39
0
10
-45.525
20
-19.4495
10
-46.425
20
-19.4495
10
-46.425
20
-20.649500000000003
10
-45.525
20
-20.649500000000003
0
LWPOLYLINE
5
4B1
330
C
100
AcDbEntity
8
F.SilkS
62
1
100
AcDbPolyline
90
4
70
1
43
0
38
0
39
0
10
-48.825
20
-19.4495
10
-49.725
20
-19.4495
10
-49.725
20
-20.649500000000003
10
-48.825
20
-20.649500000000003
0
LWPOLYLINE
5
4B2
330
C
100
AcDbEntity
8
F.SilkS
62
1
100
AcDbPolyline
90
4
70
1
43
0
38
0
39
0
10
-45.525
20
-19.4495
10
-46.425
20
-19.4495
10
-46.425
20
-20.649500000000003
10
-45.525
20
-20.649500000000003
0
LWPOLYLINE
5
4B3
330
C
100
AcDbEntity
8
F.SilkS
62
1
100
AcDbPolyline
90
4
70
1
43
0
38
0
39
0
10
-48.825
20
-19.4495
10
-49.725
20
-19.4495
10
-49.725
20
-20.649500000000003
10
-48.825
20
-20.649500000000003
0
LWPOLYLINE
5
4B4
330
C
100
AcDbEntity
8
F.SilkS
62
1
100
AcDbPolyline
90
4
70
1
43
0
38
0
39
0
10
-42.926
20
-19.160500000000003
10
-44.704
20
-19.160500000000003
10
-44.704
20
-20.9385
10
-42.926
20
-20.9385
0
CIRCLE
5
4B5
330
C
100
AcDbEntity
8
F.SilkS
100
AcDbCircle
10
-51.435
20
-20.049500000000002
30
0
40
0.9525
0
TEXT
5
4B6
330
C
100
AcDbEntity
8
F.SilkS
100
AcDbText
10
-66.625
20
-20.049500000000002
30
0
40
1.27
1
D27
7
STANDARD
100
AcDbText
0
TEXT
5
4B7
330
C
100
AcDbEntity
8
F.SilkS
100
AcDbText
10
-66.625
20
-20.049500000000002
30
0
40
1.27
1

7
STANDARD
100
AcDbText
0
LINE
5
4B8
330
C
100
AcDbEntity
8
F.SilkS
100
AcDbLine
10
-66.875
20
-20.049500000000002
30
0
11
-67.375
21
-20.049500000000002
31
0
0
LINE
5
4B9
330
C
100
AcDbEntity
8
F.SilkS
100
AcDbLine
10
-66.875
20
-20.4495
30
0
11
-66.275
21
-20.049500000000002
31
0
0
LINE
5
4BA
330
C
100
AcDbEntity
8
F.SilkS
100
AcDbLine
10
-66.875
20
-19.649500000000003
30
0
11
-66.875
21
-20.4495
31
0
0
LINE
5
4BB
330
C
100
AcDbEntity
8
F.SilkS
100
AcDbLine
10
-66.275
20
-20.049500000000002
30
0
11
-66.875
21
-19.649500000000003
31
0
0
LINE
5
4BC
330
C
100
AcDbEntity
8
F.SilkS
100
AcDbLine
10
-66.275
20
-20.049500000000002
30
0
11
-66.275
21
-20.599500000000003
31
0
0
LINE
5
4BD
330
C
100
AcDbEntity
8
F.SilkS
100
AcDbLine
10
-66.275
20
-20.049500000000002
30
0
11
-66.275
21
-19.4995
31
0
0
LINE
5
4BE
330
C
100
AcDbEntity
8
F.SilkS
100
AcDbLine
10
-65.875
20
-20.049500000000002
30
0
11
-66.275
21
-20.049500000000002
31
0
0
LINE
5
4BF
330
C
100
AcDbEntity
8
F.SilkS
100
AcDbLine
10
-66.875
20
-20.049500000000002
30
0
11
-67.375
21
-20.049500000000002
31
0
0
LINE
5
4C0
330
C
100
AcDbEntity
8
F.SilkS
100
AcDbLine
10
-66.875
20
-20.4495
30
0
11
-66.275
21
-20.049500000000002
31
0
0
LINE
5
4C1
330
C
100
AcDbEntity
8
F.SilkS
100
AcDbLine
10
-66.875
20
-19.649500000000003
30
0
11
-66.875
21
-20.4495
31
0
0
LINE
5
4C2
330
C
100
AcDbEntity
8
F.SilkS
100
AcDbLine
10
-66.275
20
-20.049500000000002
30
0
11
-66.875
21
-19.649500000000003
31
0
0
LINE
5
4C3
330
C
100
AcDbEntity
8
F.SilkS
100
AcDbLine
10
-66.275
20
-20.049500000000002
30
0
11
-66.275
21
-20.599500000000003
31
0
0
LINE
5
4C4
330
C
100
AcDbEntity
8
F.SilkS
100
AcDbLine
10
-66.275
20
-20.049500000000002
30
0
11
-66.275
21
-19.4995
31
0
0
LINE
5
4C5
330
C
100
AcDbEntity
8
F.SilkS
100
AcDbLine
10
-65.875
20
-20.049500000000002
30
0
11
-66.275
21
-20.049500000000002
31
0
0
LWPOLYLINE
5
4C6
330
C
100
AcDbEntity
8
F.SilkS
62
1
100
AcDbPolyline
90
4
70
1
43
0
38
0
39
0
10
-64.525
20
-19.4495
10
-65.425
20
-19.4495
10
-65.425
20
-20.649500000000003
10
-64.525
20
-20.649500000000003
0
LWPOLYLINE
5
4C7
330
C
100
AcDbEntity
8
F.SilkS
62
1
100
AcDbPolyline
90
4
70
1
43
0
38
0
39
0
10
-67.825
20
-19.4495
10
-68.725
20
-19.4495
10
-68.725
20
-20.649500000000003
10
-67.825
20
-20.649500000000003
0
LWPOLYLINE
5
4C8
330
C
100
AcDbEntity
8
F.SilkS
62
1
100
AcDbPolyline
90
4
70
1
43
0
38
0
39
0
10
-64.525
20
-19.4495
10
-65.425
20
-19.4495
10
-65.425
20
-20.649500000000003
10
-64.525
20
-20.649500000000003
0
LWPOLYLINE
5
4C9
330
C
100
AcDbEntity
8
F.SilkS
62
1
100
AcDbPolyline
90
4
70
1
43
0
38
0
39
0
10
-67.825
20
-19.4495
10
-68.725
20
-19.4495
10
-68.725
20
-20.649500000000003
10
-67.825
20
-20.649500000000003
0
LWPOLYLINE
5
4CA
330
C
100
AcDbEntity
8
F.SilkS
62
1
100
AcDbPolyline
90
4
70
1
43
0
38
0
39
0
10
-61.926
20
-19.160500000000003
10
-63.704
20
-19.160500000000003
10
-63.704
20
-20.9385
10
-61.926
20
-20.9385
0
CIRCLE
5
4CB
330
C
100
AcDbEntity
8
F.SilkS
100
AcDbCircle
10
-70.435
20
-20.049500000000002
30
0
40
0.9525
0
TEXT
5
4CC
330
C
100
AcDbEntity
8
F.SilkS
100
AcDbText
10
-85.625
20
-20.049500000000002
30
0
40
1.27
1
D28
7
STANDARD
100
AcDbText
0
TEXT
5
4CD
330
C
100
AcDbEntity
8
F.SilkS
100
AcDbText
10
-85.625
20
-20.049500000000002
30
0
40
1.27
1

7
STANDARD
100
AcDbText
0
LINE
5
4CE
330
C
100
AcDbEntity
8
F.SilkS
100
AcDbLine
10
-85.875
20
-20.049500000000002
30
0
11
-86.375
21
-20.049500000000002
31
0
0
LINE
5
4CF
330
C
100
AcDbEntity
8
F.SilkS
100
AcDbLine
10
-85.875
20
-20.4495
30
0
11
-85.275
21
-20.049500000000002
31
0
0
LINE
5
4D0
330
C
100
AcDbEntity
8
F.SilkS
100
AcDbLine
10
-85.875
20
-19.649500000000003
30
0
11
-85.875
21
-20.4495
31
0
0
LINE
5
4D1
330
C
100
AcDbEntity
8
F.SilkS
100
AcDbLine
10
-85.275
20
-20.049500000000002
30
0
11
-85.875
21
-19.649500000000003
31
0
0
LINE
5
4D2
330
C
100
AcDbEntity
8
F.SilkS
100
AcDbLine
10
-85.275
20
-20.049500000000002
30
0
11
-85.275
21
-20.599500000000003
31
0
0
LINE
5
4D3
330
C
100
AcDbEntity
8
F.SilkS
100
AcDbLine
10
-85.275
20
-20.049500000000002
30
0
11
-85.275
21
-19.4995
31
0
0
LINE
5
4D4
330
C
100
AcDbEntity
8
F.SilkS
100
AcDbLine
10
-84.875
20
-20.049500000000002
30
0
11
-85.275
21
-20.049500000000002
31
0
0
LINE
5
4D5
330
C
100
AcDbEntity
8
F.SilkS
100
AcDbLine
10
-85.875
20
-20.049500000000002
30
0
11
-86.375
21
-20.049500000000002
31
0
0
LINE
5
4D6
330
C
100
AcDbEntity
8
F.SilkS
100
AcDbLine
10
-85.875
20
-20.4495
30
0
11
-85.275
21
-20.049500000000002
31
0
0
LINE
5
4D7
330
C
100
AcDbEntity
8
F.SilkS
100
AcDbLine
10
-85.875
20
-19.649500000000003
30
0
11
-85.875
21
-20.4495
31
0
0
LINE
5
4D8
330
C
100
AcDbEntity
8
F.SilkS
100
AcDbLine
10
-85.275
20
-20.049500000000002
30
0
11
-85.875
21
-19.649500000000003
31
0
0
LINE
5
4D9
330
C
100
AcDbEntity
8
F.SilkS
100
AcDbLine
10
-85.275
20
-20.049500000000002
30
0
11
-85.275
21
-20.599500000000003
31
0
0
LINE
5
4DA
330
C
100
AcDbEntity
8
F.SilkS
100
AcDbLine
10
-85.275
20
-20.049500000000002
30
0
11
-85.275
21
-19.4995
31
0
0
LINE
5
4DB
330
C
100
AcDbEntity
8
F.SilkS
100
AcDbLine
10
-84.875
20
-20.049500000000002
30
0
11
-85.275
21
-20.049500000000002
31
0
0
LWPOLYLINE
5
4DC
330
C
100
AcDbEntity
8
F.SilkS
62
1
100
AcDbPolyline
90
4
70
1
43
0
38
0
39
0
10
-83.525
20
-19.4495
10
-84.425
20
-19.4495
10
-84.425
20
-20.649500000000003
10
-83.525
20
-20.649500000000003
0
LWPOLYLINE
5
4DD
330
C
100
AcDbEntity
8
F.SilkS
62
1
100
AcDbPolyline
90
4
70
1
43
0
38
0
39
0
10
-86.825
20
-19.4495
10
-87.725
20
-19.4495
10
-87.725
20
-20.649500000000003
10
-86.825
20
-20.649500000000003
0
LWPOLYLINE
5
4DE
330
C
100
AcDbEntity
8
F.SilkS
62
1
100
AcDbPolyline
90
4
70
1
43
0
38
0
39
0
10
-83.525
20
-19.4495
10
-84.425
20
-19.4495
10
-84.425
20
-20.649500000000003
10
-83.525
20
-20.649500000000003
0
LWPOLYLINE
5
4DF
330
C
100
AcDbEntity
8
F.SilkS
62
1
100
AcDbPolyline
90
4
70
1
43
0
38
0
39
0
10
-86.825
20
-19.4495
10
-87.725
20
-19.4495
10
-87.725
20
-20.649500000000003
10
-86.825
20
-20.649500000000003
0
LWPOLYLINE
5
4E0
330
C
100
AcDbEntity
8
F.SilkS
62
1
100
AcDbPolyline
90
4
70
1
43
0
38
0
39
0
10
-80.926
20
-19.160500000000003
10
-82.704
20
-19.160500000000003
10
-82.704
20
-20.9385
10
-80.926
20
-20.9385
0
CIRCLE
5
4E1
330
C
100
AcDbEntity
8
F.SilkS
100
AcDbCircle
10
-89.435
20
-20.049500000000002
30
0
40
0.9525
0
TEXT
5
4E2
330
C
100
AcDbEntity
8
F.SilkS
100
AcDbText
10
-119.595
20
57.672549999999994
30
0
40
1.27
1
MCU1
7
STANDARD
100
AcDbText
0
TEXT
5
4E3
330
C
100
AcDbEntity
8
F.SilkS
100
AcDbText
10
-119.595
20
57.672549999999994
30
0
40
1.27
1

7
STANDARD
100
AcDbText
0
LINE
5
4E4
330
C
100
AcDbEntity
8
F.SilkS
100
AcDbLine
10
-124.57637458916818
20
76.70794921310791
30
0
11
-124.26624800833112
21
71.63742443712482
31
0
0
LINE
5
4E5
330
C
100
AcDbEntity
8
F.SilkS
100
AcDbLine
10
-116.97058742519356
20
77.17313908436353
30
0
11
-124.57637458916818
21
76.70794921310791
31
0
0
LINE
5
4E6
330
C
100
AcDbEntity
8
F.SilkS
100
AcDbLine
10
-116.66046084435649
20
72.10261430838044
30
0
11
-116.97058742519356
21
77.17313908436353
31
0
0
LINE
5
4E7
330
C
100
AcDbEntity
8
F.SilkS
100
AcDbLine
10
-124.26624800833112
20
71.63742443712482
30
0
11
-116.66046084435649
21
72.10261430838044
31
0
0
LINE
5
4E8
330
C
100
AcDbEntity
8
F.SilkS
100
AcDbLine
10
-111.80702467495935
20
75.96210823240567
30
0
11
-109.79120189951838
21
43.003697188515616
31
0
0
LINE
5
4E9
330
C
100
AcDbEntity
8
F.SilkS
100
AcDbLine
10
-109.79120189951838
20
43.003697188515616
30
0
11
-127.53803861545919
21
41.91825415558586
31
0
0
LINE
5
4EA
330
C
100
AcDbEntity
8
F.SilkS
100
AcDbLine
10
-127.53803861545919
20
41.91825415558586
30
0
11
-129.55386139090015
21
74.87666519947592
31
0
0
LINE
5
4EB
330
C
100
AcDbEntity
8
F.SilkS
100
AcDbLine
10
-129.55386139090015
20
74.87666519947592
30
0
11
-111.80702467495935
21
75.96210823240567
31
0
0
LINE
5
4EC
330
C
100
AcDbEntity
8
F.SilkS
100
AcDbLine
10
-114.18722377253236
20
73.27178255399559
30
0
11
-114.03216048211382
21
70.73652016600404
31
0
0
LINE
5
4ED
330
C
100
AcDbEntity
8
F.SilkS
100
AcDbLine
10
-114.18722377253236
20
73.27178255399559
30
0
11
-111.65196138454081
21
73.42684584441412
31
0
0
LINE
5
4EE
330
C
100
AcDbEntity
8
F.SilkS
100
AcDbLine
10
-114.03216048211382
20
70.73652016600404
30
0
11
-111.49689809412229
21
70.89158345642258
31
0
0
TEXT
5
4EF
330
C
100
AcDbEntity
8
F.SilkS
100
AcDbText
10
-115.65680106487699
20
71.9095261237208
30
0
40
0.8
1
RAW
7
STANDARD
100
AcDbText
0
TEXT
5
4F0
330
C
100
AcDbEntity
8
F.SilkS
100
AcDbText
10
-115.50173777445845
20
69.37426373572924
30
0
40
0.8
1
GND
7
STANDARD
100
AcDbText
0
TEXT
5
4F1
330
C
100
AcDbEntity
8
F.SilkS
100
AcDbText
10
-115.34667448403991
20
66.8390013477377
30
0
40
0.8
1
RST
7
STANDARD
100
AcDbText
0
TEXT
5
4F2
330
C
100
AcDbEntity
8
F.SilkS
100
AcDbText
10
-115.19161119362138
20
64.30373895974616
30
0
40
0.8
1
VCC
7
STANDARD
100
AcDbText
0
TEXT
5
4F3
330
C
100
AcDbEntity
8
F.SilkS
100
AcDbText
10
-115.03654790320284
20
61.76847657175462
30
0
40
0.8
1
P21
7
STANDARD
100
AcDbText
0
TEXT
5
4F4
330
C
100
AcDbEntity
8
F.SilkS
100
AcDbText
10
-114.8814846127843
20
59.233214183763074
30
0
40
0.8
1
P20
7
STANDARD
100
AcDbText
0
TEXT
5
4F5
330
C
100
AcDbEntity
8
F.SilkS
100
AcDbText
10
-114.72642132236577
20
56.69795179577154
30
0
40
0.8
1
P19
7
STANDARD
100
AcDbText
0
TEXT
5
4F6
330
C
100
AcDbEntity
8
F.SilkS
100
AcDbText
10
-114.57135803194723
20
54.16268940777999
30
0
40
0.8
1
P18
7
STANDARD
100
AcDbText
0
TEXT
5
4F7
330
C
100
AcDbEntity
8
F.SilkS
100
AcDbText
10
-114.4162947415287
20
51.62742701978845
30
0
40
0.8
1
P15
7
STANDARD
100
AcDbText
0
TEXT
5
4F8
330
C
100
AcDbEntity
8
F.SilkS
100
AcDbText
10
-114.26123145111016
20
49.092164631796905
30
0
40
0.8
1
P14
7
STANDARD
100
AcDbText
0
TEXT
5
4F9
330
C
100
AcDbEntity
8
F.SilkS
100
AcDbText
10
-114.10616816069162
20
46.55690224380537
30
0
40
0.8
1
P16
7
STANDARD
100
AcDbText
0
TEXT
5
4FA
330
C
100
AcDbEntity
8
F.SilkS
100
AcDbText
10
-113.95110487027308
20
44.021639855813824
30
0
40
0.8
1
P10
7
STANDARD
100
AcDbText
0
TEXT
5
4FB
330
C
100
AcDbEntity
8
F.SilkS
100
AcDbText
10
-125.23889512972691
20
71.32346014418617
30
0
40
0.8
1
P01
7
STANDARD
100
AcDbText
0
TEXT
5
4FC
330
C
100
AcDbEntity
8
F.SilkS
100
AcDbText
10
-125.08383183930837
20
68.78819775619462
30
0
40
0.8
1
P00
7
STANDARD
100
AcDbText
0
TEXT
5
4FD
330
C
100
AcDbEntity
8
F.SilkS
100
AcDbText
10
-124.92876854888983
20
66.25293536820308
30
0
40
0.8
1
GND
7
STANDARD
100
AcDbText
0
TEXT
5
4FE
330
C
100
AcDbEntity
8
F.SilkS
100
AcDbText
10
-124.7737052584713
20
63.71767298021154
30
0
40
0.8
1
GND
7
STANDARD
100
AcDbText
0
TEXT
5
4FF
330
C
100
AcDbEntity
8
F.SilkS
100
AcDbText
10
-124.61864196805277
20
61.182410592219995
30
0
40
0.8
1
P02
7
STANDARD
100
AcDbText
0
TEXT
5
500
330
C
100
AcDbEntity
8
F.SilkS
100
AcDbText
10
-124.46357867763423
20
58.64714820422845
30
0
40
0.8
1
P03
7
STANDARD
100
AcDbText
0
TEXT
5
501
330
C
100
AcDbEntity
8
F.SilkS
100
AcDbText
10
-124.30851538721569
20
56.111885816236914
30
0
40
0.8
1
P04
7
STANDARD
100
AcDbText
0
TEXT
5
502
330
C
100
AcDbEntity
8
F.SilkS
100
AcDbText
10
-124.15345209679715
20
53.57662342824537
30
0
40
0.8
1
P05
7
STANDARD
100
AcDbText
0
TEXT
5
503
330
C
100
AcDbEntity
8
F.SilkS
100
AcDbText
10
-123.99838880637861
20
51.041361040253825
30
0
40
0.8
1
P06
7
STANDARD
100
AcDbText
0
TEXT
5
504
330
C
100
AcDbEntity
8
F.SilkS
100
AcDbText
10
-123.84332551596009
20
48.50609865226228
30
0
40
0.8
1
P07
7
STANDARD
100
AcDbText
0
TEXT
5
505
330
C
100
AcDbEntity
8
F.SilkS
100
AcDbText
10
-123.68826222554155
20
45.970836264270744
30
0
40
0.8
1
P08
7
STANDARD
100
AcDbText
0
TEXT
5
506
330
C
100
AcDbEntity
8
F.SilkS
100
AcDbText
10
-123.53319893512301
20
43.4355738762792
30
0
40
0.8
1
P09
7
STANDARD
100
AcDbText
0
LWPOLYLINE
5
507
330
C
100
AcDbEntity
8
F.SilkS
62
1
100
AcDbPolyline
90
4
70
1
43
0
38
0
39
0
10
-113.7702232923788
20
72.90285169387178
10
-111.91389857427585
20
72.90285169387178
10
-111.91389857427585
20
71.26051431654639
10
-113.7702232923788
20
71.26051431654639
0
CIRCLE
5
508
330
C
100
AcDbEntity
8
F.SilkS
100
AcDbCircle
10
-112.68699764290878
20
69.54642061721754
30
0
40
0.8763
0
CIRCLE
5
509
330
C
100
AcDbEntity
8
F.SilkS
100
AcDbCircle
10
-112.53193435249025
20
67.011158229226
30
0
40
0.8763
0
CIRCLE
5
50A
330
C
100
AcDbEntity
8
F.SilkS
100
AcDbCircle
10
-112.37687106207171
20
64.47589584123446
30
0
40
0.8763
0
CIRCLE
5
50B
330
C
100
AcDbEntity
8
F.SilkS
100
AcDbCircle
10
-112.22180777165318
20
61.94063345324292
30
0
40
0.8763
0
CIRCLE
5
50C
330
C
100
AcDbEntity
8
F.SilkS
100
AcDbCircle
10
-112.06674448123464
20
59.40537106525137
30
0
40
0.8763
0
CIRCLE
5
50D
330
C
100
AcDbEntity
8
F.SilkS
100
AcDbCircle
10
-111.9116811908161
20
56.87010867725983
30
0
40
0.8763
0
CIRCLE
5
50E
330
C
100
AcDbEntity
8
F.SilkS
100
AcDbCircle
10
-111.75661790039757
20
54.33484628926829
30
0
40
0.8763
0
CIRCLE
5
50F
330
C
100
AcDbEntity
8
F.SilkS
100
AcDbCircle
10
-111.60155460997903
20
51.79958390127675
30
0
40
0.8763
0
CIRCLE
5
510
330
C
100
AcDbEntity
8
F.SilkS
100
AcDbCircle
10
-111.4464913195605
20
49.2643215132852
30
0
40
0.8763
0
CIRCLE
5
511
330
C
100
AcDbEntity
8
F.SilkS
100
AcDbCircle
10
-111.29142802914195
20
46.72905912529366
30
0
40
0.8763
0
CIRCLE
5
512
330
C
100
AcDbEntity
8
F.SilkS
100
AcDbCircle
10
-111.13636473872342
20
44.19379673730212
30
0
40
0.8763
0
CIRCLE
5
513
330
C
100
AcDbEntity
8
F.SilkS
100
AcDbCircle
10
-128.05363526127658
20
71.15130326269787
30
0
40
0.8763
0
CIRCLE
5
514
330
C
100
AcDbEntity
8
F.SilkS
100
AcDbCircle
10
-127.89857197085804
20
68.61604087470633
30
0
40
0.8763
0
CIRCLE
5
515
330
C
100
AcDbEntity
8
F.SilkS
100
AcDbCircle
10
-127.7435086804395
20
66.08077848671479
30
0
40
0.8763
0
CIRCLE
5
516
330
C
100
AcDbEntity
8
F.SilkS
100
AcDbCircle
10
-127.58844539002096
20
63.54551609872324
30
0
40
0.8763
0
CIRCLE
5
517
330
C
100
AcDbEntity
8
F.SilkS
100
AcDbCircle
10
-127.43338209960243
20
61.010253710731696
30
0
40
0.8763
0
CIRCLE
5
518
330
C
100
AcDbEntity
8
F.SilkS
100
AcDbCircle
10
-127.2783188091839
20
58.47499132274016
30
0
40
0.8763
0
CIRCLE
5
519
330
C
100
AcDbEntity
8
F.SilkS
100
AcDbCircle
10
-127.12325551876536
20
55.939728934748615
30
0
40
0.8763
0
CIRCLE
5
51A
330
C
100
AcDbEntity
8
F.SilkS
100
AcDbCircle
10
-126.96819222834682
20
53.40446654675707
30
0
40
0.8763
0
CIRCLE
5
51B
330
C
100
AcDbEntity
8
F.SilkS
100
AcDbCircle
10
-126.81312893792828
20
50.86920415876553
30
0
40
0.8763
0
CIRCLE
5
51C
330
C
100
AcDbEntity
8
F.SilkS
100
AcDbCircle
10
-126.65806564750974
20
48.33394177077399
30
0
40
0.8763
0
CIRCLE
5
51D
330
C
100
AcDbEntity
8
F.SilkS
100
AcDbCircle
10
-126.50300235709122
20
45.798679382782446
30
0
40
0.8763
0
CIRCLE
5
51E
330
C
100
AcDbEntity
8
F.SilkS
100
AcDbCircle
10
-126.34793906667268
20
43.2634169947909
30
0
40
0.8763
0
TEXT
5
51F
330
C
100
AcDbEntity
8
F.SilkS
100
AcDbText
10
0
20
-1
30
0
40
1.27
1
B1
7
STANDARD
100
AcDbText
0
TEXT
5
520
330
C
100
AcDbEntity
8
F.SilkS
100
AcDbText
10
0
20
-1
30
0
40
1.27
1

7
STANDARD
100
AcDbText
0
LINE
5
521
330
C
100
AcDbEntity
8
F.SilkS
100
AcDbLine
10
1.2499999999999998
20
-3.75
30
0
11
2.75
21
-2.25
31
0
0
LINE
5
522
330
C
100
AcDbEntity
8
F.SilkS
100
AcDbLine
10
-1.2500000000000002
20
-3.75
30
0
11
-2.75
21
-2.25
31
0
0
LINE
5
523
330
C
100
AcDbEntity
8
F.SilkS
100
AcDbLine
10
-1.2500000000000002
20
-3.75
30
0
11
1.2499999999999998
21
-3.75
31
0
0
LINE
5
524
330
C
100
AcDbEntity
8
F.SilkS
100
AcDbLine
10
2.75
20
0.24999999999999978
30
0
11
2.75
21
-2.25
31
0
0
LINE
5
525
330
C
100
AcDbEntity
8
F.SilkS
100
AcDbLine
10
-2.75
20
0.2500000000000002
30
0
11
-2.75
21
-2.25
31
0
0
LINE
5
526
330
C
100
AcDbEntity
8
F.SilkS
100
AcDbLine
10
1.2500000000000002
20
1.75
30
0
11
2.75
21
0.24999999999999978
31
0
0
LINE
5
527
330
C
100
AcDbEntity
8
F.SilkS
100
AcDbLine
10
-1.2499999999999998
20
1.75
30
0
11
-2.75
21
0.2500000000000002
31
0
0
LINE
5
528
330
C
100
AcDbEntity
8
F.SilkS
100
AcDbLine
10
-1.2499999999999998
20
1.75
30
0
11
1.2500000000000002
21
1.75
31
0
0
LWPOLYLINE
5
529
330
C
100
AcDbEntity
8
F.SilkS
62
1
100
AcDbPolyline
90
4
70
1
43
0
38
0
39
0
10
-2.4
20
3
10
-1.2999999999999998
20
3
10
-1.2999999999999998
20
1.2000000000000002
10
-2.4
20
1.2000000000000002
0
LWPOLYLINE
5
52A
330
C
100
AcDbEntity
8
F.SilkS
62
1
100
AcDbPolyline
90
4
70
1
43
0
38
0
39
0
10
-2.4000000000000004
20
-3.2
10
-1.3000000000000003
20
-3.2
10
-1.3000000000000003
20
-5
10
-2.4000000000000004
20
-5
0
LWPOLYLINE
5
52B
330
C
100
AcDbEntity
8
F.SilkS
62
1
100
AcDbPolyline
90
4
70
1
43
0
38
0
39
0
10
1.3000000000000003
20
3
10
2.4000000000000004
20
3
10
2.4000000000000004
20
1.2000000000000002
10
1.3000000000000003
20
1.2000000000000002
0
LWPOLYLINE
5
52C
330
C
100
AcDbEntity
8
F.SilkS
62
1
100
AcDbPolyline
90
4
70
1
43
0
38
0
39
0
10
1.2999999999999998
20
-3.2
10
2.4
20
-3.2
10
2.4
20
-5
10
1.2999999999999998
20
-5
0
LINE
5
52D
330
C
100
AcDbEntity
8
Edge.Cuts
100
AcDbLine
10
11.525
20
-9.441770248233782
30
0
11
11.525
21
66.79573331285364
31
0
0
LINE
5
52E
330
C
100
AcDbEntity
8
Edge.Cuts
100
AcDbLine
10
9.649370406206483
20
68.79186261246694
30
0
11
-18.3474513023338
21
70.53622713756161
31
0
0
LINE
5
52F
330
C
100
AcDbEntity
8
Edge.Cuts
100
AcDbLine
10
-19.57026360096938
20
71.05414854158778
30
0
11
-26.2022098999653
21
77.09825322178898
31
0
0
LINE
5
530
330
C
100
AcDbEntity
8
Edge.Cuts
100
AcDbLine
10
-27.064321398925006
20
77.56033034973125
30
0
11
-45.386140094117685
21
82.14078502352943
31
0
0
LINE
5
531
330
C
100
AcDbEntity
8
Edge.Cuts
100
AcDbLine
10
-45.87121130000003
20
82.2005
30
0
11
-68.42878869999998
21
82.2005
31
0
0
LINE
5
532
330
C
100
AcDbEntity
8
Edge.Cuts
100
AcDbLine
10
-68.91385990588233
20
82.14078502352942
30
0
11
-87.54610673263808
21
77.48272331684049
31
0
0
LINE
5
533
330
C
100
AcDbEntity
8
Edge.Cuts
100
AcDbLine
10
-87.90905553852043
20
77.4267403403699
30
0
11
-132.4903761191421
21
74.69946302161318
31
0
0
LINE
5
534
330
C
100
AcDbEntity
8
Edge.Cuts
100
AcDbLine
10
-134.36703641577748
20
72.63342642522139
30
0
11
-131.29366252017607
21
-15.414977230872864
31
0
0
LINE
5
535
330
C
100
AcDbEntity
8
Edge.Cuts
100
AcDbLine
10
-130.8269686822231
20
-16.63078388372088
30
0
11
-117.16009166006646
21
-32.91833366520453
31
0
0
LINE
5
536
330
C
100
AcDbEntity
8
Edge.Cuts
100
AcDbLine
10
-115.36359319002742
20
-33.615203301111876
30
0
11
-62.70662176798345
21
-26.592055114852243
31
0
0
LINE
5
537
330
C
100
AcDbEntity
8
Edge.Cuts
100
AcDbLine
10
-62.44221215662684
20
-26.5745
30
0
11
-37.99497447336106
21
-26.5745
31
0
0
LINE
5
538
330
C
100
AcDbEntity
8
Edge.Cuts
100
AcDbLine
10
-35.99788067874218
20
-24.682279199709683
30
0
11
-35.29137054348622
21
-11.590993857417516
31
0
0
LINE
5
539
330
C
100
AcDbEntity
8
Edge.Cuts
100
AcDbLine
10
-33.212777348867334
20
-9.700434257127121
30
0
11
9.443500600000002
21
-11.440109048233785
31
0
0
LINE
5
53A
330
C
100
AcDbEntity
8
Edge.Cuts
100
AcDbLine
10
9.525
20
66.79573331285364
30
0
11
9.6493704
21
68.79186261285365
31
0
0
LINE
5
53B
330
C
100
AcDbEntity
8
Edge.Cuts
100
AcDbLine
10
-18.223080896127314
20
72.53235643717491
30
0
11
-18.347451296127314
21
70.5362271371749
31
0
0
LINE
5
53C
330
C
100
AcDbEntity
8
Edge.Cuts
100
AcDbLine
10
-27.54939260480736
20
75.62004532620185
30
0
11
-27.06432140480736
21
77.56033032620185
31
0
0
LINE
5
53D
330
C
100
AcDbEntity
8
Edge.Cuts
100
AcDbLine
10
-45.87121130000003
20
80.2005
30
0
11
-45.87121130000003
21
82.2005
31
0
0
LINE
5
53E
330
C
100
AcDbEntity
8
Edge.Cuts
100
AcDbLine
10
-68.42878869999998
20
80.2005
30
0
11
-68.91385989999998
21
82.14078500000001
31
0
0
LINE
5
53F
330
C
100
AcDbEntity
8
Edge.Cuts
100
AcDbLine
10
-88.03117793852043
20
79.4230083403699
30
0
11
-87.54610673852044
21
77.4827233403699
31
0
0
LINE
5
540
330
C
100
AcDbEntity
8
Edge.Cuts
100
AcDbLine
10
-132.36825371914207
20
72.70319502161318
30
0
11
-134.36703641914207
21
72.63342642161318
31
0
0
LINE
5
541
330
C
100
AcDbEntity
8
Edge.Cuts
100
AcDbLine
10
-129.2948798235407
20
-15.345208634480514
30
0
11
-130.8269687235407
21
-16.630783934480515
31
0
0
LINE
5
542
330
C
100
AcDbEntity
8
Edge.Cuts
100
AcDbLine
10
-115.62800280138404
20
-31.632758415964133
30
0
11
-115.36359320138405
21
-33.61520321596414
31
0
0
LINE
5
543
330
C
100
AcDbEntity
8
Edge.Cuts
100
AcDbLine
10
-62.44221215662684
20
-28.5745
30
0
11
-62.70662175662684
21
-26.5920552
31
0
0
LINE
5
544
330
C
100
AcDbEntity
8
Edge.Cuts
100
AcDbLine
10
-37.99497447336106
20
-24.5745
30
0
11
-35.99788067336106
21
-24.6822792
31
0
0
LINE
5
545
330
C
100
AcDbEntity
8
Edge.Cuts
100
AcDbLine
10
-33.29427674886734
20
-11.698773057127141
30
0
11
-35.29137054886734
21
-11.590993857127142
31
0
0
LINE
5
546
330
C
100
AcDbEntity
8
Edge.Cuts
100
AcDbLine
10
9.525
20
-9.441770248233782
30
0
11
11.525
21
-9.441770248233782
31
0
0
ENDSEC
0
SECTION
2
OBJECTS
0
DICTIONARY
5
A
330
0
100
AcDbDictionary
281
1
3
ACAD_GROUP
350
B
0
DICTIONARY
5
B
330
A
100
AcDbDictionary
281
0
0
ENDSEC
0
EOF